<?xml version="1.0" encoding="UTF-8" standalone="no"?>
<!DOCTYPE svg PUBLIC "-//W3C//DTD SVG 1.1//EN"
 "http://www.w3.org/Graphics/SVG/1.1/DTD/svg11.dtd">
<!-- Generated by graphviz version 12.1.0 (20240811.2233)
 -->
<!-- Title: include/ADUL.hpp Pages: 1 -->
<svg width="772pt" height="252pt"
 viewBox="0.00 0.00 772.00 252.00" xmlns="http://www.w3.org/2000/svg" xmlns:xlink="http://www.w3.org/1999/xlink">
<g id="graph0" class="graph" transform="scale(1 1) rotate(0) translate(4 248)">
<title>include/ADUL.hpp</title>
<!-- Node1 -->
<g id="Node000001" class="node">
<title>Node1</title>
<g id="a_Node000001"><a xlink:title=" ">
<polygon fill="#999999" stroke="#666666" points="356.38,-244 260.88,-244 260.88,-224 356.38,-224 356.38,-244"/>
<text text-anchor="middle" x="308.62" y="-230.5" font-family="Helvetica,sans-Serif" font-size="10.00">include/ADUL.hpp</text>
</a>
</g>
</g>
<!-- Node2 -->
<g id="Node000002" class="node">
<title>Node2</title>
<g id="a_Node000002"><a xlink:href="exceptions_8hpp.html" target="_top" xlink:title=" ">
<polygon fill="white" stroke="#666666" points="175.62,-76 63.62,-76 63.62,-56 175.62,-56 175.62,-76"/>
<text text-anchor="middle" x="119.62" y="-62.5" font-family="Helvetica,sans-Serif" font-size="10.00">ADUL/exceptions.hpp</text>
</a>
</g>
</g>
<!-- Node1&#45;&gt;Node2 -->
<g id="edge1_Node000001_Node000002" class="edge">
<title>Node1&#45;&gt;Node2</title>
<g id="a_edge1_Node000001_Node000002"><a xlink:title=" ">
<path fill="none" stroke="#63b8ff" d="M260.55,-233.62C190.3,-231.55 62.06,-215.77 7.62,-132 -9.14,-106.2 24.02,-89.41 58.52,-79.37"/>
<polygon fill="#63b8ff" stroke="#63b8ff" points="59.03,-82.86 67.76,-76.87 57.19,-76.11 59.03,-82.86"/>
</a>
</g>
</g>
<!-- Node5 -->
<g id="Node000005" class="node">
<title>Node5</title>
<g id="a_Node000005"><a xlink:href="logs_8hpp.html" target="_top" xlink:title=" ">
<polygon fill="white" stroke="#666666" points="271,-188 188.25,-188 188.25,-168 271,-168 271,-188"/>
<text text-anchor="middle" x="229.62" y="-174.5" font-family="Helvetica,sans-Serif" font-size="10.00">ADUL/logs.hpp</text>
</a>
</g>
</g>
<!-- Node1&#45;&gt;Node5 -->
<g id="edge4_Node000001_Node000005" class="edge">
<title>Node1&#45;&gt;Node5</title>
<g id="a_edge4_Node000001_Node000005"><a xlink:title=" ">
<path fill="none" stroke="#63b8ff" d="M294.86,-223.59C283.27,-215.67 266.43,-204.16 252.76,-194.82"/>
<polygon fill="#63b8ff" stroke="#63b8ff" points="254.97,-192.09 244.74,-189.33 251.02,-197.87 254.97,-192.09"/>
</a>
</g>
</g>
<!-- Node9 -->
<g id="Node000009" class="node">
<title>Node9</title>
<g id="a_Node000009"><a xlink:href="time_8hpp.html" target="_top" xlink:title=" ">
<polygon fill="white" stroke="#666666" points="70.38,-132 16.87,-132 16.87,-112 70.38,-112 70.38,-132"/>
<text text-anchor="middle" x="43.62" y="-118.5" font-family="Helvetica,sans-Serif" font-size="10.00">time.hpp</text>
</a>
</g>
</g>
<!-- Node1&#45;&gt;Node9 -->
<g id="edge14_Node000001_Node000009" class="edge">
<title>Node1&#45;&gt;Node9</title>
<g id="a_edge14_Node000001_Node000009"><a xlink:title=" ">
<path fill="none" stroke="#63b8ff" d="M278.56,-223.55C252.19,-215.02 212.96,-201.73 179.62,-188 141.6,-172.34 99.02,-151.41 71.79,-137.59"/>
<polygon fill="#63b8ff" stroke="#63b8ff" points="73.66,-134.61 63.16,-133.17 70.47,-140.84 73.66,-134.61"/>
</a>
</g>
</g>
<!-- Node11 -->
<g id="Node000011" class="node">
<title>Node11</title>
<g id="a_Node000011"><a xlink:href="small_utils_8hpp.html" target="_top" xlink:title=" ">
<polygon fill="white" stroke="#666666" points="752.75,-76 644.5,-76 644.5,-56 752.75,-56 752.75,-76"/>
<text text-anchor="middle" x="698.62" y="-62.5" font-family="Helvetica,sans-Serif" font-size="10.00">ADUL/smallUtils.hpp</text>
</a>
</g>
</g>
<!-- Node1&#45;&gt;Node11 -->
<g id="edge15_Node000001_Node000011" class="edge">
<title>Node1&#45;&gt;Node11</title>
<g id="a_edge15_Node000001_Node000011"><a xlink:title=" ">
<path fill="none" stroke="#63b8ff" d="M338.39,-223.54C364.74,-214.95 404.1,-201.58 437.62,-188 523.52,-153.21 622.01,-105.29 669.72,-81.54"/>
<polygon fill="#63b8ff" stroke="#63b8ff" points="671.17,-84.73 678.56,-77.13 668.05,-78.47 671.17,-84.73"/>
</a>
</g>
</g>
<!-- Node14 -->
<g id="Node000014" class="node">
<title>Node14</title>
<g id="a_Node000014"><a xlink:href="atm_8hpp.html" target="_top" xlink:title=" ">
<polygon fill="white" stroke="#666666" points="428.25,-188 347,-188 347,-168 428.25,-168 428.25,-188"/>
<text text-anchor="middle" x="387.62" y="-174.5" font-family="Helvetica,sans-Serif" font-size="10.00">ADUL/atm.hpp</text>
</a>
</g>
</g>
<!-- Node1&#45;&gt;Node14 -->
<g id="edge19_Node000001_Node000014" class="edge">
<title>Node1&#45;&gt;Node14</title>
<g id="a_edge19_Node000001_Node000014"><a xlink:title=" ">
<path fill="none" stroke="#63b8ff" d="M322.39,-223.59C333.98,-215.67 350.82,-204.16 364.49,-194.82"/>
<polygon fill="#63b8ff" stroke="#63b8ff" points="366.23,-197.87 372.51,-189.33 362.28,-192.09 366.23,-197.87"/>
</a>
</g>
</g>
<!-- Node20 -->
<g id="Node000020" class="node">
<title>Node20</title>
<g id="a_Node000020"><a xlink:title=" ">
<polygon fill="#e0e0e0" stroke="#999999" points="673.38,-188 571.88,-188 571.88,-168 673.38,-168 673.38,-188"/>
<text text-anchor="middle" x="622.62" y="-174.5" font-family="Helvetica,sans-Serif" font-size="10.00">extern/tinyxml2.hpp</text>
</a>
</g>
</g>
<!-- Node1&#45;&gt;Node20 -->
<g id="edge28_Node000001_Node000020" class="edge">
<title>Node1&#45;&gt;Node20</title>
<g id="a_edge28_Node000001_Node000020"><a xlink:title=" ">
<path fill="none" stroke="#63b8ff" d="M356.66,-224.74C411.21,-215.36 500.4,-200.02 560.27,-189.72"/>
<polygon fill="#63b8ff" stroke="#63b8ff" points="560.72,-193.2 569.98,-188.05 559.53,-186.3 560.72,-193.2"/>
</a>
</g>
</g>
<!-- Node3 -->
<g id="Node000003" class="node">
<title>Node3</title>
<g id="a_Node000003"><a xlink:title=" ">
<polygon fill="#e0e0e0" stroke="#999999" points="148.62,-20 90.62,-20 90.62,0 148.62,0 148.62,-20"/>
<text text-anchor="middle" x="119.62" y="-6.5" font-family="Helvetica,sans-Serif" font-size="10.00">exception</text>
</a>
</g>
</g>
<!-- Node2&#45;&gt;Node3 -->
<g id="edge2_Node000002_Node000003" class="edge">
<title>Node2&#45;&gt;Node3</title>
<g id="a_edge2_Node000002_Node000003"><a xlink:title=" ">
<path fill="none" stroke="#63b8ff" d="M119.62,-55.59C119.62,-49.01 119.62,-39.96 119.62,-31.73"/>
<polygon fill="#63b8ff" stroke="#63b8ff" points="123.13,-31.81 119.63,-21.81 116.13,-31.81 123.13,-31.81"/>
</a>
</g>
</g>
<!-- Node4 -->
<g id="Node000004" class="node">
<title>Node4</title>
<g id="a_Node000004"><a xlink:title=" ">
<polygon fill="#e0e0e0" stroke="#999999" points="342.62,-20 302.62,-20 302.62,0 342.62,0 342.62,-20"/>
<text text-anchor="middle" x="322.62" y="-6.5" font-family="Helvetica,sans-Serif" font-size="10.00">string</text>
</a>
</g>
</g>
<!-- Node2&#45;&gt;Node4 -->
<g id="edge3_Node000002_Node000004" class="edge">
<title>Node2&#45;&gt;Node4</title>
<g id="a_edge3_Node000002_Node000004"><a xlink:title=" ">
<path fill="none" stroke="#63b8ff" d="M154.98,-55.59C193.42,-45.37 254.28,-29.18 291.13,-19.38"/>
<polygon fill="#63b8ff" stroke="#63b8ff" points="291.96,-22.78 300.73,-16.82 290.16,-16.01 291.96,-22.78"/>
</a>
</g>
</g>
<!-- Node5&#45;&gt;Node2 -->
<g id="edge13_Node000005_Node000002" class="edge">
<title>Node5&#45;&gt;Node2</title>
<g id="a_edge13_Node000005_Node000002"><a xlink:title=" ">
<path fill="none" stroke="#63b8ff" d="M187.99,-171.87C163.08,-166.42 133.29,-155.18 117.62,-132 108.82,-118.98 110.19,-100.9 113.26,-87.11"/>
<polygon fill="#63b8ff" stroke="#63b8ff" points="116.55,-88.36 115.79,-77.79 109.79,-86.52 116.55,-88.36"/>
</a>
</g>
</g>
<!-- Node5&#45;&gt;Node4 -->
<g id="edge5_Node000005_Node000004" class="edge">
<title>Node5&#45;&gt;Node4</title>
<g id="a_edge5_Node000005_Node000004"><a xlink:title=" ">
<path fill="none" stroke="#63b8ff" d="M244.48,-167.53C256.24,-159.37 272.35,-146.61 282.62,-132 304.51,-100.88 315.04,-56.98 319.6,-31.5"/>
<polygon fill="#63b8ff" stroke="#63b8ff" points="323.02,-32.24 321.18,-21.81 316.11,-31.12 323.02,-32.24"/>
</a>
</g>
</g>
<!-- Node6 -->
<g id="Node000006" class="node">
<title>Node6</title>
<g id="a_Node000006"><a xlink:title=" ">
<polygon fill="#e0e0e0" stroke="#999999" points="256.38,-132 202.88,-132 202.88,-112 256.38,-112 256.38,-132"/>
<text text-anchor="middle" x="229.62" y="-118.5" font-family="Helvetica,sans-Serif" font-size="10.00">iostream</text>
</a>
</g>
</g>
<!-- Node5&#45;&gt;Node6 -->
<g id="edge6_Node000005_Node000006" class="edge">
<title>Node5&#45;&gt;Node6</title>
<g id="a_edge6_Node000005_Node000006"><a xlink:title=" ">
<path fill="none" stroke="#63b8ff" d="M229.62,-167.59C229.62,-161.01 229.62,-151.96 229.62,-143.73"/>
<polygon fill="#63b8ff" stroke="#63b8ff" points="233.13,-143.81 229.63,-133.81 226.13,-143.81 233.13,-143.81"/>
</a>
</g>
</g>
<!-- Node7 -->
<g id="Node000007" class="node">
<title>Node7</title>
<g id="a_Node000007"><a xlink:title=" ">
<polygon fill="#e0e0e0" stroke="#999999" points="294.12,-76 251.12,-76 251.12,-56 294.12,-56 294.12,-76"/>
<text text-anchor="middle" x="272.62" y="-62.5" font-family="Helvetica,sans-Serif" font-size="10.00">vector</text>
</a>
</g>
</g>
<!-- Node5&#45;&gt;Node7 -->
<g id="edge7_Node000005_Node000007" class="edge">
<title>Node5&#45;&gt;Node7</title>
<g id="a_edge7_Node000005_Node000007"><a xlink:title=" ">
<path fill="none" stroke="#63b8ff" d="M239.75,-167.72C248.22,-159.29 259.83,-146.06 265.62,-132 271.46,-117.85 273.09,-100.56 273.33,-87.37"/>
<polygon fill="#63b8ff" stroke="#63b8ff" points="276.83,-87.7 273.23,-77.74 269.83,-87.77 276.83,-87.7"/>
</a>
</g>
</g>
<!-- Node8 -->
<g id="Node000008" class="node">
<title>Node8</title>
<g id="a_Node000008"><a xlink:title=" ">
<polygon fill="#e0e0e0" stroke="#999999" points="184.62,-132 126.62,-132 126.62,-112 184.62,-112 184.62,-132"/>
<text text-anchor="middle" x="155.62" y="-118.5" font-family="Helvetica,sans-Serif" font-size="10.00">functional</text>
</a>
</g>
</g>
<!-- Node5&#45;&gt;Node8 -->
<g id="edge8_Node000005_Node000008" class="edge">
<title>Node5&#45;&gt;Node8</title>
<g id="a_edge8_Node000005_Node000008"><a xlink:title=" ">
<path fill="none" stroke="#63b8ff" d="M216.74,-167.59C205.91,-159.7 190.21,-148.24 177.44,-138.92"/>
<polygon fill="#63b8ff" stroke="#63b8ff" points="179.73,-136.26 169.59,-133.19 175.6,-141.91 179.73,-136.26"/>
</a>
</g>
</g>
<!-- Node5&#45;&gt;Node9 -->
<g id="edge9_Node000005_Node000009" class="edge">
<title>Node5&#45;&gt;Node9</title>
<g id="a_edge9_Node000005_Node000009"><a xlink:title=" ">
<path fill="none" stroke="#63b8ff" d="M197.23,-167.59C165.06,-158.25 115.76,-143.94 81.73,-134.06"/>
<polygon fill="#63b8ff" stroke="#63b8ff" points="82.85,-130.74 72.27,-131.32 80.9,-137.47 82.85,-130.74"/>
</a>
</g>
</g>
<!-- Node9&#45;&gt;Node2 -->
<g id="edge12_Node000009_Node000002" class="edge">
<title>Node9&#45;&gt;Node2</title>
<g id="a_edge12_Node000009_Node000002"><a xlink:title=" ">
<path fill="none" stroke="#63b8ff" d="M56.86,-111.59C67.91,-103.74 83.91,-92.38 96.98,-83.09"/>
<polygon fill="#63b8ff" stroke="#63b8ff" points="98.93,-86 105.05,-77.36 94.87,-80.3 98.93,-86"/>
</a>
</g>
</g>
<!-- Node9&#45;&gt;Node7 -->
<g id="edge11_Node000009_Node000007" class="edge">
<title>Node9&#45;&gt;Node7</title>
<g id="a_edge11_Node000009_Node000007"><a xlink:title=" ">
<path fill="none" stroke="#63b8ff" d="M70.79,-114.59C113.08,-104.62 194.5,-85.42 239.93,-74.71"/>
<polygon fill="#63b8ff" stroke="#63b8ff" points="240.53,-78.16 249.46,-72.46 238.92,-71.35 240.53,-78.16"/>
</a>
</g>
</g>
<!-- Node10 -->
<g id="Node000010" class="node">
<title>Node10</title>
<g id="a_Node000010"><a xlink:title=" ">
<polygon fill="#e0e0e0" stroke="#999999" points="45.25,-76 0,-76 0,-56 45.25,-56 45.25,-76"/>
<text text-anchor="middle" x="22.62" y="-62.5" font-family="Helvetica,sans-Serif" font-size="10.00">chrono</text>
</a>
</g>
</g>
<!-- Node9&#45;&gt;Node10 -->
<g id="edge10_Node000009_Node000010" class="edge">
<title>Node9&#45;&gt;Node10</title>
<g id="a_edge10_Node000009_Node000010"><a xlink:title=" ">
<path fill="none" stroke="#63b8ff" d="M39.97,-111.59C37.32,-104.78 33.64,-95.32 30.35,-86.86"/>
<polygon fill="#63b8ff" stroke="#63b8ff" points="33.68,-85.76 26.79,-77.71 27.15,-88.3 33.68,-85.76"/>
</a>
</g>
</g>
<!-- Node11&#45;&gt;Node4 -->
<g id="edge16_Node000011_Node000004" class="edge">
<title>Node11&#45;&gt;Node4</title>
<g id="a_edge16_Node000011_Node000004"><a xlink:title=" ">
<path fill="none" stroke="#63b8ff" d="M644.35,-57.21C564.68,-45.76 418.58,-24.78 354.34,-15.56"/>
<polygon fill="#63b8ff" stroke="#63b8ff" points="354.88,-12.1 344.48,-14.14 353.88,-19.03 354.88,-12.1"/>
</a>
</g>
</g>
<!-- Node12 -->
<g id="Node000012" class="node">
<title>Node12</title>
<g id="a_Node000012"><a xlink:title=" ">
<polygon fill="#e0e0e0" stroke="#999999" points="687.25,-20 636,-20 636,0 687.25,0 687.25,-20"/>
<text text-anchor="middle" x="661.62" y="-6.5" font-family="Helvetica,sans-Serif" font-size="10.00">sstream</text>
</a>
</g>
</g>
<!-- Node11&#45;&gt;Node12 -->
<g id="edge17_Node000011_Node000012" class="edge">
<title>Node11&#45;&gt;Node12</title>
<g id="a_edge17_Node000011_Node000012"><a xlink:title=" ">
<path fill="none" stroke="#63b8ff" d="M692.18,-55.59C687.3,-48.47 680.43,-38.45 674.45,-29.72"/>
<polygon fill="#63b8ff" stroke="#63b8ff" points="677.39,-27.82 668.85,-21.55 671.62,-31.77 677.39,-27.82"/>
</a>
</g>
</g>
<!-- Node13 -->
<g id="Node000013" class="node">
<title>Node13</title>
<g id="a_Node000013"><a xlink:title=" ">
<polygon fill="#e0e0e0" stroke="#999999" points="764,-20 705.25,-20 705.25,0 764,0 764,-20"/>
<text text-anchor="middle" x="734.62" y="-6.5" font-family="Helvetica,sans-Serif" font-size="10.00">stdexcept</text>
</a>
</g>
</g>
<!-- Node11&#45;&gt;Node13 -->
<g id="edge18_Node000011_Node000013" class="edge">
<title>Node11&#45;&gt;Node13</title>
<g id="a_edge18_Node000011_Node000013"><a xlink:title=" ">
<path fill="none" stroke="#63b8ff" d="M704.9,-55.59C709.64,-48.47 716.32,-38.45 722.15,-29.72"/>
<polygon fill="#63b8ff" stroke="#63b8ff" points="724.95,-31.82 727.59,-21.56 719.13,-27.94 724.95,-31.82"/>
</a>
</g>
</g>
<!-- Node15 -->
<g id="Node000015" class="node">
<title>Node15</title>
<g id="a_Node000015"><a xlink:href="bit_vector_8hpp.html" target="_top" xlink:title=" ">
<polygon fill="white" stroke="#666666" points="424.12,-132 351.12,-132 351.12,-112 424.12,-112 424.12,-132"/>
<text text-anchor="middle" x="387.62" y="-118.5" font-family="Helvetica,sans-Serif" font-size="10.00">bitVector.hpp</text>
</a>
</g>
</g>
<!-- Node14&#45;&gt;Node15 -->
<g id="edge20_Node000014_Node000015" class="edge">
<title>Node14&#45;&gt;Node15</title>
<g id="a_edge20_Node000014_Node000015"><a xlink:title=" ">
<path fill="none" stroke="#63b8ff" d="M387.62,-167.59C387.62,-161.01 387.62,-151.96 387.62,-143.73"/>
<polygon fill="#63b8ff" stroke="#63b8ff" points="391.13,-143.81 387.63,-133.81 384.13,-143.81 391.13,-143.81"/>
</a>
</g>
</g>
<!-- Node17 -->
<g id="Node000017" class="node">
<title>Node17</title>
<g id="a_Node000017"><a xlink:href="_x_m_l_map_8hpp.html" target="_top" xlink:title=" ">
<polygon fill="white" stroke="#666666" points="515.5,-132 441.75,-132 441.75,-112 515.5,-112 515.5,-132"/>
<text text-anchor="middle" x="478.62" y="-118.5" font-family="Helvetica,sans-Serif" font-size="10.00">XMLMap.hpp</text>
</a>
</g>
</g>
<!-- Node14&#45;&gt;Node17 -->
<g id="edge23_Node000014_Node000017" class="edge">
<title>Node14&#45;&gt;Node17</title>
<g id="a_edge23_Node000014_Node000017"><a xlink:title=" ">
<path fill="none" stroke="#63b8ff" d="M403.48,-167.59C417.09,-159.51 436.99,-147.71 452.89,-138.27"/>
<polygon fill="#63b8ff" stroke="#63b8ff" points="454.53,-141.37 461.35,-133.25 450.96,-135.35 454.53,-141.37"/>
</a>
</g>
</g>
<!-- Node15&#45;&gt;Node7 -->
<g id="edge22_Node000015_Node000007" class="edge">
<title>Node15&#45;&gt;Node7</title>
<g id="a_edge22_Node000015_Node000007"><a xlink:title=" ">
<path fill="none" stroke="#63b8ff" d="M367.59,-111.59C349.81,-103.24 323.56,-90.92 303.16,-81.34"/>
<polygon fill="#63b8ff" stroke="#63b8ff" points="304.72,-78.21 294.18,-77.12 301.75,-84.54 304.72,-78.21"/>
</a>
</g>
</g>
<!-- Node16 -->
<g id="Node000016" class="node">
<title>Node16</title>
<g id="a_Node000016"><a xlink:title=" ">
<polygon fill="#e0e0e0" stroke="#999999" points="396.25,-76 351,-76 351,-56 396.25,-56 396.25,-76"/>
<text text-anchor="middle" x="373.62" y="-62.5" font-family="Helvetica,sans-Serif" font-size="10.00">cstdint</text>
</a>
</g>
</g>
<!-- Node15&#45;&gt;Node16 -->
<g id="edge21_Node000015_Node000016" class="edge">
<title>Node15&#45;&gt;Node16</title>
<g id="a_edge21_Node000015_Node000016"><a xlink:title=" ">
<path fill="none" stroke="#63b8ff" d="M385.19,-111.59C383.46,-104.93 381.08,-95.75 378.92,-87.44"/>
<polygon fill="#63b8ff" stroke="#63b8ff" points="382.31,-86.56 376.42,-77.76 375.54,-88.32 382.31,-86.56"/>
</a>
</g>
</g>
<!-- Node17&#45;&gt;Node2 -->
<g id="edge25_Node000017_Node000002" class="edge">
<title>Node17&#45;&gt;Node2</title>
<g id="a_edge25_Node000017_Node000002"><a xlink:title=" ">
<path fill="none" stroke="#63b8ff" d="M441.33,-113.38C438.73,-112.89 436.14,-112.43 433.62,-112 348.88,-97.46 250.71,-83.92 187.02,-75.57"/>
<polygon fill="#63b8ff" stroke="#63b8ff" points="187.8,-72.14 177.43,-74.31 186.89,-79.08 187.8,-72.14"/>
</a>
</g>
</g>
<!-- Node17&#45;&gt;Node11 -->
<g id="edge26_Node000017_Node000011" class="edge">
<title>Node17&#45;&gt;Node11</title>
<g id="a_edge26_Node000017_Node000011"><a xlink:title=" ">
<path fill="none" stroke="#63b8ff" d="M515.95,-111.84C552.59,-102.85 608.71,-89.07 649.07,-79.16"/>
<polygon fill="#63b8ff" stroke="#63b8ff" points="649.66,-82.62 658.54,-76.84 647.99,-75.82 649.66,-82.62"/>
</a>
</g>
</g>
<!-- Node18 -->
<g id="Node000018" class="node">
<title>Node18</title>
<g id="a_Node000018"><a xlink:title=" ">
<polygon fill="#e0e0e0" stroke="#999999" points="524.88,-76 414.38,-76 414.38,-56 524.88,-56 524.88,-76"/>
<text text-anchor="middle" x="469.62" y="-62.5" font-family="Helvetica,sans-Serif" font-size="10.00">../extern/tinyxml2.hpp</text>
</a>
</g>
</g>
<!-- Node17&#45;&gt;Node18 -->
<g id="edge24_Node000017_Node000018" class="edge">
<title>Node17&#45;&gt;Node18</title>
<g id="a_edge24_Node000017_Node000018"><a xlink:title=" ">
<path fill="none" stroke="#63b8ff" d="M477.06,-111.59C475.95,-104.93 474.42,-95.75 473.03,-87.44"/>
<polygon fill="#63b8ff" stroke="#63b8ff" points="476.52,-87.08 471.42,-77.79 469.62,-88.23 476.52,-87.08"/>
</a>
</g>
</g>
<!-- Node19 -->
<g id="Node000019" class="node">
<title>Node19</title>
<g id="a_Node000019"><a xlink:title=" ">
<polygon fill="#e0e0e0" stroke="#999999" points="626,-76 543.25,-76 543.25,-56 626,-56 626,-76"/>
<text text-anchor="middle" x="584.62" y="-62.5" font-family="Helvetica,sans-Serif" font-size="10.00">unordered_map</text>
</a>
</g>
</g>
<!-- Node17&#45;&gt;Node19 -->
<g id="edge27_Node000017_Node000019" class="edge">
<title>Node17&#45;&gt;Node19</title>
<g id="a_edge27_Node000017_Node000019"><a xlink:title=" ">
<path fill="none" stroke="#63b8ff" d="M497.09,-111.59C513.33,-103.32 537.23,-91.14 555.96,-81.6"/>
<polygon fill="#63b8ff" stroke="#63b8ff" points="557.35,-84.82 564.67,-77.17 554.17,-78.59 557.35,-84.82"/>
</a>
</g>
</g>
</g>
</svg>
