<?xml version="1.0" encoding="UTF-8" standalone="no"?>
<!DOCTYPE svg PUBLIC "-//W3C//DTD SVG 1.1//EN"
 "http://www.w3.org/Graphics/SVG/1.1/DTD/svg11.dtd">
<!-- Generated by graphviz version 12.1.0 (20240811.2233)
 -->
<!-- Title: include/ADUL.hpp Pages: 1 -->
<svg width="685pt" height="252pt"
 viewBox="0.00 0.00 684.75 252.00" xmlns="http://www.w3.org/2000/svg" xmlns:xlink="http://www.w3.org/1999/xlink">
<g id="graph0" class="graph" transform="scale(1 1) rotate(0) translate(4 248)">
<title>include/ADUL.hpp</title>
<!-- Node1 -->
<g id="Node000001" class="node">
<title>Node1</title>
<g id="a_Node000001"><a xlink:title=" ">
<polygon fill="#999999" stroke="#666666" points="350.75,-244 255.25,-244 255.25,-224 350.75,-224 350.75,-244"/>
<text text-anchor="middle" x="303" y="-230.5" font-family="Helvetica,sans-Serif" font-size="10.00">include/ADUL.hpp</text>
</a>
</g>
</g>
<!-- Node2 -->
<g id="Node000002" class="node">
<title>Node2</title>
<g id="a_Node000002"><a xlink:href="exceptions_8hpp.html" target="_top" xlink:title=" ">
<polygon fill="white" stroke="#666666" points="112,-76 0,-76 0,-56 112,-56 112,-76"/>
<text text-anchor="middle" x="56" y="-62.5" font-family="Helvetica,sans-Serif" font-size="10.00">ADUL/exceptions.hpp</text>
</a>
</g>
</g>
<!-- Node1&#45;&gt;Node2 -->
<g id="edge1_Node000001_Node000002" class="edge">
<title>Node1&#45;&gt;Node2</title>
<g id="a_edge1_Node000001_Node000002"><a xlink:title=" ">
<path fill="none" stroke="#63b8ff" d="M254.83,-229.36C196.13,-221.99 99.75,-199.65 59,-132 50.97,-118.66 50.71,-100.85 52.19,-87.24"/>
<polygon fill="#63b8ff" stroke="#63b8ff" points="55.6,-88.09 53.64,-77.68 48.68,-87.04 55.6,-88.09"/>
</a>
</g>
</g>
<!-- Node5 -->
<g id="Node000005" class="node">
<title>Node5</title>
<g id="a_Node000005"><a xlink:href="logger_8hpp.html" target="_top" xlink:title=" ">
<polygon fill="white" stroke="#666666" points="283.5,-188 192.5,-188 192.5,-168 283.5,-168 283.5,-188"/>
<text text-anchor="middle" x="238" y="-174.5" font-family="Helvetica,sans-Serif" font-size="10.00">ADUL/logger.hpp</text>
</a>
</g>
</g>
<!-- Node1&#45;&gt;Node5 -->
<g id="edge4_Node000001_Node000005" class="edge">
<title>Node1&#45;&gt;Node5</title>
<g id="a_edge4_Node000001_Node000005"><a xlink:title=" ">
<path fill="none" stroke="#63b8ff" d="M291.68,-223.59C282.36,-215.85 268.92,-204.69 257.82,-195.47"/>
<polygon fill="#63b8ff" stroke="#63b8ff" points="260.29,-192.96 250.36,-189.27 255.81,-198.35 260.29,-192.96"/>
</a>
</g>
</g>
<!-- Node9 -->
<g id="Node000009" class="node">
<title>Node9</title>
<g id="a_Node000009"><a xlink:href="time_8hpp.html" target="_top" xlink:title=" ">
<polygon fill="white" stroke="#666666" points="137.75,-132 84.25,-132 84.25,-112 137.75,-112 137.75,-132"/>
<text text-anchor="middle" x="111" y="-118.5" font-family="Helvetica,sans-Serif" font-size="10.00">time.hpp</text>
</a>
</g>
</g>
<!-- Node1&#45;&gt;Node9 -->
<g id="edge14_Node000001_Node000009" class="edge">
<title>Node1&#45;&gt;Node9</title>
<g id="a_edge14_Node000001_Node000009"><a xlink:title=" ">
<path fill="none" stroke="#63b8ff" d="M268.14,-223.52C243.56,-215.97 210.45,-204.02 184,-188 162.12,-174.75 140.7,-154.57 126.78,-140.22"/>
<polygon fill="#63b8ff" stroke="#63b8ff" points="129.6,-138.1 120.19,-133.24 124.52,-142.91 129.6,-138.1"/>
</a>
</g>
</g>
<!-- Node11 -->
<g id="Node000011" class="node">
<title>Node11</title>
<g id="a_Node000011"><a xlink:href="bit_vector_8hpp.html" target="_top" xlink:title=" ">
<polygon fill="white" stroke="#666666" points="430.5,-188 327.5,-188 327.5,-168 430.5,-168 430.5,-188"/>
<text text-anchor="middle" x="379" y="-174.5" font-family="Helvetica,sans-Serif" font-size="10.00">ADUL/bitVector.hpp</text>
</a>
</g>
</g>
<!-- Node1&#45;&gt;Node11 -->
<g id="edge15_Node000001_Node000011" class="edge">
<title>Node1&#45;&gt;Node11</title>
<g id="a_edge15_Node000001_Node000011"><a xlink:title=" ">
<path fill="none" stroke="#63b8ff" d="M316.24,-223.59C327.29,-215.74 343.28,-204.38 356.36,-195.09"/>
<polygon fill="#63b8ff" stroke="#63b8ff" points="358.3,-198 364.42,-189.36 354.25,-192.3 358.3,-198"/>
</a>
</g>
</g>
<!-- Node13 -->
<g id="Node000013" class="node">
<title>Node13</title>
<g id="a_Node000013"><a xlink:href="small_utils_8hpp.html" target="_top" xlink:title=" ">
<polygon fill="white" stroke="#666666" points="557.12,-188 448.88,-188 448.88,-168 557.12,-168 557.12,-188"/>
<text text-anchor="middle" x="503" y="-174.5" font-family="Helvetica,sans-Serif" font-size="10.00">ADUL/smallUtils.hpp</text>
</a>
</g>
</g>
<!-- Node1&#45;&gt;Node13 -->
<g id="edge18_Node000001_Node000013" class="edge">
<title>Node1&#45;&gt;Node13</title>
<g id="a_edge18_Node000001_Node000013"><a xlink:title=" ">
<path fill="none" stroke="#63b8ff" d="M337.84,-223.59C370.9,-214.67 420.8,-201.19 457.1,-191.39"/>
<polygon fill="#63b8ff" stroke="#63b8ff" points="457.69,-194.86 466.43,-188.87 455.86,-188.1 457.69,-194.86"/>
</a>
</g>
</g>
<!-- Node16 -->
<g id="Node000016" class="node">
<title>Node16</title>
<g id="a_Node000016"><a xlink:title=" ">
<polygon fill="#e0e0e0" stroke="#999999" points="676.75,-188 575.25,-188 575.25,-168 676.75,-168 676.75,-188"/>
<text text-anchor="middle" x="626" y="-174.5" font-family="Helvetica,sans-Serif" font-size="10.00">extern/tinyxml2.hpp</text>
</a>
</g>
</g>
<!-- Node1&#45;&gt;Node16 -->
<g id="edge22_Node000001_Node000016" class="edge">
<title>Node1&#45;&gt;Node16</title>
<g id="a_edge22_Node000001_Node000016"><a xlink:title=" ">
<path fill="none" stroke="#63b8ff" d="M351.01,-224.97C407.51,-215.53 501.47,-199.82 563.58,-189.44"/>
<polygon fill="#63b8ff" stroke="#63b8ff" points="564.01,-192.91 573.3,-187.81 562.86,-186.01 564.01,-192.91"/>
</a>
</g>
</g>
<!-- Node3 -->
<g id="Node000003" class="node">
<title>Node3</title>
<g id="a_Node000003"><a xlink:title=" ">
<polygon fill="#e0e0e0" stroke="#999999" points="85,-20 27,-20 27,0 85,0 85,-20"/>
<text text-anchor="middle" x="56" y="-6.5" font-family="Helvetica,sans-Serif" font-size="10.00">exception</text>
</a>
</g>
</g>
<!-- Node2&#45;&gt;Node3 -->
<g id="edge2_Node000002_Node000003" class="edge">
<title>Node2&#45;&gt;Node3</title>
<g id="a_edge2_Node000002_Node000003"><a xlink:title=" ">
<path fill="none" stroke="#63b8ff" d="M56,-55.59C56,-49.01 56,-39.96 56,-31.73"/>
<polygon fill="#63b8ff" stroke="#63b8ff" points="59.5,-31.81 56,-21.81 52.5,-31.81 59.5,-31.81"/>
</a>
</g>
</g>
<!-- Node4 -->
<g id="Node000004" class="node">
<title>Node4</title>
<g id="a_Node000004"><a xlink:title=" ">
<polygon fill="#e0e0e0" stroke="#999999" points="372,-20 332,-20 332,0 372,0 372,-20"/>
<text text-anchor="middle" x="352" y="-6.5" font-family="Helvetica,sans-Serif" font-size="10.00">string</text>
</a>
</g>
</g>
<!-- Node2&#45;&gt;Node4 -->
<g id="edge3_Node000002_Node000004" class="edge">
<title>Node2&#45;&gt;Node4</title>
<g id="a_edge3_Node000002_Node000004"><a xlink:title=" ">
<path fill="none" stroke="#63b8ff" d="M107.9,-55.53C169.3,-44.33 269.57,-26.04 320.37,-16.77"/>
<polygon fill="#63b8ff" stroke="#63b8ff" points="320.89,-20.23 330.1,-15 319.63,-13.35 320.89,-20.23"/>
</a>
</g>
</g>
<!-- Node5&#45;&gt;Node2 -->
<g id="edge13_Node000005_Node000002" class="edge">
<title>Node5&#45;&gt;Node2</title>
<g id="a_edge13_Node000005_Node000002"><a xlink:title=" ">
<path fill="none" stroke="#63b8ff" d="M192.34,-176.04C155.93,-172.84 106.06,-162.59 75,-132 63.21,-120.39 58.64,-101.89 56.92,-87.59"/>
<polygon fill="#63b8ff" stroke="#63b8ff" points="60.43,-87.59 56.14,-77.9 53.45,-88.14 60.43,-87.59"/>
</a>
</g>
</g>
<!-- Node5&#45;&gt;Node4 -->
<g id="edge5_Node000005_Node000004" class="edge">
<title>Node5&#45;&gt;Node4</title>
<g id="a_edge5_Node000005_Node000004"><a xlink:title=" ">
<path fill="none" stroke="#63b8ff" d="M277.88,-167.58C297.47,-160.89 319.67,-149.83 333,-132 355.01,-102.57 355.96,-57.74 354.26,-31.71"/>
<polygon fill="#63b8ff" stroke="#63b8ff" points="357.75,-31.45 353.39,-21.8 350.77,-32.06 357.75,-31.45"/>
</a>
</g>
</g>
<!-- Node6 -->
<g id="Node000006" class="node">
<title>Node6</title>
<g id="a_Node000006"><a xlink:title=" ">
<polygon fill="#e0e0e0" stroke="#999999" points="209.75,-132 156.25,-132 156.25,-112 209.75,-112 209.75,-132"/>
<text text-anchor="middle" x="183" y="-118.5" font-family="Helvetica,sans-Serif" font-size="10.00">iostream</text>
</a>
</g>
</g>
<!-- Node5&#45;&gt;Node6 -->
<g id="edge6_Node000005_Node000006" class="edge">
<title>Node5&#45;&gt;Node6</title>
<g id="a_edge6_Node000005_Node000006"><a xlink:title=" ">
<path fill="none" stroke="#63b8ff" d="M228.42,-167.59C220.77,-160.08 209.84,-149.35 200.62,-140.3"/>
<polygon fill="#63b8ff" stroke="#63b8ff" points="203.14,-137.87 193.55,-133.36 198.23,-142.86 203.14,-137.87"/>
</a>
</g>
</g>
<!-- Node7 -->
<g id="Node000007" class="node">
<title>Node7</title>
<g id="a_Node000007"><a xlink:title=" ">
<polygon fill="#e0e0e0" stroke="#999999" points="259.5,-76 216.5,-76 216.5,-56 259.5,-56 259.5,-76"/>
<text text-anchor="middle" x="238" y="-62.5" font-family="Helvetica,sans-Serif" font-size="10.00">vector</text>
</a>
</g>
</g>
<!-- Node5&#45;&gt;Node7 -->
<g id="edge7_Node000005_Node000007" class="edge">
<title>Node5&#45;&gt;Node7</title>
<g id="a_edge7_Node000005_Node000007"><a xlink:title=" ">
<path fill="none" stroke="#63b8ff" d="M238,-167.62C238,-150.01 238,-111.59 238,-87.65"/>
<polygon fill="#63b8ff" stroke="#63b8ff" points="241.5,-87.87 238,-77.87 234.5,-87.87 241.5,-87.87"/>
</a>
</g>
</g>
<!-- Node8 -->
<g id="Node000008" class="node">
<title>Node8</title>
<g id="a_Node000008"><a xlink:title=" ">
<polygon fill="#e0e0e0" stroke="#999999" points="324,-132 266,-132 266,-112 324,-112 324,-132"/>
<text text-anchor="middle" x="295" y="-118.5" font-family="Helvetica,sans-Serif" font-size="10.00">functional</text>
</a>
</g>
</g>
<!-- Node5&#45;&gt;Node8 -->
<g id="edge8_Node000005_Node000008" class="edge">
<title>Node5&#45;&gt;Node8</title>
<g id="a_edge8_Node000005_Node000008"><a xlink:title=" ">
<path fill="none" stroke="#63b8ff" d="M247.93,-167.59C255.94,-160.01 267.42,-149.13 277.03,-140.02"/>
<polygon fill="#63b8ff" stroke="#63b8ff" points="279.23,-142.76 284.09,-133.34 274.42,-137.68 279.23,-142.76"/>
</a>
</g>
</g>
<!-- Node5&#45;&gt;Node9 -->
<g id="edge9_Node000005_Node000009" class="edge">
<title>Node5&#45;&gt;Node9</title>
<g id="a_edge9_Node000005_Node000009"><a xlink:title=" ">
<path fill="none" stroke="#63b8ff" d="M215.88,-167.59C195.97,-159.13 166.45,-146.58 143.79,-136.94"/>
<polygon fill="#63b8ff" stroke="#63b8ff" points="145.26,-133.76 134.69,-133.07 142.52,-140.21 145.26,-133.76"/>
</a>
</g>
</g>
<!-- Node9&#45;&gt;Node2 -->
<g id="edge12_Node000009_Node000002" class="edge">
<title>Node9&#45;&gt;Node2</title>
<g id="a_edge12_Node000009_Node000002"><a xlink:title=" ">
<path fill="none" stroke="#63b8ff" d="M101.42,-111.59C93.77,-104.08 82.84,-93.35 73.62,-84.3"/>
<polygon fill="#63b8ff" stroke="#63b8ff" points="76.14,-81.87 66.55,-77.36 71.23,-86.86 76.14,-81.87"/>
</a>
</g>
</g>
<!-- Node9&#45;&gt;Node7 -->
<g id="edge11_Node000009_Node000007" class="edge">
<title>Node9&#45;&gt;Node7</title>
<g id="a_edge11_Node000009_Node000007"><a xlink:title=" ">
<path fill="none" stroke="#63b8ff" d="M133.12,-111.59C153.15,-103.08 182.92,-90.42 205.62,-80.77"/>
<polygon fill="#63b8ff" stroke="#63b8ff" points="206.91,-84.02 214.74,-76.89 204.17,-77.58 206.91,-84.02"/>
</a>
</g>
</g>
<!-- Node10 -->
<g id="Node000010" class="node">
<title>Node10</title>
<g id="a_Node000010"><a xlink:title=" ">
<polygon fill="#e0e0e0" stroke="#999999" points="175.62,-76 130.38,-76 130.38,-56 175.62,-56 175.62,-76"/>
<text text-anchor="middle" x="153" y="-62.5" font-family="Helvetica,sans-Serif" font-size="10.00">chrono</text>
</a>
</g>
</g>
<!-- Node9&#45;&gt;Node10 -->
<g id="edge10_Node000009_Node000010" class="edge">
<title>Node9&#45;&gt;Node10</title>
<g id="a_edge10_Node000009_Node000010"><a xlink:title=" ">
<path fill="none" stroke="#63b8ff" d="M118.32,-111.59C123.98,-104.32 131.99,-94.02 138.89,-85.15"/>
<polygon fill="#63b8ff" stroke="#63b8ff" points="141.46,-87.54 144.84,-77.49 135.94,-83.24 141.46,-87.54"/>
</a>
</g>
</g>
<!-- Node11&#45;&gt;Node7 -->
<g id="edge17_Node000011_Node000007" class="edge">
<title>Node11&#45;&gt;Node7</title>
<g id="a_edge17_Node000011_Node000007"><a xlink:title=" ">
<path fill="none" stroke="#63b8ff" d="M374.52,-167.9C367.39,-154.21 352.27,-128.18 333,-112 314.57,-96.52 289.93,-85.05 270.36,-77.56"/>
<polygon fill="#63b8ff" stroke="#63b8ff" points="271.81,-74.37 261.21,-74.23 269.41,-80.95 271.81,-74.37"/>
</a>
</g>
</g>
<!-- Node12 -->
<g id="Node000012" class="node">
<title>Node12</title>
<g id="a_Node000012"><a xlink:title=" ">
<polygon fill="#e0e0e0" stroke="#999999" points="463.62,-132 418.38,-132 418.38,-112 463.62,-112 463.62,-132"/>
<text text-anchor="middle" x="441" y="-118.5" font-family="Helvetica,sans-Serif" font-size="10.00">cstdint</text>
</a>
</g>
</g>
<!-- Node11&#45;&gt;Node12 -->
<g id="edge16_Node000011_Node000012" class="edge">
<title>Node11&#45;&gt;Node12</title>
<g id="a_edge16_Node000011_Node000012"><a xlink:title=" ">
<path fill="none" stroke="#63b8ff" d="M389.8,-167.59C398.6,-159.93 411.25,-148.91 421.77,-139.75"/>
<polygon fill="#63b8ff" stroke="#63b8ff" points="423.94,-142.5 429.18,-133.29 419.34,-137.22 423.94,-142.5"/>
</a>
</g>
</g>
<!-- Node13&#45;&gt;Node4 -->
<g id="edge19_Node000013_Node000004" class="edge">
<title>Node13&#45;&gt;Node4</title>
<g id="a_edge19_Node000013_Node000004"><a xlink:title=" ">
<path fill="none" stroke="#63b8ff" d="M500.24,-167.91C495.91,-154.68 486.61,-129.76 473,-112 445.55,-76.18 403.25,-44.59 376.62,-26.65"/>
<polygon fill="#63b8ff" stroke="#63b8ff" points="378.79,-23.89 368.51,-21.3 374.93,-29.73 378.79,-23.89"/>
</a>
</g>
</g>
<!-- Node14 -->
<g id="Node000014" class="node">
<title>Node14</title>
<g id="a_Node000014"><a xlink:title=" ">
<polygon fill="#e0e0e0" stroke="#999999" points="571.62,-132 520.38,-132 520.38,-112 571.62,-112 571.62,-132"/>
<text text-anchor="middle" x="546" y="-118.5" font-family="Helvetica,sans-Serif" font-size="10.00">sstream</text>
</a>
</g>
</g>
<!-- Node13&#45;&gt;Node14 -->
<g id="edge20_Node000013_Node000014" class="edge">
<title>Node13&#45;&gt;Node14</title>
<g id="a_edge20_Node000013_Node000014"><a xlink:title=" ">
<path fill="none" stroke="#63b8ff" d="M510.49,-167.59C516.29,-160.32 524.49,-150.02 531.55,-141.15"/>
<polygon fill="#63b8ff" stroke="#63b8ff" points="534.16,-143.49 537.65,-133.48 528.69,-139.12 534.16,-143.49"/>
</a>
</g>
</g>
<!-- Node15 -->
<g id="Node000015" class="node">
<title>Node15</title>
<g id="a_Node000015"><a xlink:title=" ">
<polygon fill="#e0e0e0" stroke="#999999" points="648.38,-132 589.62,-132 589.62,-112 648.38,-112 648.38,-132"/>
<text text-anchor="middle" x="619" y="-118.5" font-family="Helvetica,sans-Serif" font-size="10.00">stdexcept</text>
</a>
</g>
</g>
<!-- Node13&#45;&gt;Node15 -->
<g id="edge21_Node000013_Node000015" class="edge">
<title>Node13&#45;&gt;Node15</title>
<g id="a_edge21_Node000013_Node000015"><a xlink:title=" ">
<path fill="none" stroke="#63b8ff" d="M523.21,-167.59C541.23,-159.21 567.87,-146.8 588.48,-137.21"/>
<polygon fill="#63b8ff" stroke="#63b8ff" points="589.68,-140.51 597.26,-133.12 586.72,-134.17 589.68,-140.51"/>
</a>
</g>
</g>
</g>
</svg>
