<?xml version="1.0" encoding="UTF-8" standalone="no"?>
<!DOCTYPE svg PUBLIC "-//W3C//DTD SVG 1.1//EN"
 "http://www.w3.org/Graphics/SVG/1.1/DTD/svg11.dtd">
<!-- Generated by graphviz version 12.1.0 (20240811.2233)
 -->
<!-- Title: include/ADUL.hpp Pages: 1 -->
<svg width="682pt" height="252pt"
 viewBox="0.00 0.00 682.38 252.00" xmlns="http://www.w3.org/2000/svg" xmlns:xlink="http://www.w3.org/1999/xlink">
<g id="graph0" class="graph" transform="scale(1 1) rotate(0) translate(4 248)">
<title>include/ADUL.hpp</title>
<!-- Node1 -->
<g id="Node000001" class="node">
<title>Node1</title>
<g id="a_Node000001"><a xlink:title=" ">
<polygon fill="#999999" stroke="#666666" points="448.38,-244 352.88,-244 352.88,-224 448.38,-224 448.38,-244"/>
<text text-anchor="middle" x="400.62" y="-230.5" font-family="Helvetica,sans-Serif" font-size="10.00">include/ADUL.hpp</text>
</a>
</g>
</g>
<!-- Node2 -->
<g id="Node000002" class="node">
<title>Node2</title>
<g id="a_Node000002"><a xlink:href="exceptions_8hpp.html" target="_top" xlink:title=" ">
<polygon fill="white" stroke="#666666" points="236.62,-76 124.62,-76 124.62,-56 236.62,-56 236.62,-76"/>
<text text-anchor="middle" x="180.62" y="-62.5" font-family="Helvetica,sans-Serif" font-size="10.00">ADUL/exceptions.hpp</text>
</a>
</g>
</g>
<!-- Node1&#45;&gt;Node2 -->
<g id="edge1_Node000001_Node000002" class="edge">
<title>Node1&#45;&gt;Node2</title>
<g id="a_edge1_Node000001_Node000002"><a xlink:title=" ">
<path fill="none" stroke="#63b8ff" d="M379.19,-223.57C345.38,-207.98 278.78,-174.32 232.62,-132 217.35,-117.99 202.86,-99.28 193.08,-85.52"/>
<polygon fill="#63b8ff" stroke="#63b8ff" points="196.01,-83.61 187.44,-77.38 190.26,-87.6 196.01,-83.61"/>
</a>
</g>
</g>
<!-- Node5 -->
<g id="Node000005" class="node">
<title>Node5</title>
<g id="a_Node000005"><a xlink:title=" ">
<polygon fill="#e0e0e0" stroke="#999999" points="555.12,-188 464.12,-188 464.12,-168 555.12,-168 555.12,-188"/>
<text text-anchor="middle" x="509.62" y="-174.5" font-family="Helvetica,sans-Serif" font-size="10.00">ADUL/logger.hpp</text>
</a>
</g>
</g>
<!-- Node1&#45;&gt;Node5 -->
<g id="edge4_Node000001_Node000005" class="edge">
<title>Node1&#45;&gt;Node5</title>
<g id="a_edge4_Node000001_Node000005"><a xlink:title=" ">
<path fill="none" stroke="#63b8ff" d="M419.61,-223.59C436.39,-215.28 461.12,-203.03 480.41,-193.47"/>
<polygon fill="#63b8ff" stroke="#63b8ff" points="481.73,-196.73 489.13,-189.15 478.62,-190.45 481.73,-196.73"/>
</a>
</g>
</g>
<!-- Node6 -->
<g id="Node000006" class="node">
<title>Node6</title>
<g id="a_Node000006"><a xlink:href="time_8hpp.html" target="_top" xlink:title=" ">
<polygon fill="white" stroke="#666666" points="155.38,-132 71.88,-132 71.88,-112 155.38,-112 155.38,-132"/>
<text text-anchor="middle" x="113.62" y="-118.5" font-family="Helvetica,sans-Serif" font-size="10.00">ADUL/time.hpp</text>
</a>
</g>
</g>
<!-- Node1&#45;&gt;Node6 -->
<g id="edge5_Node000001_Node000006" class="edge">
<title>Node1&#45;&gt;Node6</title>
<g id="a_edge5_Node000001_Node000006"><a xlink:title=" ">
<path fill="none" stroke="#63b8ff" d="M352.62,-230.61C306.7,-226.64 236.63,-216.08 182.62,-188 160.59,-176.54 140.55,-156 127.82,-141.07"/>
<polygon fill="#63b8ff" stroke="#63b8ff" points="130.56,-138.9 121.51,-133.39 125.15,-143.34 130.56,-138.9"/>
</a>
</g>
</g>
<!-- Node9 -->
<g id="Node000009" class="node">
<title>Node9</title>
<g id="a_Node000009"><a xlink:href="small_utils_8hpp.html" target="_top" xlink:title=" ">
<polygon fill="white" stroke="#666666" points="656.75,-76 548.5,-76 548.5,-56 656.75,-56 656.75,-76"/>
<text text-anchor="middle" x="602.62" y="-62.5" font-family="Helvetica,sans-Serif" font-size="10.00">ADUL/smallUtils.hpp</text>
</a>
</g>
</g>
<!-- Node1&#45;&gt;Node9 -->
<g id="edge9_Node000001_Node000009" class="edge">
<title>Node1&#45;&gt;Node9</title>
<g id="a_edge9_Node000001_Node000009"><a xlink:title=" ">
<path fill="none" stroke="#63b8ff" d="M407.07,-223.93C416.72,-210.73 435.89,-185.85 455.62,-168 494.41,-132.92 546.01,-100.16 576.63,-81.93"/>
<polygon fill="#63b8ff" stroke="#63b8ff" points="578.01,-85.18 584.85,-77.09 574.46,-79.15 578.01,-85.18"/>
</a>
</g>
</g>
<!-- Node12 -->
<g id="Node000012" class="node">
<title>Node12</title>
<g id="a_Node000012"><a xlink:href="atm_8hpp.html" target="_top" xlink:title=" ">
<polygon fill="white" stroke="#666666" points="407.25,-188 326,-188 326,-168 407.25,-168 407.25,-188"/>
<text text-anchor="middle" x="366.62" y="-174.5" font-family="Helvetica,sans-Serif" font-size="10.00">ADUL/atm.hpp</text>
</a>
</g>
</g>
<!-- Node1&#45;&gt;Node12 -->
<g id="edge13_Node000001_Node000012" class="edge">
<title>Node1&#45;&gt;Node12</title>
<g id="a_edge13_Node000001_Node000012"><a xlink:title=" ">
<path fill="none" stroke="#63b8ff" d="M394.7,-223.59C390.27,-216.55 384.05,-206.67 378.59,-198"/>
<polygon fill="#63b8ff" stroke="#63b8ff" points="381.58,-196.18 373.29,-189.58 375.65,-199.91 381.58,-196.18"/>
</a>
</g>
</g>
<!-- Node18 -->
<g id="Node000018" class="node">
<title>Node18</title>
<g id="a_Node000018"><a xlink:title=" ">
<polygon fill="#e0e0e0" stroke="#999999" points="674.38,-188 572.88,-188 572.88,-168 674.38,-168 674.38,-188"/>
<text text-anchor="middle" x="623.62" y="-174.5" font-family="Helvetica,sans-Serif" font-size="10.00">extern/tinyxml2.hpp</text>
</a>
</g>
</g>
<!-- Node1&#45;&gt;Node18 -->
<g id="edge22_Node000001_Node000018" class="edge">
<title>Node1&#45;&gt;Node18</title>
<g id="a_edge22_Node000001_Node000018"><a xlink:title=" ">
<path fill="none" stroke="#63b8ff" d="M439.72,-223.53C476.95,-214.52 533.13,-200.91 573.6,-191.11"/>
<polygon fill="#63b8ff" stroke="#63b8ff" points="574.2,-194.57 583.1,-188.81 572.56,-187.77 574.2,-194.57"/>
</a>
</g>
</g>
<!-- Node3 -->
<g id="Node000003" class="node">
<title>Node3</title>
<g id="a_Node000003"><a xlink:title=" ">
<polygon fill="#e0e0e0" stroke="#999999" points="209.62,-20 151.62,-20 151.62,0 209.62,0 209.62,-20"/>
<text text-anchor="middle" x="180.62" y="-6.5" font-family="Helvetica,sans-Serif" font-size="10.00">exception</text>
</a>
</g>
</g>
<!-- Node2&#45;&gt;Node3 -->
<g id="edge2_Node000002_Node000003" class="edge">
<title>Node2&#45;&gt;Node3</title>
<g id="a_edge2_Node000002_Node000003"><a xlink:title=" ">
<path fill="none" stroke="#63b8ff" d="M180.62,-55.59C180.62,-49.01 180.62,-39.96 180.62,-31.73"/>
<polygon fill="#63b8ff" stroke="#63b8ff" points="184.13,-31.81 180.63,-21.81 177.13,-31.81 184.13,-31.81"/>
</a>
</g>
</g>
<!-- Node4 -->
<g id="Node000004" class="node">
<title>Node4</title>
<g id="a_Node000004"><a xlink:title=" ">
<polygon fill="#e0e0e0" stroke="#999999" points="412.62,-20 372.62,-20 372.62,0 412.62,0 412.62,-20"/>
<text text-anchor="middle" x="392.62" y="-6.5" font-family="Helvetica,sans-Serif" font-size="10.00">string</text>
</a>
</g>
</g>
<!-- Node2&#45;&gt;Node4 -->
<g id="edge3_Node000002_Node000004" class="edge">
<title>Node2&#45;&gt;Node4</title>
<g id="a_edge3_Node000002_Node000004"><a xlink:title=" ">
<path fill="none" stroke="#63b8ff" d="M217.55,-55.59C258.19,-45.24 322.82,-28.78 361.15,-19.02"/>
<polygon fill="#63b8ff" stroke="#63b8ff" points="361.85,-22.45 370.67,-16.59 360.12,-15.67 361.85,-22.45"/>
</a>
</g>
</g>
<!-- Node6&#45;&gt;Node2 -->
<g id="edge8_Node000006_Node000002" class="edge">
<title>Node6&#45;&gt;Node2</title>
<g id="a_edge8_Node000006_Node000002"><a xlink:title=" ">
<path fill="none" stroke="#63b8ff" d="M125.3,-111.59C134.9,-103.85 148.75,-92.69 160.19,-83.47"/>
<polygon fill="#63b8ff" stroke="#63b8ff" points="162.32,-86.25 167.91,-77.25 157.93,-80.8 162.32,-86.25"/>
</a>
</g>
</g>
<!-- Node7 -->
<g id="Node000007" class="node">
<title>Node7</title>
<g id="a_Node000007"><a xlink:title=" ">
<polygon fill="#e0e0e0" stroke="#999999" points="45.25,-76 0,-76 0,-56 45.25,-56 45.25,-76"/>
<text text-anchor="middle" x="22.62" y="-62.5" font-family="Helvetica,sans-Serif" font-size="10.00">chrono</text>
</a>
</g>
</g>
<!-- Node6&#45;&gt;Node7 -->
<g id="edge6_Node000006_Node000007" class="edge">
<title>Node6&#45;&gt;Node7</title>
<g id="a_edge6_Node000006_Node000007"><a xlink:title=" ">
<path fill="none" stroke="#63b8ff" d="M97.77,-111.59C84.16,-103.51 64.26,-91.71 48.36,-82.27"/>
<polygon fill="#63b8ff" stroke="#63b8ff" points="50.29,-79.35 39.9,-77.25 46.72,-85.37 50.29,-79.35"/>
</a>
</g>
</g>
<!-- Node8 -->
<g id="Node000008" class="node">
<title>Node8</title>
<g id="a_Node000008"><a xlink:title=" ">
<polygon fill="#e0e0e0" stroke="#999999" points="106.12,-76 63.12,-76 63.12,-56 106.12,-56 106.12,-76"/>
<text text-anchor="middle" x="84.62" y="-62.5" font-family="Helvetica,sans-Serif" font-size="10.00">vector</text>
</a>
</g>
</g>
<!-- Node6&#45;&gt;Node8 -->
<g id="edge7_Node000006_Node000008" class="edge">
<title>Node6&#45;&gt;Node8</title>
<g id="a_edge7_Node000006_Node000008"><a xlink:title=" ">
<path fill="none" stroke="#63b8ff" d="M108.57,-111.59C104.83,-104.63 99.6,-94.89 94.98,-86.29"/>
<polygon fill="#63b8ff" stroke="#63b8ff" points="98.15,-84.79 90.33,-77.63 91.98,-88.1 98.15,-84.79"/>
</a>
</g>
</g>
<!-- Node9&#45;&gt;Node4 -->
<g id="edge10_Node000009_Node000004" class="edge">
<title>Node9&#45;&gt;Node4</title>
<g id="a_edge10_Node000009_Node000004"><a xlink:title=" ">
<path fill="none" stroke="#63b8ff" d="M566.05,-55.59C525.79,-45.24 461.77,-28.78 423.81,-19.02"/>
<polygon fill="#63b8ff" stroke="#63b8ff" points="424.94,-15.7 414.38,-16.59 423.19,-22.47 424.94,-15.7"/>
</a>
</g>
</g>
<!-- Node10 -->
<g id="Node000010" class="node">
<title>Node10</title>
<g id="a_Node000010"><a xlink:title=" ">
<polygon fill="#e0e0e0" stroke="#999999" points="591.25,-20 540,-20 540,0 591.25,0 591.25,-20"/>
<text text-anchor="middle" x="565.62" y="-6.5" font-family="Helvetica,sans-Serif" font-size="10.00">sstream</text>
</a>
</g>
</g>
<!-- Node9&#45;&gt;Node10 -->
<g id="edge11_Node000009_Node000010" class="edge">
<title>Node9&#45;&gt;Node10</title>
<g id="a_edge11_Node000009_Node000010"><a xlink:title=" ">
<path fill="none" stroke="#63b8ff" d="M596.18,-55.59C591.3,-48.47 584.43,-38.45 578.45,-29.72"/>
<polygon fill="#63b8ff" stroke="#63b8ff" points="581.39,-27.82 572.85,-21.55 575.62,-31.77 581.39,-27.82"/>
</a>
</g>
</g>
<!-- Node11 -->
<g id="Node000011" class="node">
<title>Node11</title>
<g id="a_Node000011"><a xlink:title=" ">
<polygon fill="#e0e0e0" stroke="#999999" points="668,-20 609.25,-20 609.25,0 668,0 668,-20"/>
<text text-anchor="middle" x="638.62" y="-6.5" font-family="Helvetica,sans-Serif" font-size="10.00">stdexcept</text>
</a>
</g>
</g>
<!-- Node9&#45;&gt;Node11 -->
<g id="edge12_Node000009_Node000011" class="edge">
<title>Node9&#45;&gt;Node11</title>
<g id="a_edge12_Node000009_Node000011"><a xlink:title=" ">
<path fill="none" stroke="#63b8ff" d="M608.9,-55.59C613.64,-48.47 620.32,-38.45 626.15,-29.72"/>
<polygon fill="#63b8ff" stroke="#63b8ff" points="628.95,-31.82 631.59,-21.56 623.13,-27.94 628.95,-31.82"/>
</a>
</g>
</g>
<!-- Node13 -->
<g id="Node000013" class="node">
<title>Node13</title>
<g id="a_Node000013"><a xlink:href="bit_vector_8hpp.html" target="_top" xlink:title=" ">
<polygon fill="white" stroke="#666666" points="314.12,-132 241.12,-132 241.12,-112 314.12,-112 314.12,-132"/>
<text text-anchor="middle" x="277.62" y="-118.5" font-family="Helvetica,sans-Serif" font-size="10.00">bitVector.hpp</text>
</a>
</g>
</g>
<!-- Node12&#45;&gt;Node13 -->
<g id="edge14_Node000012_Node000013" class="edge">
<title>Node12&#45;&gt;Node13</title>
<g id="a_edge14_Node000012_Node000013"><a xlink:title=" ">
<path fill="none" stroke="#63b8ff" d="M351.12,-167.59C337.8,-159.51 318.35,-147.71 302.8,-138.27"/>
<polygon fill="#63b8ff" stroke="#63b8ff" points="304.91,-135.46 294.54,-133.26 301.28,-141.44 304.91,-135.46"/>
</a>
</g>
</g>
<!-- Node15 -->
<g id="Node000015" class="node">
<title>Node15</title>
<g id="a_Node000015"><a xlink:href="_x_m_l_map_8hpp.html" target="_top" xlink:title=" ">
<polygon fill="white" stroke="#666666" points="407.5,-132 333.75,-132 333.75,-112 407.5,-112 407.5,-132"/>
<text text-anchor="middle" x="370.62" y="-118.5" font-family="Helvetica,sans-Serif" font-size="10.00">XMLMap.hpp</text>
</a>
</g>
</g>
<!-- Node12&#45;&gt;Node15 -->
<g id="edge17_Node000012_Node000015" class="edge">
<title>Node12&#45;&gt;Node15</title>
<g id="a_edge17_Node000012_Node000015"><a xlink:title=" ">
<path fill="none" stroke="#63b8ff" d="M367.32,-167.59C367.81,-161.01 368.48,-151.96 369.09,-143.73"/>
<polygon fill="#63b8ff" stroke="#63b8ff" points="372.58,-144.04 369.82,-133.81 365.6,-143.52 372.58,-144.04"/>
</a>
</g>
</g>
<!-- Node13&#45;&gt;Node8 -->
<g id="edge16_Node000013_Node000008" class="edge">
<title>Node13&#45;&gt;Node8</title>
<g id="a_edge16_Node000013_Node000008"><a xlink:title=" ">
<path fill="none" stroke="#63b8ff" d="M243.15,-111.55C212.57,-103.14 166.42,-90.38 117.18,-76.42"/>
<polygon fill="#63b8ff" stroke="#63b8ff" points="118.33,-73.1 107.75,-73.74 116.42,-79.84 118.33,-73.1"/>
</a>
</g>
</g>
<!-- Node14 -->
<g id="Node000014" class="node">
<title>Node14</title>
<g id="a_Node000014"><a xlink:title=" ">
<polygon fill="#e0e0e0" stroke="#999999" points="300.25,-76 255,-76 255,-56 300.25,-56 300.25,-76"/>
<text text-anchor="middle" x="277.62" y="-62.5" font-family="Helvetica,sans-Serif" font-size="10.00">cstdint</text>
</a>
</g>
</g>
<!-- Node13&#45;&gt;Node14 -->
<g id="edge15_Node000013_Node000014" class="edge">
<title>Node13&#45;&gt;Node14</title>
<g id="a_edge15_Node000013_Node000014"><a xlink:title=" ">
<path fill="none" stroke="#63b8ff" d="M277.62,-111.59C277.62,-105.01 277.62,-95.96 277.62,-87.73"/>
<polygon fill="#63b8ff" stroke="#63b8ff" points="281.13,-87.81 277.63,-77.81 274.13,-87.81 281.13,-87.81"/>
</a>
</g>
</g>
<!-- Node15&#45;&gt;Node2 -->
<g id="edge19_Node000015_Node000002" class="edge">
<title>Node15&#45;&gt;Node2</title>
<g id="a_edge19_Node000015_Node000002"><a xlink:title=" ">
<path fill="none" stroke="#63b8ff" d="M337.53,-111.59C306.25,-102.71 259.12,-89.31 224.68,-79.52"/>
<polygon fill="#63b8ff" stroke="#63b8ff" points="226.01,-76.26 215.43,-76.89 224.1,-82.99 226.01,-76.26"/>
</a>
</g>
</g>
<!-- Node15&#45;&gt;Node9 -->
<g id="edge20_Node000015_Node000009" class="edge">
<title>Node15&#45;&gt;Node9</title>
<g id="a_edge20_Node000015_Node000009"><a xlink:title=" ">
<path fill="none" stroke="#63b8ff" d="M407.9,-112.32C446.58,-103.32 507.38,-89.17 550.75,-79.07"/>
<polygon fill="#63b8ff" stroke="#63b8ff" points="551.51,-82.49 560.46,-76.82 549.92,-75.67 551.51,-82.49"/>
</a>
</g>
</g>
<!-- Node16 -->
<g id="Node000016" class="node">
<title>Node16</title>
<g id="a_Node000016"><a xlink:title=" ">
<polygon fill="#e0e0e0" stroke="#999999" points="428.88,-76 318.38,-76 318.38,-56 428.88,-56 428.88,-76"/>
<text text-anchor="middle" x="373.62" y="-62.5" font-family="Helvetica,sans-Serif" font-size="10.00">../extern/tinyxml2.hpp</text>
</a>
</g>
</g>
<!-- Node15&#45;&gt;Node16 -->
<g id="edge18_Node000015_Node000016" class="edge">
<title>Node15&#45;&gt;Node16</title>
<g id="a_edge18_Node000015_Node000016"><a xlink:title=" ">
<path fill="none" stroke="#63b8ff" d="M371.15,-111.59C371.51,-105.01 372.02,-95.96 372.47,-87.73"/>
<polygon fill="#63b8ff" stroke="#63b8ff" points="375.96,-87.99 373.02,-77.81 368.98,-87.6 375.96,-87.99"/>
</a>
</g>
</g>
<!-- Node17 -->
<g id="Node000017" class="node">
<title>Node17</title>
<g id="a_Node000017"><a xlink:title=" ">
<polygon fill="#e0e0e0" stroke="#999999" points="530,-76 447.25,-76 447.25,-56 530,-56 530,-76"/>
<text text-anchor="middle" x="488.62" y="-62.5" font-family="Helvetica,sans-Serif" font-size="10.00">unordered_map</text>
</a>
</g>
</g>
<!-- Node15&#45;&gt;Node17 -->
<g id="edge21_Node000015_Node000017" class="edge">
<title>Node15&#45;&gt;Node17</title>
<g id="a_edge21_Node000015_Node000017"><a xlink:title=" ">
<path fill="none" stroke="#63b8ff" d="M391.18,-111.59C409.51,-103.21 436.61,-90.8 457.58,-81.21"/>
<polygon fill="#63b8ff" stroke="#63b8ff" points="458.9,-84.45 466.53,-77.11 455.98,-78.09 458.9,-84.45"/>
</a>
</g>
</g>
</g>
</svg>
