<?xml version="1.0" encoding="UTF-8" standalone="no"?>
<!DOCTYPE svg PUBLIC "-//W3C//DTD SVG 1.1//EN"
 "http://www.w3.org/Graphics/SVG/1.1/DTD/svg11.dtd">
<!-- Generated by graphviz version 2.49.3 (0)
 -->
<!-- Title: include/ADUL.hpp Pages: 1 -->
<svg width="410pt" height="247pt"
 viewBox="0.00 0.00 409.50 247.00" xmlns="http://www.w3.org/2000/svg" xmlns:xlink="http://www.w3.org/1999/xlink">
<g id="graph0" class="graph" transform="scale(1 1) rotate(0) translate(4 243)">
<title>include/ADUL.hpp</title>
<!-- Node1 -->
<g id="Node000001" class="node">
<title>Node1</title>
<g id="a_Node000001"><a xlink:title=" ">
<polygon fill="#999999" stroke="#666666" points="224,-239 128,-239 128,-220 224,-220 224,-239"/>
<text text-anchor="middle" x="176" y="-227" font-family="Helvetica,sans-Serif" font-size="10.00">include/ADUL.hpp</text>
</a>
</g>
</g>
<!-- Node2 -->
<g id="Node000002" class="node">
<title>Node2</title>
<g id="a_Node000002"><a xlink:href="exceptions_8hpp.html" target="_top" xlink:title=" ">
<polygon fill="white" stroke="#666666" points="112,-74 0,-74 0,-55 112,-55 112,-74"/>
<text text-anchor="middle" x="56" y="-62" font-family="Helvetica,sans-Serif" font-size="10.00">ADUL/exceptions.hpp</text>
</a>
</g>
</g>
<!-- Node1&#45;&gt;Node2 -->
<g id="edge1_Node000001_Node000002" class="edge">
<title>Node1&#45;&gt;Node2</title>
<g id="a_edge1_Node000001_Node000002"><a xlink:title=" ">
<path fill="none" stroke="#63b8ff" d="M166.91,-219.83C149.92,-203.3 112.83,-165.66 88,-129 78.17,-114.48 69.39,-96.53 63.53,-83.42"/>
<polygon fill="#63b8ff" stroke="#63b8ff" points="66.68,-81.88 59.49,-74.1 60.26,-84.67 66.68,-81.88"/>
</a>
</g>
</g>
<!-- Node5 -->
<g id="Node000005" class="node">
<title>Node5</title>
<g id="a_Node000005"><a xlink:href="logger_8hpp.html" target="_top" xlink:title=" ">
<polygon fill="white" stroke="#666666" points="259,-184 167,-184 167,-165 259,-165 259,-184"/>
<text text-anchor="middle" x="213" y="-172" font-family="Helvetica,sans-Serif" font-size="10.00">ADUL/logger.hpp</text>
</a>
</g>
</g>
<!-- Node1&#45;&gt;Node5 -->
<g id="edge4_Node000001_Node000005" class="edge">
<title>Node1&#45;&gt;Node5</title>
<g id="a_edge4_Node000001_Node000005"><a xlink:title=" ">
<path fill="none" stroke="#63b8ff" d="M182.11,-219.75C187.28,-212.34 194.85,-201.5 201.19,-192.41"/>
<polygon fill="#63b8ff" stroke="#63b8ff" points="204.15,-194.29 207,-184.09 198.41,-190.29 204.15,-194.29"/>
</a>
</g>
</g>
<!-- Node9 -->
<g id="Node000009" class="node">
<title>Node9</title>
<g id="a_Node000009"><a xlink:href="time_8hpp.html" target="_top" xlink:title=" ">
<polygon fill="white" stroke="#666666" points="176,-129 122,-129 122,-110 176,-110 176,-129"/>
<text text-anchor="middle" x="149" y="-117" font-family="Helvetica,sans-Serif" font-size="10.00">time.hpp</text>
</a>
</g>
</g>
<!-- Node1&#45;&gt;Node9 -->
<g id="edge14_Node000001_Node000009" class="edge">
<title>Node1&#45;&gt;Node9</title>
<g id="a_edge14_Node000001_Node000009"><a xlink:title=" ">
<path fill="none" stroke="#63b8ff" d="M171.76,-219.85C167.63,-211.04 161.46,-196.88 158,-184 154.06,-169.35 151.77,-152.3 150.48,-139.56"/>
<polygon fill="#63b8ff" stroke="#63b8ff" points="153.94,-138.91 149.56,-129.26 146.96,-139.53 153.94,-138.91"/>
</a>
</g>
</g>
<!-- Node11 -->
<g id="Node000011" class="node">
<title>Node11</title>
<g id="a_Node000011"><a xlink:title=" ">
<polygon fill="#e0e0e0" stroke="#999999" points="379,-184 277,-184 277,-165 379,-165 379,-184"/>
<text text-anchor="middle" x="328" y="-172" font-family="Helvetica,sans-Serif" font-size="10.00">extern/tinyxml2.hpp</text>
</a>
</g>
</g>
<!-- Node1&#45;&gt;Node11 -->
<g id="edge15_Node000001_Node000011" class="edge">
<title>Node1&#45;&gt;Node11</title>
<g id="a_edge15_Node000001_Node000011"><a xlink:title=" ">
<path fill="none" stroke="#63b8ff" d="M200.42,-219.98C225.72,-211.16 265.45,-197.31 293.86,-187.41"/>
<polygon fill="#63b8ff" stroke="#63b8ff" points="295.1,-190.68 303.39,-184.08 292.79,-184.07 295.1,-190.68"/>
</a>
</g>
</g>
<!-- Node3 -->
<g id="Node000003" class="node">
<title>Node3</title>
<g id="a_Node000003"><a xlink:title=" ">
<polygon fill="#e0e0e0" stroke="#999999" points="85,-19 27,-19 27,0 85,0 85,-19"/>
<text text-anchor="middle" x="56" y="-7" font-family="Helvetica,sans-Serif" font-size="10.00">exception</text>
</a>
</g>
</g>
<!-- Node2&#45;&gt;Node3 -->
<g id="edge2_Node000002_Node000003" class="edge">
<title>Node2&#45;&gt;Node3</title>
<g id="a_edge2_Node000002_Node000003"><a xlink:title=" ">
<path fill="none" stroke="#63b8ff" d="M56,-54.75C56,-47.8 56,-37.85 56,-29.13"/>
<polygon fill="#63b8ff" stroke="#63b8ff" points="59.5,-29.09 56,-19.09 52.5,-29.09 59.5,-29.09"/>
</a>
</g>
</g>
<!-- Node4 -->
<g id="Node000004" class="node">
<title>Node4</title>
<g id="a_Node000004"><a xlink:title=" ">
<polygon fill="#e0e0e0" stroke="#999999" points="239.5,-19 198.5,-19 198.5,0 239.5,0 239.5,-19"/>
<text text-anchor="middle" x="219" y="-7" font-family="Helvetica,sans-Serif" font-size="10.00">string</text>
</a>
</g>
</g>
<!-- Node2&#45;&gt;Node4 -->
<g id="edge3_Node000002_Node000004" class="edge">
<title>Node2&#45;&gt;Node4</title>
<g id="a_edge3_Node000002_Node000004"><a xlink:title=" ">
<path fill="none" stroke="#63b8ff" d="M82.19,-54.98C111.13,-45.57 157.7,-30.43 188.33,-20.47"/>
<polygon fill="#63b8ff" stroke="#63b8ff" points="189.63,-23.73 198.06,-17.31 187.47,-17.07 189.63,-23.73"/>
</a>
</g>
</g>
<!-- Node5&#45;&gt;Node2 -->
<g id="edge13_Node000005_Node000002" class="edge">
<title>Node5&#45;&gt;Node2</title>
<g id="a_edge13_Node000005_Node000002"><a xlink:title=" ">
<path fill="none" stroke="#63b8ff" d="M185.9,-164.95C164.8,-157.5 135.43,-145.32 113,-129 95.12,-115.99 78.7,-96.56 68.13,-82.62"/>
<polygon fill="#63b8ff" stroke="#63b8ff" points="70.81,-80.36 62.07,-74.37 65.17,-84.5 70.81,-80.36"/>
</a>
</g>
</g>
<!-- Node5&#45;&gt;Node4 -->
<g id="edge5_Node000005_Node000004" class="edge">
<title>Node5&#45;&gt;Node4</title>
<g id="a_edge5_Node000005_Node000004"><a xlink:title=" ">
<path fill="none" stroke="#63b8ff" d="M245.21,-164.92C263.25,-158.29 284.23,-147.09 295,-129 317.75,-90.77 269.72,-46.99 240.07,-24.89"/>
<polygon fill="#63b8ff" stroke="#63b8ff" points="242.07,-22.01 231.91,-19 237.97,-27.69 242.07,-22.01"/>
</a>
</g>
</g>
<!-- Node6 -->
<g id="Node000006" class="node">
<title>Node6</title>
<g id="a_Node000006"><a xlink:title=" ">
<polygon fill="#e0e0e0" stroke="#999999" points="286,-129 232,-129 232,-110 286,-110 286,-129"/>
<text text-anchor="middle" x="259" y="-117" font-family="Helvetica,sans-Serif" font-size="10.00">iostream</text>
</a>
</g>
</g>
<!-- Node5&#45;&gt;Node6 -->
<g id="edge6_Node000005_Node000006" class="edge">
<title>Node5&#45;&gt;Node6</title>
<g id="a_edge6_Node000005_Node000006"><a xlink:title=" ">
<path fill="none" stroke="#63b8ff" d="M220.6,-164.75C227.16,-157.18 236.82,-146.05 244.81,-136.84"/>
<polygon fill="#63b8ff" stroke="#63b8ff" points="247.63,-138.94 251.55,-129.09 242.35,-134.35 247.63,-138.94"/>
</a>
</g>
</g>
<!-- Node7 -->
<g id="Node000007" class="node">
<title>Node7</title>
<g id="a_Node000007"><a xlink:title=" ">
<polygon fill="#e0e0e0" stroke="#999999" points="237.5,-74 194.5,-74 194.5,-55 237.5,-55 237.5,-74"/>
<text text-anchor="middle" x="216" y="-62" font-family="Helvetica,sans-Serif" font-size="10.00">vector</text>
</a>
</g>
</g>
<!-- Node5&#45;&gt;Node7 -->
<g id="edge7_Node000005_Node000007" class="edge">
<title>Node5&#45;&gt;Node7</title>
<g id="a_edge7_Node000005_Node000007"><a xlink:title=" ">
<path fill="none" stroke="#63b8ff" d="M213.25,-164.66C213.73,-147.17 214.82,-107.8 215.48,-84.27"/>
<polygon fill="#63b8ff" stroke="#63b8ff" points="218.98,-84.25 215.76,-74.16 211.98,-84.06 218.98,-84.25"/>
</a>
</g>
</g>
<!-- Node8 -->
<g id="Node000008" class="node">
<title>Node8</title>
<g id="a_Node000008"><a xlink:title=" ">
<polygon fill="#e0e0e0" stroke="#999999" points="401.5,-129 342.5,-129 342.5,-110 401.5,-110 401.5,-129"/>
<text text-anchor="middle" x="372" y="-117" font-family="Helvetica,sans-Serif" font-size="10.00">functional</text>
</a>
</g>
</g>
<!-- Node5&#45;&gt;Node8 -->
<g id="edge8_Node000005_Node000008" class="edge">
<title>Node5&#45;&gt;Node8</title>
<g id="a_edge8_Node000005_Node000008"><a xlink:title=" ">
<path fill="none" stroke="#63b8ff" d="M238.55,-164.98C265.12,-156.13 306.94,-142.19 336.67,-132.28"/>
<polygon fill="#63b8ff" stroke="#63b8ff" points="337.87,-135.56 346.25,-129.08 335.66,-128.92 337.87,-135.56"/>
</a>
</g>
</g>
<!-- Node5&#45;&gt;Node9 -->
<g id="edge9_Node000005_Node000009" class="edge">
<title>Node5&#45;&gt;Node9</title>
<g id="a_edge9_Node000005_Node000009"><a xlink:title=" ">
<path fill="none" stroke="#63b8ff" d="M202.72,-164.98C193.16,-157.07 178.72,-145.11 167.22,-135.58"/>
<polygon fill="#63b8ff" stroke="#63b8ff" points="169.4,-132.85 159.47,-129.17 164.94,-138.24 169.4,-132.85"/>
</a>
</g>
</g>
<!-- Node9&#45;&gt;Node2 -->
<g id="edge12_Node000009_Node000002" class="edge">
<title>Node9&#45;&gt;Node2</title>
<g id="a_edge12_Node000009_Node000002"><a xlink:title=" ">
<path fill="none" stroke="#63b8ff" d="M134.06,-109.98C119.5,-101.69 97.13,-88.94 80.07,-79.22"/>
<polygon fill="#63b8ff" stroke="#63b8ff" points="81.64,-76.08 71.21,-74.17 78.17,-82.16 81.64,-76.08"/>
</a>
</g>
</g>
<!-- Node9&#45;&gt;Node7 -->
<g id="edge11_Node000009_Node000007" class="edge">
<title>Node9&#45;&gt;Node7</title>
<g id="a_edge11_Node000009_Node000007"><a xlink:title=" ">
<path fill="none" stroke="#63b8ff" d="M159.76,-109.98C169.77,-102.07 184.89,-90.11 196.93,-80.58"/>
<polygon fill="#63b8ff" stroke="#63b8ff" points="199.37,-83.12 205.04,-74.17 195.03,-77.63 199.37,-83.12"/>
</a>
</g>
</g>
<!-- Node10 -->
<g id="Node000010" class="node">
<title>Node10</title>
<g id="a_Node000010"><a xlink:title=" ">
<polygon fill="#e0e0e0" stroke="#999999" points="176,-74 130,-74 130,-55 176,-55 176,-74"/>
<text text-anchor="middle" x="153" y="-62" font-family="Helvetica,sans-Serif" font-size="10.00">chrono</text>
</a>
</g>
</g>
<!-- Node9&#45;&gt;Node10 -->
<g id="edge10_Node000009_Node000010" class="edge">
<title>Node9&#45;&gt;Node10</title>
<g id="a_edge10_Node000009_Node000010"><a xlink:title=" ">
<path fill="none" stroke="#63b8ff" d="M149.66,-109.75C150.18,-102.8 150.94,-92.85 151.59,-84.13"/>
<polygon fill="#63b8ff" stroke="#63b8ff" points="155.09,-84.32 152.35,-74.09 148.11,-83.8 155.09,-84.32"/>
</a>
</g>
</g>
</g>
</svg>
