<?xml version="1.0" encoding="UTF-8" standalone="no"?>
<!DOCTYPE svg PUBLIC "-//W3C//DTD SVG 1.1//EN"
 "http://www.w3.org/Graphics/SVG/1.1/DTD/svg11.dtd">
<!-- Generated by graphviz version 2.49.3 (0)
 -->
<!-- Title: include/ADUL.hpp Pages: 1 -->
<svg width="584pt" height="247pt"
 viewBox="0.00 0.00 584.00 247.00" xmlns="http://www.w3.org/2000/svg" xmlns:xlink="http://www.w3.org/1999/xlink">
<g id="graph0" class="graph" transform="scale(1 1) rotate(0) translate(4 243)">
<title>include/ADUL.hpp</title>
<!-- Node1 -->
<g id="Node000001" class="node">
<title>Node1</title>
<g id="a_Node000001"><a xlink:title=" ">
<polygon fill="#999999" stroke="#666666" points="300,-239 204,-239 204,-220 300,-220 300,-239"/>
<text text-anchor="middle" x="252" y="-227" font-family="Helvetica,sans-Serif" font-size="10.00">include/ADUL.hpp</text>
</a>
</g>
</g>
<!-- Node2 -->
<g id="Node000002" class="node">
<title>Node2</title>
<g id="a_Node000002"><a xlink:href="exceptions_8hpp.html" target="_top" xlink:title=" ">
<polygon fill="white" stroke="#666666" points="112,-74 0,-74 0,-55 112,-55 112,-74"/>
<text text-anchor="middle" x="56" y="-62" font-family="Helvetica,sans-Serif" font-size="10.00">ADUL/exceptions.hpp</text>
</a>
</g>
</g>
<!-- Node1&#45;&gt;Node2 -->
<g id="edge1_Node000001_Node000002" class="edge">
<title>Node1&#45;&gt;Node2</title>
<g id="a_edge1_Node000001_Node000002"><a xlink:title=" ">
<path fill="none" stroke="#63b8ff" d="M229.95,-219.89C195.72,-205.58 129.41,-173.94 88,-129 75.99,-115.96 67.38,-97.57 62.14,-83.93"/>
<polygon fill="#63b8ff" stroke="#63b8ff" points="65.33,-82.44 58.66,-74.21 58.74,-84.8 65.33,-82.44"/>
</a>
</g>
</g>
<!-- Node5 -->
<g id="Node000005" class="node">
<title>Node5</title>
<g id="a_Node000005"><a xlink:href="logger_8hpp.html" target="_top" xlink:title=" ">
<polygon fill="white" stroke="#666666" points="298,-184 206,-184 206,-165 298,-165 298,-184"/>
<text text-anchor="middle" x="252" y="-172" font-family="Helvetica,sans-Serif" font-size="10.00">ADUL/logger.hpp</text>
</a>
</g>
</g>
<!-- Node1&#45;&gt;Node5 -->
<g id="edge4_Node000001_Node000005" class="edge">
<title>Node1&#45;&gt;Node5</title>
<g id="a_edge4_Node000001_Node000005"><a xlink:title=" ">
<path fill="none" stroke="#63b8ff" d="M252,-219.75C252,-212.8 252,-202.85 252,-194.13"/>
<polygon fill="#63b8ff" stroke="#63b8ff" points="255.5,-194.09 252,-184.09 248.5,-194.09 255.5,-194.09"/>
</a>
</g>
</g>
<!-- Node9 -->
<g id="Node000009" class="node">
<title>Node9</title>
<g id="a_Node000009"><a xlink:href="time_8hpp.html" target="_top" xlink:title=" ">
<polygon fill="white" stroke="#666666" points="176,-129 122,-129 122,-110 176,-110 176,-129"/>
<text text-anchor="middle" x="149" y="-117" font-family="Helvetica,sans-Serif" font-size="10.00">time.hpp</text>
</a>
</g>
</g>
<!-- Node1&#45;&gt;Node9 -->
<g id="edge14_Node000001_Node000009" class="edge">
<title>Node1&#45;&gt;Node9</title>
<g id="a_edge14_Node000001_Node000009"><a xlink:title=" ">
<path fill="none" stroke="#63b8ff" d="M239.48,-219.74C227.83,-211.28 210.32,-197.77 197,-184 183.08,-169.61 169.55,-151.18 160.42,-137.88"/>
<polygon fill="#63b8ff" stroke="#63b8ff" points="163.09,-135.59 154.61,-129.24 157.28,-139.49 163.09,-135.59"/>
</a>
</g>
</g>
<!-- Node11 -->
<g id="Node000011" class="node">
<title>Node11</title>
<g id="a_Node000011"><a xlink:href="bit_vector_8hpp.html" target="_top" xlink:title=" ">
<polygon fill="white" stroke="#666666" points="456,-184 352,-184 352,-165 456,-165 456,-184"/>
<text text-anchor="middle" x="404" y="-172" font-family="Helvetica,sans-Serif" font-size="10.00">ADUL/bitVector.hpp</text>
</a>
</g>
</g>
<!-- Node1&#45;&gt;Node11 -->
<g id="edge15_Node000001_Node000011" class="edge">
<title>Node1&#45;&gt;Node11</title>
<g id="a_edge15_Node000001_Node000011"><a xlink:title=" ">
<path fill="none" stroke="#63b8ff" d="M276.42,-219.98C301.72,-211.16 341.45,-197.31 369.86,-187.41"/>
<polygon fill="#63b8ff" stroke="#63b8ff" points="371.1,-190.68 379.39,-184.08 368.79,-184.07 371.1,-190.68"/>
</a>
</g>
</g>
<!-- Node13 -->
<g id="Node000013" class="node">
<title>Node13</title>
<g id="a_Node000013"><a xlink:title=" ">
<polygon fill="#e0e0e0" stroke="#999999" points="576,-184 474,-184 474,-165 576,-165 576,-184"/>
<text text-anchor="middle" x="525" y="-172" font-family="Helvetica,sans-Serif" font-size="10.00">extern/tinyxml2.hpp</text>
</a>
</g>
</g>
<!-- Node1&#45;&gt;Node13 -->
<g id="edge18_Node000001_Node000013" class="edge">
<title>Node1&#45;&gt;Node13</title>
<g id="a_edge18_Node000001_Node000013"><a xlink:title=" ">
<path fill="none" stroke="#63b8ff" d="M295.86,-219.98C343.48,-210.74 419.58,-195.97 470.88,-186.01"/>
<polygon fill="#63b8ff" stroke="#63b8ff" points="471.64,-189.42 480.79,-184.08 470.31,-182.55 471.64,-189.42"/>
</a>
</g>
</g>
<!-- Node3 -->
<g id="Node000003" class="node">
<title>Node3</title>
<g id="a_Node000003"><a xlink:title=" ">
<polygon fill="#e0e0e0" stroke="#999999" points="85,-19 27,-19 27,0 85,0 85,-19"/>
<text text-anchor="middle" x="56" y="-7" font-family="Helvetica,sans-Serif" font-size="10.00">exception</text>
</a>
</g>
</g>
<!-- Node2&#45;&gt;Node3 -->
<g id="edge2_Node000002_Node000003" class="edge">
<title>Node2&#45;&gt;Node3</title>
<g id="a_edge2_Node000002_Node000003"><a xlink:title=" ">
<path fill="none" stroke="#63b8ff" d="M56,-54.75C56,-47.8 56,-37.85 56,-29.13"/>
<polygon fill="#63b8ff" stroke="#63b8ff" points="59.5,-29.09 56,-19.09 52.5,-29.09 59.5,-29.09"/>
</a>
</g>
</g>
<!-- Node4 -->
<g id="Node000004" class="node">
<title>Node4</title>
<g id="a_Node000004"><a xlink:title=" ">
<polygon fill="#e0e0e0" stroke="#999999" points="184.5,-19 143.5,-19 143.5,0 184.5,0 184.5,-19"/>
<text text-anchor="middle" x="164" y="-7" font-family="Helvetica,sans-Serif" font-size="10.00">string</text>
</a>
</g>
</g>
<!-- Node2&#45;&gt;Node4 -->
<g id="edge3_Node000002_Node000004" class="edge">
<title>Node2&#45;&gt;Node4</title>
<g id="a_edge3_Node000002_Node000004"><a xlink:title=" ">
<path fill="none" stroke="#63b8ff" d="M73.35,-54.98C90.57,-46.54 117.2,-33.47 137.15,-23.68"/>
<polygon fill="#63b8ff" stroke="#63b8ff" points="138.9,-26.72 146.33,-19.17 135.81,-20.43 138.9,-26.72"/>
</a>
</g>
</g>
<!-- Node5&#45;&gt;Node2 -->
<g id="edge13_Node000005_Node000002" class="edge">
<title>Node5&#45;&gt;Node2</title>
<g id="a_edge13_Node000005_Node000002"><a xlink:title=" ">
<path fill="none" stroke="#63b8ff" d="M205.84,-165.16C177.43,-158.53 141.18,-147.25 113,-129 94.23,-116.85 77.78,-96.95 67.44,-82.67"/>
<polygon fill="#63b8ff" stroke="#63b8ff" points="70.15,-80.43 61.56,-74.23 64.4,-84.43 70.15,-80.43"/>
</a>
</g>
</g>
<!-- Node5&#45;&gt;Node4 -->
<g id="edge5_Node000005_Node000004" class="edge">
<title>Node5&#45;&gt;Node4</title>
<g id="a_edge5_Node000005_Node000004"><a xlink:title=" ">
<path fill="none" stroke="#63b8ff" d="M245.92,-164.82C239.82,-155.99 230.33,-141.81 223,-129 212.43,-110.52 186.26,-56.74 172.61,-28.42"/>
<polygon fill="#63b8ff" stroke="#63b8ff" points="175.68,-26.74 168.19,-19.25 169.38,-29.78 175.68,-26.74"/>
</a>
</g>
</g>
<!-- Node6 -->
<g id="Node000006" class="node">
<title>Node6</title>
<g id="a_Node000006"><a xlink:title=" ">
<polygon fill="#e0e0e0" stroke="#999999" points="364,-129 310,-129 310,-110 364,-110 364,-129"/>
<text text-anchor="middle" x="337" y="-117" font-family="Helvetica,sans-Serif" font-size="10.00">iostream</text>
</a>
</g>
</g>
<!-- Node5&#45;&gt;Node6 -->
<g id="edge6_Node000005_Node000006" class="edge">
<title>Node5&#45;&gt;Node6</title>
<g id="a_edge6_Node000005_Node000006"><a xlink:title=" ">
<path fill="none" stroke="#63b8ff" d="M265.66,-164.98C278.84,-156.77 299.03,-144.18 314.57,-134.49"/>
<polygon fill="#63b8ff" stroke="#63b8ff" points="316.46,-137.43 323.09,-129.17 312.76,-131.49 316.46,-137.43"/>
</a>
</g>
</g>
<!-- Node7 -->
<g id="Node000007" class="node">
<title>Node7</title>
<g id="a_Node000007"><a xlink:title=" ">
<polygon fill="#e0e0e0" stroke="#999999" points="413.5,-74 370.5,-74 370.5,-55 413.5,-55 413.5,-74"/>
<text text-anchor="middle" x="392" y="-62" font-family="Helvetica,sans-Serif" font-size="10.00">vector</text>
</a>
</g>
</g>
<!-- Node5&#45;&gt;Node7 -->
<g id="edge7_Node000005_Node000007" class="edge">
<title>Node5&#45;&gt;Node7</title>
<g id="a_edge7_Node000005_Node000007"><a xlink:title=" ">
<path fill="none" stroke="#63b8ff" d="M298.08,-166.84C323.36,-160.91 353.45,-149.79 373,-129 384.44,-116.83 389.02,-98.04 390.83,-84.05"/>
<polygon fill="#63b8ff" stroke="#63b8ff" points="394.32,-84.37 391.78,-74.08 387.35,-83.71 394.32,-84.37"/>
</a>
</g>
</g>
<!-- Node8 -->
<g id="Node000008" class="node">
<title>Node8</title>
<g id="a_Node000008"><a xlink:title=" ">
<polygon fill="#e0e0e0" stroke="#999999" points="291.5,-129 232.5,-129 232.5,-110 291.5,-110 291.5,-129"/>
<text text-anchor="middle" x="262" y="-117" font-family="Helvetica,sans-Serif" font-size="10.00">functional</text>
</a>
</g>
</g>
<!-- Node5&#45;&gt;Node8 -->
<g id="edge8_Node000005_Node000008" class="edge">
<title>Node5&#45;&gt;Node8</title>
<g id="a_edge8_Node000005_Node000008"><a xlink:title=" ">
<path fill="none" stroke="#63b8ff" d="M253.65,-164.75C254.96,-157.8 256.84,-147.85 258.48,-139.13"/>
<polygon fill="#63b8ff" stroke="#63b8ff" points="261.96,-139.56 260.38,-129.09 255.09,-138.27 261.96,-139.56"/>
</a>
</g>
</g>
<!-- Node5&#45;&gt;Node9 -->
<g id="edge9_Node000005_Node000009" class="edge">
<title>Node5&#45;&gt;Node9</title>
<g id="a_edge9_Node000005_Node000009"><a xlink:title=" ">
<path fill="none" stroke="#63b8ff" d="M235.45,-164.98C219.11,-156.57 193.87,-143.59 174.87,-133.81"/>
<polygon fill="#63b8ff" stroke="#63b8ff" points="176.34,-130.63 165.85,-129.17 173.14,-136.86 176.34,-130.63"/>
</a>
</g>
</g>
<!-- Node9&#45;&gt;Node2 -->
<g id="edge12_Node000009_Node000002" class="edge">
<title>Node9&#45;&gt;Node2</title>
<g id="a_edge12_Node000009_Node000002"><a xlink:title=" ">
<path fill="none" stroke="#63b8ff" d="M134.06,-109.98C119.5,-101.69 97.13,-88.94 80.07,-79.22"/>
<polygon fill="#63b8ff" stroke="#63b8ff" points="81.64,-76.08 71.21,-74.17 78.17,-82.16 81.64,-76.08"/>
</a>
</g>
</g>
<!-- Node9&#45;&gt;Node7 -->
<g id="edge11_Node000009_Node000007" class="edge">
<title>Node9&#45;&gt;Node7</title>
<g id="a_edge11_Node000009_Node000007"><a xlink:title=" ">
<path fill="none" stroke="#63b8ff" d="M176.4,-112.52C221.85,-102.61 312.55,-82.83 360.54,-72.36"/>
<polygon fill="#63b8ff" stroke="#63b8ff" points="361.36,-75.77 370.38,-70.22 359.86,-68.93 361.36,-75.77"/>
</a>
</g>
</g>
<!-- Node10 -->
<g id="Node000010" class="node">
<title>Node10</title>
<g id="a_Node000010"><a xlink:title=" ">
<polygon fill="#e0e0e0" stroke="#999999" points="176,-74 130,-74 130,-55 176,-55 176,-74"/>
<text text-anchor="middle" x="153" y="-62" font-family="Helvetica,sans-Serif" font-size="10.00">chrono</text>
</a>
</g>
</g>
<!-- Node9&#45;&gt;Node10 -->
<g id="edge10_Node000009_Node000010" class="edge">
<title>Node9&#45;&gt;Node10</title>
<g id="a_edge10_Node000009_Node000010"><a xlink:title=" ">
<path fill="none" stroke="#63b8ff" d="M149.66,-109.75C150.18,-102.8 150.94,-92.85 151.59,-84.13"/>
<polygon fill="#63b8ff" stroke="#63b8ff" points="155.09,-84.32 152.35,-74.09 148.11,-83.8 155.09,-84.32"/>
</a>
</g>
</g>
<!-- Node11&#45;&gt;Node7 -->
<g id="edge17_Node000011_Node000007" class="edge">
<title>Node11&#45;&gt;Node7</title>
<g id="a_edge17_Node000011_Node000007"><a xlink:title=" ">
<path fill="none" stroke="#63b8ff" d="M405.27,-164.81C406.85,-152.52 408.98,-129.41 406,-110 404.65,-101.19 401.87,-91.74 399.15,-83.82"/>
<polygon fill="#63b8ff" stroke="#63b8ff" points="402.34,-82.35 395.6,-74.18 395.77,-84.77 402.34,-82.35"/>
</a>
</g>
</g>
<!-- Node12 -->
<g id="Node000012" class="node">
<title>Node12</title>
<g id="a_Node000012"><a xlink:title=" ">
<polygon fill="#e0e0e0" stroke="#999999" points="504,-129 458,-129 458,-110 504,-110 504,-129"/>
<text text-anchor="middle" x="481" y="-117" font-family="Helvetica,sans-Serif" font-size="10.00">cstdint</text>
</a>
</g>
</g>
<!-- Node11&#45;&gt;Node12 -->
<g id="edge16_Node000011_Node000012" class="edge">
<title>Node11&#45;&gt;Node12</title>
<g id="a_edge16_Node000011_Node000012"><a xlink:title=" ">
<path fill="none" stroke="#63b8ff" d="M416.37,-164.98C428.09,-156.92 445.92,-144.65 459.89,-135.03"/>
<polygon fill="#63b8ff" stroke="#63b8ff" points="462.15,-137.72 468.4,-129.17 458.18,-131.96 462.15,-137.72"/>
</a>
</g>
</g>
</g>
</svg>
