<?xml version="1.0" encoding="UTF-8" standalone="no"?>
<!DOCTYPE svg PUBLIC "-//W3C//DTD SVG 1.1//EN"
 "http://www.w3.org/Graphics/SVG/1.1/DTD/svg11.dtd">
<!-- Generated by graphviz version 12.1.0 (20240811.2233)
 -->
<!-- Title: include/ADUL/XMLMap.hpp Pages: 1 -->
<svg width="416pt" height="140pt"
 viewBox="0.00 0.00 415.62 140.00" xmlns="http://www.w3.org/2000/svg" xmlns:xlink="http://www.w3.org/1999/xlink">
<g id="graph0" class="graph" transform="scale(1 1) rotate(0) translate(4 136)">
<title>include/ADUL/XMLMap.hpp</title>
<!-- Node1 -->
<g id="Node000001" class="node">
<title>Node1</title>
<g id="a_Node000001"><a xlink:title=" ">
<polygon fill="#999999" stroke="#666666" points="287,-132 149.5,-132 149.5,-112 287,-112 287,-132"/>
<text text-anchor="middle" x="218.25" y="-118.5" font-family="Helvetica,sans-Serif" font-size="10.00">include/ADUL/XMLMap.hpp</text>
</a>
</g>
</g>
<!-- Node2 -->
<g id="Node000002" class="node">
<title>Node2</title>
<g id="a_Node000002"><a xlink:title=" ">
<polygon fill="#e0e0e0" stroke="#999999" points="110.5,-76 0,-76 0,-56 110.5,-56 110.5,-76"/>
<text text-anchor="middle" x="55.25" y="-62.5" font-family="Helvetica,sans-Serif" font-size="10.00">../extern/tinyxml2.hpp</text>
</a>
</g>
</g>
<!-- Node1&#45;&gt;Node2 -->
<g id="edge1_Node000001_Node000002" class="edge">
<title>Node1&#45;&gt;Node2</title>
<g id="a_edge1_Node000001_Node000002"><a xlink:title=" ">
<path fill="none" stroke="#63b8ff" d="M189.86,-111.59C163.49,-102.86 123.99,-89.77 94.59,-80.03"/>
<polygon fill="#63b8ff" stroke="#63b8ff" points="95.89,-76.78 85.3,-76.96 93.69,-83.42 95.89,-76.78"/>
</a>
</g>
</g>
<!-- Node3 -->
<g id="Node000003" class="node">
<title>Node3</title>
<g id="a_Node000003"><a xlink:href="exceptions_8hpp.html" target="_top" xlink:title=" ">
<polygon fill="white" stroke="#666666" points="210.25,-76 128.25,-76 128.25,-56 210.25,-56 210.25,-76"/>
<text text-anchor="middle" x="169.25" y="-62.5" font-family="Helvetica,sans-Serif" font-size="10.00">exceptions.hpp</text>
</a>
</g>
</g>
<!-- Node1&#45;&gt;Node3 -->
<g id="edge2_Node000001_Node000003" class="edge">
<title>Node1&#45;&gt;Node3</title>
<g id="a_edge2_Node000001_Node000003"><a xlink:title=" ">
<path fill="none" stroke="#63b8ff" d="M209.71,-111.59C202.97,-104.16 193.36,-93.58 185.21,-84.58"/>
<polygon fill="#63b8ff" stroke="#63b8ff" points="188.02,-82.47 178.7,-77.42 182.83,-87.18 188.02,-82.47"/>
</a>
</g>
</g>
<!-- Node6 -->
<g id="Node000006" class="node">
<title>Node6</title>
<g id="a_Node000006"><a xlink:href="small_utils_8hpp.html" target="_top" xlink:title=" ">
<polygon fill="white" stroke="#666666" points="306.38,-76 228.12,-76 228.12,-56 306.38,-56 306.38,-76"/>
<text text-anchor="middle" x="267.25" y="-62.5" font-family="Helvetica,sans-Serif" font-size="10.00">smallUtils.hpp</text>
</a>
</g>
</g>
<!-- Node1&#45;&gt;Node6 -->
<g id="edge5_Node000001_Node000006" class="edge">
<title>Node1&#45;&gt;Node6</title>
<g id="a_edge5_Node000001_Node000006"><a xlink:title=" ">
<path fill="none" stroke="#63b8ff" d="M226.79,-111.59C233.53,-104.16 243.14,-93.58 251.29,-84.58"/>
<polygon fill="#63b8ff" stroke="#63b8ff" points="253.67,-87.18 257.8,-77.42 248.48,-82.47 253.67,-87.18"/>
</a>
</g>
</g>
<!-- Node9 -->
<g id="Node000009" class="node">
<title>Node9</title>
<g id="a_Node000009"><a xlink:title=" ">
<polygon fill="#e0e0e0" stroke="#999999" points="407.62,-76 324.88,-76 324.88,-56 407.62,-56 407.62,-76"/>
<text text-anchor="middle" x="366.25" y="-62.5" font-family="Helvetica,sans-Serif" font-size="10.00">unordered_map</text>
</a>
</g>
</g>
<!-- Node1&#45;&gt;Node9 -->
<g id="edge9_Node000001_Node000009" class="edge">
<title>Node1&#45;&gt;Node9</title>
<g id="a_edge9_Node000001_Node000009"><a xlink:title=" ">
<path fill="none" stroke="#63b8ff" d="M244.03,-111.59C267.65,-102.97 302.89,-90.12 329.47,-80.42"/>
<polygon fill="#63b8ff" stroke="#63b8ff" points="330.65,-83.71 338.85,-77 328.25,-77.14 330.65,-83.71"/>
</a>
</g>
</g>
<!-- Node4 -->
<g id="Node000004" class="node">
<title>Node4</title>
<g id="a_Node000004"><a xlink:title=" ">
<polygon fill="#e0e0e0" stroke="#999999" points="165.25,-20 107.25,-20 107.25,0 165.25,0 165.25,-20"/>
<text text-anchor="middle" x="136.25" y="-6.5" font-family="Helvetica,sans-Serif" font-size="10.00">exception</text>
</a>
</g>
</g>
<!-- Node3&#45;&gt;Node4 -->
<g id="edge3_Node000003_Node000004" class="edge">
<title>Node3&#45;&gt;Node4</title>
<g id="a_edge3_Node000003_Node000004"><a xlink:title=" ">
<path fill="none" stroke="#63b8ff" d="M163.5,-55.59C159.2,-48.55 153.16,-38.67 147.86,-30"/>
<polygon fill="#63b8ff" stroke="#63b8ff" points="150.92,-28.3 142.72,-21.59 144.95,-31.95 150.92,-28.3"/>
</a>
</g>
</g>
<!-- Node5 -->
<g id="Node000005" class="node">
<title>Node5</title>
<g id="a_Node000005"><a xlink:title=" ">
<polygon fill="#e0e0e0" stroke="#999999" points="223.25,-20 183.25,-20 183.25,0 223.25,0 223.25,-20"/>
<text text-anchor="middle" x="203.25" y="-6.5" font-family="Helvetica,sans-Serif" font-size="10.00">string</text>
</a>
</g>
</g>
<!-- Node3&#45;&gt;Node5 -->
<g id="edge4_Node000003_Node000005" class="edge">
<title>Node3&#45;&gt;Node5</title>
<g id="a_edge4_Node000003_Node000005"><a xlink:title=" ">
<path fill="none" stroke="#63b8ff" d="M175.17,-55.59C179.61,-48.55 185.83,-38.67 191.29,-30"/>
<polygon fill="#63b8ff" stroke="#63b8ff" points="194.22,-31.91 196.59,-21.58 188.3,-28.18 194.22,-31.91"/>
</a>
</g>
</g>
<!-- Node6&#45;&gt;Node5 -->
<g id="edge6_Node000006_Node000005" class="edge">
<title>Node6&#45;&gt;Node5</title>
<g id="a_edge6_Node000006_Node000005"><a xlink:title=" ">
<path fill="none" stroke="#63b8ff" d="M256.1,-55.59C246.92,-47.85 233.7,-36.69 222.77,-27.47"/>
<polygon fill="#63b8ff" stroke="#63b8ff" points="225.33,-25.05 215.43,-21.27 220.81,-30.4 225.33,-25.05"/>
</a>
</g>
</g>
<!-- Node7 -->
<g id="Node000007" class="node">
<title>Node7</title>
<g id="a_Node000007"><a xlink:title=" ">
<polygon fill="#e0e0e0" stroke="#999999" points="292.88,-20 241.62,-20 241.62,0 292.88,0 292.88,-20"/>
<text text-anchor="middle" x="267.25" y="-6.5" font-family="Helvetica,sans-Serif" font-size="10.00">sstream</text>
</a>
</g>
</g>
<!-- Node6&#45;&gt;Node7 -->
<g id="edge7_Node000006_Node000007" class="edge">
<title>Node6&#45;&gt;Node7</title>
<g id="a_edge7_Node000006_Node000007"><a xlink:title=" ">
<path fill="none" stroke="#63b8ff" d="M267.25,-55.59C267.25,-49.01 267.25,-39.96 267.25,-31.73"/>
<polygon fill="#63b8ff" stroke="#63b8ff" points="270.75,-31.81 267.25,-21.81 263.75,-31.81 270.75,-31.81"/>
</a>
</g>
</g>
<!-- Node8 -->
<g id="Node000008" class="node">
<title>Node8</title>
<g id="a_Node000008"><a xlink:title=" ">
<polygon fill="#e0e0e0" stroke="#999999" points="369.62,-20 310.88,-20 310.88,0 369.62,0 369.62,-20"/>
<text text-anchor="middle" x="340.25" y="-6.5" font-family="Helvetica,sans-Serif" font-size="10.00">stdexcept</text>
</a>
</g>
</g>
<!-- Node6&#45;&gt;Node8 -->
<g id="edge8_Node000006_Node000008" class="edge">
<title>Node6&#45;&gt;Node8</title>
<g id="a_edge8_Node000006_Node000008"><a xlink:title=" ">
<path fill="none" stroke="#63b8ff" d="M279.97,-55.59C290.64,-47.7 306.13,-36.24 318.73,-26.92"/>
<polygon fill="#63b8ff" stroke="#63b8ff" points="320.51,-29.96 326.46,-21.2 316.34,-24.33 320.51,-29.96"/>
</a>
</g>
</g>
</g>
</svg>
