<?xml version="1.0" encoding="UTF-8" standalone="no"?>
<!DOCTYPE svg PUBLIC "-//W3C//DTD SVG 1.1//EN"
 "http://www.w3.org/Graphics/SVG/1.1/DTD/svg11.dtd">
<!-- Generated by graphviz version 12.1.0 (20240811.2233)
 -->
<!-- Title: include/ADUL/atm.hpp Pages: 1 -->
<svg width="540pt" height="196pt"
 viewBox="0.00 0.00 540.00 196.00" xmlns="http://www.w3.org/2000/svg" xmlns:xlink="http://www.w3.org/1999/xlink">
<g id="graph0" class="graph" transform="scale(1 1) rotate(0) translate(4 192)">
<title>include/ADUL/atm.hpp</title>
<!-- Node1 -->
<g id="Node000001" class="node">
<title>Node1</title>
<g id="a_Node000001"><a xlink:title=" ">
<polygon fill="#999999" stroke="#666666" points="246.12,-188 131.12,-188 131.12,-168 246.12,-168 246.12,-188"/>
<text text-anchor="middle" x="188.62" y="-174.5" font-family="Helvetica,sans-Serif" font-size="10.00">include/ADUL/atm.hpp</text>
</a>
</g>
</g>
<!-- Node2 -->
<g id="Node000002" class="node">
<title>Node2</title>
<g id="a_Node000002"><a xlink:href="bit_vector_8hpp.html" target="_top" xlink:title=" ">
<polygon fill="white" stroke="#666666" points="121.12,-132 48.12,-132 48.12,-112 121.12,-112 121.12,-132"/>
<text text-anchor="middle" x="84.62" y="-118.5" font-family="Helvetica,sans-Serif" font-size="10.00">bitVector.hpp</text>
</a>
</g>
</g>
<!-- Node1&#45;&gt;Node2 -->
<g id="edge1_Node000001_Node000002" class="edge">
<title>Node1&#45;&gt;Node2</title>
<g id="a_edge1_Node000001_Node000002"><a xlink:title=" ">
<path fill="none" stroke="#63b8ff" d="M170.51,-167.59C154.65,-159.36 131.34,-147.26 113.01,-137.74"/>
<polygon fill="#63b8ff" stroke="#63b8ff" points="114.71,-134.68 104.23,-133.18 111.49,-140.89 114.71,-134.68"/>
</a>
</g>
</g>
<!-- Node5 -->
<g id="Node000005" class="node">
<title>Node5</title>
<g id="a_Node000005"><a xlink:href="_x_m_l_map_8hpp.html" target="_top" xlink:title=" ">
<polygon fill="white" stroke="#666666" points="330.5,-132 256.75,-132 256.75,-112 330.5,-112 330.5,-132"/>
<text text-anchor="middle" x="293.62" y="-118.5" font-family="Helvetica,sans-Serif" font-size="10.00">XMLMap.hpp</text>
</a>
</g>
</g>
<!-- Node1&#45;&gt;Node5 -->
<g id="edge4_Node000001_Node000005" class="edge">
<title>Node1&#45;&gt;Node5</title>
<g id="a_edge4_Node000001_Node000005"><a xlink:title=" ">
<path fill="none" stroke="#63b8ff" d="M206.91,-167.59C222.93,-159.36 246.46,-147.26 264.97,-137.74"/>
<polygon fill="#63b8ff" stroke="#63b8ff" points="266.55,-140.86 273.85,-133.17 263.35,-134.63 266.55,-140.86"/>
</a>
</g>
</g>
<!-- Node3 -->
<g id="Node000003" class="node">
<title>Node3</title>
<g id="a_Node000003"><a xlink:title=" ">
<polygon fill="#e0e0e0" stroke="#999999" points="45.25,-76 0,-76 0,-56 45.25,-56 45.25,-76"/>
<text text-anchor="middle" x="22.62" y="-62.5" font-family="Helvetica,sans-Serif" font-size="10.00">cstdint</text>
</a>
</g>
</g>
<!-- Node2&#45;&gt;Node3 -->
<g id="edge2_Node000002_Node000003" class="edge">
<title>Node2&#45;&gt;Node3</title>
<g id="a_edge2_Node000002_Node000003"><a xlink:title=" ">
<path fill="none" stroke="#63b8ff" d="M73.83,-111.59C65.02,-103.93 52.37,-92.91 41.85,-83.75"/>
<polygon fill="#63b8ff" stroke="#63b8ff" points="44.28,-81.22 34.44,-77.29 39.68,-86.5 44.28,-81.22"/>
</a>
</g>
</g>
<!-- Node4 -->
<g id="Node000004" class="node">
<title>Node4</title>
<g id="a_Node000004"><a xlink:title=" ">
<polygon fill="#e0e0e0" stroke="#999999" points="106.12,-76 63.12,-76 63.12,-56 106.12,-56 106.12,-76"/>
<text text-anchor="middle" x="84.62" y="-62.5" font-family="Helvetica,sans-Serif" font-size="10.00">vector</text>
</a>
</g>
</g>
<!-- Node2&#45;&gt;Node4 -->
<g id="edge3_Node000002_Node000004" class="edge">
<title>Node2&#45;&gt;Node4</title>
<g id="a_edge3_Node000002_Node000004"><a xlink:title=" ">
<path fill="none" stroke="#63b8ff" d="M84.62,-111.59C84.62,-105.01 84.62,-95.96 84.62,-87.73"/>
<polygon fill="#63b8ff" stroke="#63b8ff" points="88.13,-87.81 84.63,-77.81 81.13,-87.81 88.13,-87.81"/>
</a>
</g>
</g>
<!-- Node6 -->
<g id="Node000006" class="node">
<title>Node6</title>
<g id="a_Node000006"><a xlink:title=" ">
<polygon fill="#e0e0e0" stroke="#999999" points="234.88,-76 124.38,-76 124.38,-56 234.88,-56 234.88,-76"/>
<text text-anchor="middle" x="179.62" y="-62.5" font-family="Helvetica,sans-Serif" font-size="10.00">../extern/tinyxml2.hpp</text>
</a>
</g>
</g>
<!-- Node5&#45;&gt;Node6 -->
<g id="edge5_Node000005_Node000006" class="edge">
<title>Node5&#45;&gt;Node6</title>
<g id="a_edge5_Node000005_Node000006"><a xlink:title=" ">
<path fill="none" stroke="#63b8ff" d="M273.77,-111.59C256.14,-103.24 230.12,-90.92 209.9,-81.34"/>
<polygon fill="#63b8ff" stroke="#63b8ff" points="211.54,-78.25 201.01,-77.13 208.54,-84.57 211.54,-78.25"/>
</a>
</g>
</g>
<!-- Node7 -->
<g id="Node000007" class="node">
<title>Node7</title>
<g id="a_Node000007"><a xlink:href="exceptions_8hpp.html" target="_top" xlink:title=" ">
<polygon fill="white" stroke="#666666" points="334.62,-76 252.62,-76 252.62,-56 334.62,-56 334.62,-76"/>
<text text-anchor="middle" x="293.62" y="-62.5" font-family="Helvetica,sans-Serif" font-size="10.00">exceptions.hpp</text>
</a>
</g>
</g>
<!-- Node5&#45;&gt;Node7 -->
<g id="edge6_Node000005_Node000007" class="edge">
<title>Node5&#45;&gt;Node7</title>
<g id="a_edge6_Node000005_Node000007"><a xlink:title=" ">
<path fill="none" stroke="#63b8ff" d="M293.62,-111.59C293.62,-105.01 293.62,-95.96 293.62,-87.73"/>
<polygon fill="#63b8ff" stroke="#63b8ff" points="297.13,-87.81 293.63,-77.81 290.13,-87.81 297.13,-87.81"/>
</a>
</g>
</g>
<!-- Node10 -->
<g id="Node000010" class="node">
<title>Node10</title>
<g id="a_Node000010"><a xlink:href="small_utils_8hpp.html" target="_top" xlink:title=" ">
<polygon fill="white" stroke="#666666" points="430.75,-76 352.5,-76 352.5,-56 430.75,-56 430.75,-76"/>
<text text-anchor="middle" x="391.62" y="-62.5" font-family="Helvetica,sans-Serif" font-size="10.00">smallUtils.hpp</text>
</a>
</g>
</g>
<!-- Node5&#45;&gt;Node10 -->
<g id="edge9_Node000005_Node000010" class="edge">
<title>Node5&#45;&gt;Node10</title>
<g id="a_edge9_Node000005_Node000010"><a xlink:title=" ">
<path fill="none" stroke="#63b8ff" d="M310.7,-111.59C325.5,-103.44 347.19,-91.48 364.39,-82"/>
<polygon fill="#63b8ff" stroke="#63b8ff" points="366.03,-85.1 373.1,-77.21 362.65,-78.97 366.03,-85.1"/>
</a>
</g>
</g>
<!-- Node13 -->
<g id="Node000013" class="node">
<title>Node13</title>
<g id="a_Node000013"><a xlink:title=" ">
<polygon fill="#e0e0e0" stroke="#999999" points="532,-76 449.25,-76 449.25,-56 532,-56 532,-76"/>
<text text-anchor="middle" x="490.62" y="-62.5" font-family="Helvetica,sans-Serif" font-size="10.00">unordered_map</text>
</a>
</g>
</g>
<!-- Node5&#45;&gt;Node13 -->
<g id="edge13_Node000005_Node000013" class="edge">
<title>Node5&#45;&gt;Node13</title>
<g id="a_edge13_Node000005_Node000013"><a xlink:title=" ">
<path fill="none" stroke="#63b8ff" d="M327.94,-111.59C360.37,-102.71 409.24,-89.31 444.95,-79.52"/>
<polygon fill="#63b8ff" stroke="#63b8ff" points="445.86,-82.9 454.58,-76.88 444.01,-76.15 445.86,-82.9"/>
</a>
</g>
</g>
<!-- Node8 -->
<g id="Node000008" class="node">
<title>Node8</title>
<g id="a_Node000008"><a xlink:title=" ">
<polygon fill="#e0e0e0" stroke="#999999" points="289.62,-20 231.62,-20 231.62,0 289.62,0 289.62,-20"/>
<text text-anchor="middle" x="260.62" y="-6.5" font-family="Helvetica,sans-Serif" font-size="10.00">exception</text>
</a>
</g>
</g>
<!-- Node7&#45;&gt;Node8 -->
<g id="edge7_Node000007_Node000008" class="edge">
<title>Node7&#45;&gt;Node8</title>
<g id="a_edge7_Node000007_Node000008"><a xlink:title=" ">
<path fill="none" stroke="#63b8ff" d="M287.88,-55.59C283.57,-48.55 277.53,-38.67 272.24,-30"/>
<polygon fill="#63b8ff" stroke="#63b8ff" points="275.3,-28.3 267.1,-21.59 269.32,-31.95 275.3,-28.3"/>
</a>
</g>
</g>
<!-- Node9 -->
<g id="Node000009" class="node">
<title>Node9</title>
<g id="a_Node000009"><a xlink:title=" ">
<polygon fill="#e0e0e0" stroke="#999999" points="347.62,-20 307.62,-20 307.62,0 347.62,0 347.62,-20"/>
<text text-anchor="middle" x="327.62" y="-6.5" font-family="Helvetica,sans-Serif" font-size="10.00">string</text>
</a>
</g>
</g>
<!-- Node7&#45;&gt;Node9 -->
<g id="edge8_Node000007_Node000009" class="edge">
<title>Node7&#45;&gt;Node9</title>
<g id="a_edge8_Node000007_Node000009"><a xlink:title=" ">
<path fill="none" stroke="#63b8ff" d="M299.55,-55.59C303.98,-48.55 310.2,-38.67 315.66,-30"/>
<polygon fill="#63b8ff" stroke="#63b8ff" points="318.6,-31.91 320.96,-21.58 312.67,-28.18 318.6,-31.91"/>
</a>
</g>
</g>
<!-- Node10&#45;&gt;Node9 -->
<g id="edge10_Node000010_Node000009" class="edge">
<title>Node10&#45;&gt;Node9</title>
<g id="a_edge10_Node000010_Node000009"><a xlink:title=" ">
<path fill="none" stroke="#63b8ff" d="M380.48,-55.59C371.3,-47.85 358.07,-36.69 347.14,-27.47"/>
<polygon fill="#63b8ff" stroke="#63b8ff" points="349.7,-25.05 339.8,-21.27 345.19,-30.4 349.7,-25.05"/>
</a>
</g>
</g>
<!-- Node11 -->
<g id="Node000011" class="node">
<title>Node11</title>
<g id="a_Node000011"><a xlink:title=" ">
<polygon fill="#e0e0e0" stroke="#999999" points="417.25,-20 366,-20 366,0 417.25,0 417.25,-20"/>
<text text-anchor="middle" x="391.62" y="-6.5" font-family="Helvetica,sans-Serif" font-size="10.00">sstream</text>
</a>
</g>
</g>
<!-- Node10&#45;&gt;Node11 -->
<g id="edge11_Node000010_Node000011" class="edge">
<title>Node10&#45;&gt;Node11</title>
<g id="a_edge11_Node000010_Node000011"><a xlink:title=" ">
<path fill="none" stroke="#63b8ff" d="M391.62,-55.59C391.62,-49.01 391.62,-39.96 391.62,-31.73"/>
<polygon fill="#63b8ff" stroke="#63b8ff" points="395.13,-31.81 391.63,-21.81 388.13,-31.81 395.13,-31.81"/>
</a>
</g>
</g>
<!-- Node12 -->
<g id="Node000012" class="node">
<title>Node12</title>
<g id="a_Node000012"><a xlink:title=" ">
<polygon fill="#e0e0e0" stroke="#999999" points="494,-20 435.25,-20 435.25,0 494,0 494,-20"/>
<text text-anchor="middle" x="464.62" y="-6.5" font-family="Helvetica,sans-Serif" font-size="10.00">stdexcept</text>
</a>
</g>
</g>
<!-- Node10&#45;&gt;Node12 -->
<g id="edge12_Node000010_Node000012" class="edge">
<title>Node10&#45;&gt;Node12</title>
<g id="a_edge12_Node000010_Node000012"><a xlink:title=" ">
<path fill="none" stroke="#63b8ff" d="M404.34,-55.59C415.02,-47.7 430.5,-36.24 443.11,-26.92"/>
<polygon fill="#63b8ff" stroke="#63b8ff" points="444.88,-29.96 450.84,-21.2 440.72,-24.33 444.88,-29.96"/>
</a>
</g>
</g>
</g>
</svg>
