<?xml version="1.0" encoding="UTF-8" standalone="no"?>
<!DOCTYPE svg PUBLIC "-//W3C//DTD SVG 1.1//EN"
 "http://www.w3.org/Graphics/SVG/1.1/DTD/svg11.dtd">
<!-- Generated by graphviz version 2.49.3 (0)
 -->
<!-- Title: adul::exceptions::FailedXMLFile Pages: 1 -->
<svg width="264pt" height="159pt"
 viewBox="0.00 0.00 264.00 159.00" xmlns="http://www.w3.org/2000/svg" xmlns:xlink="http://www.w3.org/1999/xlink">
<g id="graph0" class="graph" transform="scale(1 1) rotate(0) translate(4 155)">
<title>adul::exceptions::FailedXMLFile</title>
<!-- Node1 -->
<g id="Node000001" class="node">
<title>Node1</title>
<g id="a_Node000001"><a xlink:title="represents failure with working with XML file">
<polygon fill="#999999" stroke="#666666" points="187,-96 68,-96 68,-66 187,-66 187,-96"/>
<text text-anchor="start" x="76" y="-84" font-family="Helvetica,sans-Serif" font-size="10.00">adul::exceptions::Failed</text>
<text text-anchor="middle" x="127.5" y="-73" font-family="Helvetica,sans-Serif" font-size="10.00">XMLFile</text>
</a>
</g>
</g>
<!-- Node3 -->
<g id="Node000003" class="node">
<title>Node3</title>
<g id="a_Node000003"><a xlink:href="classadul_1_1exceptions_1_1_failed_reading_x_m_l_file.html" target="_top" xlink:title="represents failure with reading from XML file">
<polygon fill="white" stroke="#666666" points="119,-30 0,-30 0,0 119,0 119,-30"/>
<text text-anchor="start" x="8" y="-18" font-family="Helvetica,sans-Serif" font-size="10.00">adul::exceptions::Failed</text>
<text text-anchor="middle" x="59.5" y="-7" font-family="Helvetica,sans-Serif" font-size="10.00">ReadingXMLFile</text>
</a>
</g>
</g>
<!-- Node1&#45;&gt;Node3 -->
<g id="edge2_Node000001_Node000003" class="edge">
<title>Node1&#45;&gt;Node3</title>
<g id="a_edge2_Node000001_Node000003"><a xlink:title=" ">
<path fill="none" stroke="darkgreen" d="M105.11,-58.92C95.08,-49.49 83.52,-38.61 74.55,-30.16"/>
<polygon fill="darkgreen" stroke="darkgreen" points="102.73,-61.49 112.41,-65.8 107.53,-56.39 102.73,-61.49"/>
</a>
</g>
</g>
<!-- Node4 -->
<g id="Node000004" class="node">
<title>Node4</title>
<g id="a_Node000004"><a xlink:href="classadul_1_1exceptions_1_1_failed_writing_x_m_l_file.html" target="_top" xlink:title="represents failure with writing to XML file">
<polygon fill="white" stroke="#666666" points="256,-30 137,-30 137,0 256,0 256,-30"/>
<text text-anchor="start" x="145" y="-18" font-family="Helvetica,sans-Serif" font-size="10.00">adul::exceptions::Failed</text>
<text text-anchor="middle" x="196.5" y="-7" font-family="Helvetica,sans-Serif" font-size="10.00">WritingXMLFile</text>
</a>
</g>
</g>
<!-- Node1&#45;&gt;Node4 -->
<g id="edge3_Node000001_Node000004" class="edge">
<title>Node1&#45;&gt;Node4</title>
<g id="a_edge3_Node000001_Node000004"><a xlink:title=" ">
<path fill="none" stroke="#8b1a1a" d="M150.22,-58.92C160.4,-49.49 172.13,-38.61 181.23,-30.16"/>
<polygon fill="#8b1a1a" stroke="#8b1a1a" points="147.76,-56.43 142.81,-65.8 152.53,-61.56 147.76,-56.43"/>
</a>
</g>
</g>
<!-- Node2 -->
<g id="Node000002" class="node">
<title>Node2</title>
<g id="a_Node000002"><a xlink:title=" ">
<polygon fill="white" stroke="#666666" points="166,-151 89,-151 89,-132 166,-132 166,-151"/>
<text text-anchor="middle" x="127.5" y="-139" font-family="Helvetica,sans-Serif" font-size="10.00">std::exception</text>
</a>
</g>
</g>
<!-- Node2&#45;&gt;Node1 -->
<g id="edge1_Node000001_Node000002" class="edge">
<title>Node2&#45;&gt;Node1</title>
<g id="a_edge1_Node000001_Node000002"><a xlink:title=" ">
<path fill="none" stroke="#8b1a1a" d="M127.5,-121.65C127.5,-113.36 127.5,-103.78 127.5,-96.11"/>
<polygon fill="#8b1a1a" stroke="#8b1a1a" points="124,-121.87 127.5,-131.87 131,-121.87 124,-121.87"/>
</a>
</g>
</g>
</g>
</svg>
