<?xml version="1.0" encoding="UTF-8" standalone="no"?>
<!DOCTYPE svg PUBLIC "-//W3C//DTD SVG 1.1//EN"
 "http://www.w3.org/Graphics/SVG/1.1/DTD/svg11.dtd">
<!-- Generated by graphviz version 12.1.0 (20240811.2233)
 -->
<!-- Title: include/ADUL/exceptions.hpp Pages: 1 -->
<svg width="343pt" height="196pt"
 viewBox="0.00 0.00 343.33 196.00" xmlns="http://www.w3.org/2000/svg" xmlns:xlink="http://www.w3.org/1999/xlink">
<g id="graph0" class="graph" transform="scale(1 1) rotate(0) translate(4 192)">
<title>include/ADUL/exceptions.hpp</title>
<!-- Node1 -->
<g id="Node000001" class="node">
<title>Node1</title>
<g id="a_Node000001"><a xlink:title=" ">
<polygon fill="#999999" stroke="#666666" points="213.58,-188 67.83,-188 67.83,-168 213.58,-168 213.58,-188"/>
<text text-anchor="middle" x="140.71" y="-174.5" font-family="Helvetica,sans-Serif" font-size="10.00">include/ADUL/exceptions.hpp</text>
</a>
</g>
</g>
<!-- Node2 -->
<g id="Node000002" class="node">
<title>Node2</title>
<g id="a_Node000002"><a xlink:href="_a_d_u_l_8hpp.html" target="_top" xlink:title=" ">
<polygon fill="white" stroke="#666666" points="196.46,-20 100.96,-20 100.96,0 196.46,0 196.46,-20"/>
<text text-anchor="middle" x="148.71" y="-6.5" font-family="Helvetica,sans-Serif" font-size="10.00">include/ADUL.hpp</text>
</a>
</g>
</g>
<!-- Node1&#45;&gt;Node2 -->
<g id="edge1_Node000001_Node000002" class="edge">
<title>Node1&#45;&gt;Node2</title>
<g id="a_edge1_Node000001_Node000002"><a xlink:title=" ">
<path fill="none" stroke="#63b8ff" d="M58.78,-163.85C41.53,-157.15 25.35,-147.09 14.71,-132 -4.75,-104.39 -5.01,-83.42 14.71,-56 34.12,-29 70.52,-17.98 100.49,-13.58"/>
<polygon fill="#63b8ff" stroke="#63b8ff" points="57.6,-167.14 68.2,-167.1 59.89,-160.53 57.6,-167.14"/>
</a>
</g>
</g>
<!-- Node3 -->
<g id="Node000003" class="node">
<title>Node3</title>
<g id="a_Node000003"><a xlink:href="_x_m_l_map_8hpp.html" target="_top" xlink:title=" ">
<polygon fill="white" stroke="#666666" points="161.46,-132 23.96,-132 23.96,-112 161.46,-112 161.46,-132"/>
<text text-anchor="middle" x="92.71" y="-118.5" font-family="Helvetica,sans-Serif" font-size="10.00">include/ADUL/XMLMap.hpp</text>
</a>
</g>
</g>
<!-- Node1&#45;&gt;Node3 -->
<g id="edge2_Node000001_Node000003" class="edge">
<title>Node1&#45;&gt;Node3</title>
<g id="a_edge2_Node000001_Node000003"><a xlink:title=" ">
<path fill="none" stroke="#63b8ff" d="M124.71,-159C116.76,-150.06 107.48,-139.62 100.97,-132.3"/>
<polygon fill="#63b8ff" stroke="#63b8ff" points="122.08,-161.31 131.34,-166.46 127.31,-156.66 122.08,-161.31"/>
</a>
</g>
</g>
<!-- Node5 -->
<g id="Node000005" class="node">
<title>Node5</title>
<g id="a_Node000005"><a xlink:href="logs_8hpp.html" target="_top" xlink:title=" ">
<polygon fill="white" stroke="#666666" points="273.96,-76 157.46,-76 157.46,-56 273.96,-56 273.96,-76"/>
<text text-anchor="middle" x="215.71" y="-62.5" font-family="Helvetica,sans-Serif" font-size="10.00">include/ADUL/logs.hpp</text>
</a>
</g>
</g>
<!-- Node1&#45;&gt;Node5 -->
<g id="edge5_Node000001_Node000005" class="edge">
<title>Node1&#45;&gt;Node5</title>
<g id="a_edge5_Node000001_Node000005"><a xlink:title=" ">
<path fill="none" stroke="#63b8ff" d="M153.48,-158.27C169.68,-134.5 197,-94.44 209.33,-76.35"/>
<polygon fill="#63b8ff" stroke="#63b8ff" points="150.7,-156.14 147.95,-166.37 156.48,-160.08 150.7,-156.14"/>
</a>
</g>
</g>
<!-- Node6 -->
<g id="Node000006" class="node">
<title>Node6</title>
<g id="a_Node000006"><a xlink:href="time_8hpp.html" target="_top" xlink:title=" ">
<polygon fill="white" stroke="#666666" points="335.33,-132 218.08,-132 218.08,-112 335.33,-112 335.33,-132"/>
<text text-anchor="middle" x="276.71" y="-118.5" font-family="Helvetica,sans-Serif" font-size="10.00">include/ADUL/time.hpp</text>
</a>
</g>
</g>
<!-- Node1&#45;&gt;Node6 -->
<g id="edge7_Node000001_Node000006" class="edge">
<title>Node1&#45;&gt;Node6</title>
<g id="a_edge7_Node000001_Node000006"><a xlink:title=" ">
<path fill="none" stroke="#63b8ff" d="M174.95,-163.4C199.25,-153.75 231.26,-141.05 252.83,-132.48"/>
<polygon fill="#63b8ff" stroke="#63b8ff" points="173.81,-160.09 165.8,-167.04 176.39,-166.6 173.81,-160.09"/>
</a>
</g>
</g>
<!-- Node4 -->
<g id="Node000004" class="node">
<title>Node4</title>
<g id="a_Node000004"><a xlink:href="atm_8hpp.html" target="_top" xlink:title=" ">
<polygon fill="white" stroke="#666666" points="139.21,-76 24.21,-76 24.21,-56 139.21,-56 139.21,-76"/>
<text text-anchor="middle" x="81.71" y="-62.5" font-family="Helvetica,sans-Serif" font-size="10.00">include/ADUL/atm.hpp</text>
</a>
</g>
</g>
<!-- Node3&#45;&gt;Node4 -->
<g id="edge3_Node000003_Node000004" class="edge">
<title>Node3&#45;&gt;Node4</title>
<g id="a_edge3_Node000003_Node000004"><a xlink:title=" ">
<path fill="none" stroke="#63b8ff" d="M88.52,-100.43C86.82,-92.11 84.95,-82.93 83.6,-76.3"/>
<polygon fill="#63b8ff" stroke="#63b8ff" points="85.06,-101.01 90.49,-110.11 91.92,-99.61 85.06,-101.01"/>
</a>
</g>
</g>
<!-- Node4&#45;&gt;Node2 -->
<g id="edge4_Node000004_Node000002" class="edge">
<title>Node4&#45;&gt;Node2</title>
<g id="a_edge4_Node000004_Node000002"><a xlink:title=" ">
<path fill="none" stroke="#63b8ff" d="M102.3,-48.4C113.76,-39.17 127.6,-28.01 137.17,-20.3"/>
<polygon fill="#63b8ff" stroke="#63b8ff" points="100.15,-45.64 94.56,-54.64 104.54,-51.09 100.15,-45.64"/>
</a>
</g>
</g>
<!-- Node5&#45;&gt;Node2 -->
<g id="edge6_Node000005_Node000002" class="edge">
<title>Node5&#45;&gt;Node2</title>
<g id="a_edge6_Node000005_Node000002"><a xlink:title=" ">
<path fill="none" stroke="#63b8ff" d="M195.12,-48.4C183.65,-39.17 169.81,-28.01 160.24,-20.3"/>
<polygon fill="#63b8ff" stroke="#63b8ff" points="192.88,-51.09 202.86,-54.64 197.27,-45.64 192.88,-51.09"/>
</a>
</g>
</g>
<!-- Node6&#45;&gt;Node2 -->
<g id="edge8_Node000006_Node000002" class="edge">
<title>Node6&#45;&gt;Node2</title>
<g id="a_edge8_Node000006_Node000002"><a xlink:title=" ">
<path fill="none" stroke="#63b8ff" d="M284.93,-101.18C289.28,-87.28 292.01,-68.94 282.71,-56 263.29,-29 226.89,-17.98 196.92,-13.58"/>
<polygon fill="#63b8ff" stroke="#63b8ff" points="281.79,-99.58 281.65,-110.17 288.37,-101.98 281.79,-99.58"/>
</a>
</g>
</g>
<!-- Node6&#45;&gt;Node5 -->
<g id="edge9_Node000006_Node000005" class="edge">
<title>Node6&#45;&gt;Node5</title>
<g id="a_edge9_Node000006_Node000005"><a xlink:title=" ">
<path fill="none" stroke="#63b8ff" d="M257.65,-104.13C247.27,-94.94 234.84,-83.93 226.21,-76.3"/>
<polygon fill="#63b8ff" stroke="#63b8ff" points="255.14,-106.58 264.95,-110.59 259.78,-101.34 255.14,-106.58"/>
</a>
</g>
</g>
</g>
</svg>
