<?xml version="1.0" encoding="UTF-8" standalone="no"?>
<!DOCTYPE svg PUBLIC "-//W3C//DTD SVG 1.1//EN"
 "http://www.w3.org/Graphics/SVG/1.1/DTD/svg11.dtd">
<!-- Generated by graphviz version 12.1.0 (20240811.2233)
 -->
<!-- Title: include/ADUL/exceptions.hpp Pages: 1 -->
<svg width="343pt" height="196pt"
 viewBox="0.00 0.00 343.36 196.00" xmlns="http://www.w3.org/2000/svg" xmlns:xlink="http://www.w3.org/1999/xlink">
<g id="graph0" class="graph" transform="scale(1 1) rotate(0) translate(4 192)">
<title>include/ADUL/exceptions.hpp</title>
<!-- Node1 -->
<g id="Node000001" class="node">
<title>Node1</title>
<g id="a_Node000001"><a xlink:title=" ">
<polygon fill="#999999" stroke="#666666" points="213.61,-188 67.86,-188 67.86,-168 213.61,-168 213.61,-188"/>
<text text-anchor="middle" x="140.73" y="-174.5" font-family="Helvetica,sans-Serif" font-size="10.00">include/ADUL/exceptions.hpp</text>
</a>
</g>
</g>
<!-- Node2 -->
<g id="Node000002" class="node">
<title>Node2</title>
<g id="a_Node000002"><a xlink:href="_a_d_u_l_8hpp.html" target="_top" xlink:title=" ">
<polygon fill="white" stroke="#666666" points="198.48,-20 102.98,-20 102.98,0 198.48,0 198.48,-20"/>
<text text-anchor="middle" x="150.73" y="-6.5" font-family="Helvetica,sans-Serif" font-size="10.00">include/ADUL.hpp</text>
</a>
</g>
</g>
<!-- Node1&#45;&gt;Node2 -->
<g id="edge1_Node000001_Node000002" class="edge">
<title>Node1&#45;&gt;Node2</title>
<g id="a_edge1_Node000001_Node000002"><a xlink:title=" ">
<path fill="none" stroke="#63b8ff" d="M58.81,-163.85C41.55,-157.15 25.37,-147.09 14.73,-132 -4.72,-104.39 -5.05,-83.38 14.73,-56 34.61,-28.48 71.96,-17.52 102.49,-13.27"/>
<polygon fill="#63b8ff" stroke="#63b8ff" points="57.63,-167.14 68.22,-167.1 59.92,-160.53 57.63,-167.14"/>
</a>
</g>
</g>
<!-- Node3 -->
<g id="Node000003" class="node">
<title>Node3</title>
<g id="a_Node000003"><a xlink:href="_x_m_l_map_8hpp.html" target="_top" xlink:title=" ">
<polygon fill="white" stroke="#666666" points="161.48,-132 23.98,-132 23.98,-112 161.48,-112 161.48,-132"/>
<text text-anchor="middle" x="92.73" y="-118.5" font-family="Helvetica,sans-Serif" font-size="10.00">include/ADUL/XMLMap.hpp</text>
</a>
</g>
</g>
<!-- Node1&#45;&gt;Node3 -->
<g id="edge2_Node000001_Node000003" class="edge">
<title>Node1&#45;&gt;Node3</title>
<g id="a_edge2_Node000001_Node000003"><a xlink:title=" ">
<path fill="none" stroke="#63b8ff" d="M124.74,-159C116.79,-150.06 107.51,-139.62 101,-132.3"/>
<polygon fill="#63b8ff" stroke="#63b8ff" points="122.11,-161.31 131.37,-166.46 127.34,-156.66 122.11,-161.31"/>
</a>
</g>
</g>
<!-- Node5 -->
<g id="Node000005" class="node">
<title>Node5</title>
<g id="a_Node000005"><a xlink:href="logger_8hpp.html" target="_top" xlink:title=" ">
<polygon fill="white" stroke="#666666" points="282.11,-76 157.36,-76 157.36,-56 282.11,-56 282.11,-76"/>
<text text-anchor="middle" x="219.73" y="-62.5" font-family="Helvetica,sans-Serif" font-size="10.00">include/ADUL/logger.hpp</text>
</a>
</g>
</g>
<!-- Node1&#45;&gt;Node5 -->
<g id="edge5_Node000001_Node000005" class="edge">
<title>Node1&#45;&gt;Node5</title>
<g id="a_edge5_Node000001_Node000005"><a xlink:title=" ">
<path fill="none" stroke="#63b8ff" d="M153.96,-158.58C171,-134.86 199.97,-94.52 213.02,-76.35"/>
<polygon fill="#63b8ff" stroke="#63b8ff" points="151.34,-156.23 148.35,-166.39 157.03,-160.31 151.34,-156.23"/>
</a>
</g>
</g>
<!-- Node6 -->
<g id="Node000006" class="node">
<title>Node6</title>
<g id="a_Node000006"><a xlink:href="time_8hpp.html" target="_top" xlink:title=" ">
<polygon fill="white" stroke="#666666" points="335.36,-132 218.11,-132 218.11,-112 335.36,-112 335.36,-132"/>
<text text-anchor="middle" x="276.73" y="-118.5" font-family="Helvetica,sans-Serif" font-size="10.00">include/ADUL/time.hpp</text>
</a>
</g>
</g>
<!-- Node1&#45;&gt;Node6 -->
<g id="edge7_Node000001_Node000006" class="edge">
<title>Node1&#45;&gt;Node6</title>
<g id="a_edge7_Node000001_Node000006"><a xlink:title=" ">
<path fill="none" stroke="#63b8ff" d="M174.98,-163.4C199.28,-153.75 231.29,-141.05 252.86,-132.48"/>
<polygon fill="#63b8ff" stroke="#63b8ff" points="173.83,-160.09 165.83,-167.04 176.42,-166.6 173.83,-160.09"/>
</a>
</g>
</g>
<!-- Node4 -->
<g id="Node000004" class="node">
<title>Node4</title>
<g id="a_Node000004"><a xlink:href="atm_8hpp.html" target="_top" xlink:title=" ">
<polygon fill="white" stroke="#666666" points="139.23,-76 24.23,-76 24.23,-56 139.23,-56 139.23,-76"/>
<text text-anchor="middle" x="81.73" y="-62.5" font-family="Helvetica,sans-Serif" font-size="10.00">include/ADUL/atm.hpp</text>
</a>
</g>
</g>
<!-- Node3&#45;&gt;Node4 -->
<g id="edge3_Node000003_Node000004" class="edge">
<title>Node3&#45;&gt;Node4</title>
<g id="a_edge3_Node000003_Node000004"><a xlink:title=" ">
<path fill="none" stroke="#63b8ff" d="M88.54,-100.43C86.85,-92.11 84.98,-82.93 83.63,-76.3"/>
<polygon fill="#63b8ff" stroke="#63b8ff" points="85.09,-101.01 90.52,-110.11 91.95,-99.61 85.09,-101.01"/>
</a>
</g>
</g>
<!-- Node4&#45;&gt;Node2 -->
<g id="edge4_Node000004_Node000002" class="edge">
<title>Node4&#45;&gt;Node2</title>
<g id="a_edge4_Node000004_Node000002"><a xlink:title=" ">
<path fill="none" stroke="#63b8ff" d="M102.59,-48.68C114.46,-39.39 128.9,-28.09 138.85,-20.3"/>
<polygon fill="#63b8ff" stroke="#63b8ff" points="100.66,-45.74 94.95,-54.66 104.98,-51.25 100.66,-45.74"/>
</a>
</g>
</g>
<!-- Node5&#45;&gt;Node2 -->
<g id="edge6_Node000005_Node000002" class="edge">
<title>Node5&#45;&gt;Node2</title>
<g id="a_edge6_Node000005_Node000002"><a xlink:title=" ">
<path fill="none" stroke="#63b8ff" d="M198.88,-48.68C187.01,-39.39 172.57,-28.09 162.62,-20.3"/>
<polygon fill="#63b8ff" stroke="#63b8ff" points="196.49,-51.25 206.52,-54.66 200.81,-45.74 196.49,-51.25"/>
</a>
</g>
</g>
<!-- Node6&#45;&gt;Node2 -->
<g id="edge8_Node000006_Node000002" class="edge">
<title>Node6&#45;&gt;Node2</title>
<g id="a_edge8_Node000006_Node000002"><a xlink:title=" ">
<path fill="none" stroke="#63b8ff" d="M288.33,-101.7C295.02,-87.8 300.39,-69.25 290.73,-56 269.91,-27.43 230.64,-16.6 198.98,-12.68"/>
<polygon fill="#63b8ff" stroke="#63b8ff" points="285.34,-99.86 283.66,-110.32 291.5,-103.2 285.34,-99.86"/>
</a>
</g>
</g>
<!-- Node6&#45;&gt;Node5 -->
<g id="edge9_Node000006_Node000005" class="edge">
<title>Node6&#45;&gt;Node5</title>
<g id="a_edge9_Node000006_Node000005"><a xlink:title=" ">
<path fill="none" stroke="#63b8ff" d="M258.63,-103.85C248.99,-94.72 237.53,-83.86 229.55,-76.3"/>
<polygon fill="#63b8ff" stroke="#63b8ff" points="256.04,-106.22 265.71,-110.55 260.85,-101.13 256.04,-106.22"/>
</a>
</g>
</g>
</g>
</svg>
