<?xml version="1.0" encoding="UTF-8" standalone="no"?>
<!DOCTYPE svg PUBLIC "-//W3C//DTD SVG 1.1//EN"
 "http://www.w3.org/Graphics/SVG/1.1/DTD/svg11.dtd">
<!-- Generated by graphviz version 12.1.0 (20240811.2233)
 -->
<!-- Title: include/ADUL/exceptions.hpp Pages: 1 -->
<svg width="338pt" height="196pt"
 viewBox="0.00 0.00 338.02 196.00" xmlns="http://www.w3.org/2000/svg" xmlns:xlink="http://www.w3.org/1999/xlink">
<g id="graph0" class="graph" transform="scale(1 1) rotate(0) translate(4 192)">
<title>include/ADUL/exceptions.hpp</title>
<!-- Node1 -->
<g id="Node000001" class="node">
<title>Node1</title>
<g id="a_Node000001"><a xlink:title=" ">
<polygon fill="#999999" stroke="#666666" points="208.27,-188 62.52,-188 62.52,-168 208.27,-168 208.27,-188"/>
<text text-anchor="middle" x="135.4" y="-174.5" font-family="Helvetica,sans-Serif" font-size="10.00">include/ADUL/exceptions.hpp</text>
</a>
</g>
</g>
<!-- Node2 -->
<g id="Node000002" class="node">
<title>Node2</title>
<g id="a_Node000002"><a xlink:href="_a_d_u_l_8hpp.html" target="_top" xlink:title=" ">
<polygon fill="white" stroke="#666666" points="124.15,-20 28.65,-20 28.65,0 124.15,0 124.15,-20"/>
<text text-anchor="middle" x="76.4" y="-6.5" font-family="Helvetica,sans-Serif" font-size="10.00">include/ADUL.hpp</text>
</a>
</g>
</g>
<!-- Node1&#45;&gt;Node2 -->
<g id="edge1_Node000001_Node000002" class="edge">
<title>Node1&#45;&gt;Node2</title>
<g id="a_edge1_Node000001_Node000002"><a xlink:title=" ">
<path fill="none" stroke="#63b8ff" d="M53.48,-163.85C36.22,-157.15 20.04,-147.09 9.4,-132 2.46,-122.15 -7.55,-89.24 10.4,-56 19.36,-39.4 37.43,-27.74 52.4,-20.45"/>
<polygon fill="#63b8ff" stroke="#63b8ff" points="52.29,-167.14 62.89,-167.1 54.58,-160.53 52.29,-167.14"/>
</a>
</g>
</g>
<!-- Node3 -->
<g id="Node000003" class="node">
<title>Node3</title>
<g id="a_Node000003"><a xlink:href="_x_m_l_map_8hpp.html" target="_top" xlink:title=" ">
<polygon fill="white" stroke="#666666" points="156.15,-132 18.65,-132 18.65,-112 156.15,-112 156.15,-132"/>
<text text-anchor="middle" x="87.4" y="-118.5" font-family="Helvetica,sans-Serif" font-size="10.00">include/ADUL/XMLMap.hpp</text>
</a>
</g>
</g>
<!-- Node1&#45;&gt;Node3 -->
<g id="edge2_Node000001_Node000003" class="edge">
<title>Node1&#45;&gt;Node3</title>
<g id="a_edge2_Node000001_Node000003"><a xlink:title=" ">
<path fill="none" stroke="#63b8ff" d="M119.4,-159C111.45,-150.06 102.18,-139.62 95.66,-132.3"/>
<polygon fill="#63b8ff" stroke="#63b8ff" points="116.77,-161.31 126.03,-166.46 122,-156.66 116.77,-161.31"/>
</a>
</g>
</g>
<!-- Node5 -->
<g id="Node000005" class="node">
<title>Node5</title>
<g id="a_Node000005"><a xlink:href="logs_8hpp.html" target="_top" xlink:title=" ">
<polygon fill="white" stroke="#666666" points="268.65,-76 152.15,-76 152.15,-56 268.65,-56 268.65,-76"/>
<text text-anchor="middle" x="210.4" y="-62.5" font-family="Helvetica,sans-Serif" font-size="10.00">include/ADUL/logs.hpp</text>
</a>
</g>
</g>
<!-- Node1&#45;&gt;Node5 -->
<g id="edge5_Node000001_Node000005" class="edge">
<title>Node1&#45;&gt;Node5</title>
<g id="a_edge5_Node000001_Node000005"><a xlink:title=" ">
<path fill="none" stroke="#63b8ff" d="M148.17,-158.27C164.38,-134.5 191.69,-94.44 204.02,-76.35"/>
<polygon fill="#63b8ff" stroke="#63b8ff" points="145.39,-156.14 142.65,-166.37 151.17,-160.08 145.39,-156.14"/>
</a>
</g>
</g>
<!-- Node6 -->
<g id="Node000006" class="node">
<title>Node6</title>
<g id="a_Node000006"><a xlink:href="time_8hpp.html" target="_top" xlink:title=" ">
<polygon fill="white" stroke="#666666" points="330.02,-132 212.77,-132 212.77,-112 330.02,-112 330.02,-132"/>
<text text-anchor="middle" x="271.4" y="-118.5" font-family="Helvetica,sans-Serif" font-size="10.00">include/ADUL/time.hpp</text>
</a>
</g>
</g>
<!-- Node1&#45;&gt;Node6 -->
<g id="edge6_Node000001_Node000006" class="edge">
<title>Node1&#45;&gt;Node6</title>
<g id="a_edge6_Node000001_Node000006"><a xlink:title=" ">
<path fill="none" stroke="#63b8ff" d="M169.65,-163.4C193.95,-153.75 225.95,-141.05 247.52,-132.48"/>
<polygon fill="#63b8ff" stroke="#63b8ff" points="168.5,-160.09 160.49,-167.04 171.08,-166.6 168.5,-160.09"/>
</a>
</g>
</g>
<!-- Node4 -->
<g id="Node000004" class="node">
<title>Node4</title>
<g id="a_Node000004"><a xlink:href="atm_8hpp.html" target="_top" xlink:title=" ">
<polygon fill="white" stroke="#666666" points="133.9,-76 18.9,-76 18.9,-56 133.9,-56 133.9,-76"/>
<text text-anchor="middle" x="76.4" y="-62.5" font-family="Helvetica,sans-Serif" font-size="10.00">include/ADUL/atm.hpp</text>
</a>
</g>
</g>
<!-- Node3&#45;&gt;Node4 -->
<g id="edge3_Node000003_Node000004" class="edge">
<title>Node3&#45;&gt;Node4</title>
<g id="a_edge3_Node000003_Node000004"><a xlink:title=" ">
<path fill="none" stroke="#63b8ff" d="M83.21,-100.43C81.51,-92.11 79.64,-82.93 78.29,-76.3"/>
<polygon fill="#63b8ff" stroke="#63b8ff" points="79.75,-101.01 85.18,-110.11 86.61,-99.61 79.75,-101.01"/>
</a>
</g>
</g>
<!-- Node4&#45;&gt;Node2 -->
<g id="edge4_Node000004_Node000002" class="edge">
<title>Node4&#45;&gt;Node2</title>
<g id="a_edge4_Node000004_Node000002"><a xlink:title=" ">
<path fill="none" stroke="#63b8ff" d="M76.4,-44.13C76.4,-35.9 76.4,-26.85 76.4,-20.3"/>
<polygon fill="#63b8ff" stroke="#63b8ff" points="72.9,-44.08 76.4,-54.08 79.9,-44.08 72.9,-44.08"/>
</a>
</g>
</g>
<!-- Node6&#45;&gt;Node2 -->
<g id="edge7_Node000006_Node000002" class="edge">
<title>Node6&#45;&gt;Node2</title>
<g id="a_edge7_Node000006_Node000002"><a xlink:title=" ">
<path fill="none" stroke="#63b8ff" d="M279.87,-101.34C284.5,-87.24 287.47,-68.58 277.4,-56 258.57,-32.48 177.44,-20.43 124.19,-14.94"/>
<polygon fill="#63b8ff" stroke="#63b8ff" points="276.69,-99.88 276.39,-110.47 283.22,-102.38 276.69,-99.88"/>
</a>
</g>
</g>
<!-- Node6&#45;&gt;Node5 -->
<g id="edge8_Node000006_Node000005" class="edge">
<title>Node6&#45;&gt;Node5</title>
<g id="a_edge8_Node000006_Node000005"><a xlink:title=" ">
<path fill="none" stroke="#63b8ff" d="M252.34,-104.13C241.96,-94.94 229.53,-83.93 220.9,-76.3"/>
<polygon fill="#63b8ff" stroke="#63b8ff" points="249.83,-106.58 259.64,-110.59 254.47,-101.34 249.83,-106.58"/>
</a>
</g>
</g>
</g>
</svg>
