<?xml version="1.0" encoding="UTF-8" standalone="no"?>
<!DOCTYPE svg PUBLIC "-//W3C//DTD SVG 1.1//EN"
 "http://www.w3.org/Graphics/SVG/1.1/DTD/svg11.dtd">
<!-- Generated by graphviz version 2.49.3 (0)
 -->
<!-- Title: include/ADUL/exceptions.hpp Pages: 1 -->
<svg width="227pt" height="192pt"
 viewBox="0.00 0.00 227.00 192.00" xmlns="http://www.w3.org/2000/svg" xmlns:xlink="http://www.w3.org/1999/xlink">
<g id="graph0" class="graph" transform="scale(1 1) rotate(0) translate(4 188)">
<title>include/ADUL/exceptions.hpp</title>
<!-- Node1 -->
<g id="Node000001" class="node">
<title>Node1</title>
<g id="a_Node000001"><a xlink:title=" ">
<polygon fill="#999999" stroke="#666666" points="146,-184 0,-184 0,-165 146,-165 146,-184"/>
<text text-anchor="middle" x="73" y="-172" font-family="Helvetica,sans-Serif" font-size="10.00">include/ADUL/exceptions.hpp</text>
</a>
</g>
</g>
<!-- Node2 -->
<g id="Node000002" class="node">
<title>Node2</title>
<g id="a_Node000002"><a xlink:href="_a_d_u_l_8hpp.html" target="_top" xlink:title=" ">
<polygon fill="white" stroke="#666666" points="148,-19 52,-19 52,0 148,0 148,-19"/>
<text text-anchor="middle" x="100" y="-7" font-family="Helvetica,sans-Serif" font-size="10.00">include/ADUL.hpp</text>
</a>
</g>
</g>
<!-- Node1&#45;&gt;Node2 -->
<g id="edge1_Node000001_Node000002" class="edge">
<title>Node1&#45;&gt;Node2</title>
<g id="a_edge1_Node000001_Node000002"><a xlink:title=" ">
<path fill="none" stroke="#63b8ff" d="M58.03,-157.13C38.47,-133.64 8.82,-89.41 28,-55 37.8,-37.42 57.73,-25.91 74.15,-19.01"/>
<polygon fill="#63b8ff" stroke="#63b8ff" points="55.48,-159.53 64.68,-164.79 60.77,-154.94 55.48,-159.53"/>
</a>
</g>
</g>
<!-- Node3 -->
<g id="Node000003" class="node">
<title>Node3</title>
<g id="a_Node000003"><a xlink:href="logger_8hpp.html" target="_top" xlink:title=" ">
<polygon fill="white" stroke="#666666" points="162.5,-74 37.5,-74 37.5,-55 162.5,-55 162.5,-74"/>
<text text-anchor="middle" x="100" y="-62" font-family="Helvetica,sans-Serif" font-size="10.00">include/ADUL/logger.hpp</text>
</a>
</g>
</g>
<!-- Node1&#45;&gt;Node3 -->
<g id="edge2_Node000001_Node000003" class="edge">
<title>Node1&#45;&gt;Node3</title>
<g id="a_edge2_Node000001_Node000003"><a xlink:title=" ">
<path fill="none" stroke="#63b8ff" d="M77.67,-154.8C83.57,-131.2 93.48,-91.58 97.84,-74.16"/>
<polygon fill="#63b8ff" stroke="#63b8ff" points="74.24,-154.11 75.21,-164.66 81.03,-155.81 74.24,-154.11"/>
</a>
</g>
</g>
<!-- Node4 -->
<g id="Node000004" class="node">
<title>Node4</title>
<g id="a_Node000004"><a xlink:href="time_8hpp.html" target="_top" xlink:title=" ">
<polygon fill="white" stroke="#666666" points="219,-129 101,-129 101,-110 219,-110 219,-129"/>
<text text-anchor="middle" x="160" y="-117" font-family="Helvetica,sans-Serif" font-size="10.00">include/ADUL/time.hpp</text>
</a>
</g>
</g>
<!-- Node1&#45;&gt;Node4 -->
<g id="edge4_Node000001_Node000004" class="edge">
<title>Node1&#45;&gt;Node4</title>
<g id="a_edge4_Node000001_Node000004"><a xlink:title=" ">
<path fill="none" stroke="#63b8ff" d="M95.66,-159.7C111.51,-150.04 132.19,-137.44 145.77,-129.17"/>
<polygon fill="#63b8ff" stroke="#63b8ff" points="93.7,-156.79 86.98,-164.98 97.34,-162.77 93.7,-156.79"/>
</a>
</g>
</g>
<!-- Node3&#45;&gt;Node2 -->
<g id="edge3_Node000003_Node000002" class="edge">
<title>Node3&#45;&gt;Node2</title>
<g id="a_edge3_Node000003_Node000002"><a xlink:title=" ">
<path fill="none" stroke="#63b8ff" d="M100,-44.66C100,-35.93 100,-25.99 100,-19.09"/>
<polygon fill="#63b8ff" stroke="#63b8ff" points="96.5,-44.75 100,-54.75 103.5,-44.75 96.5,-44.75"/>
</a>
</g>
</g>
<!-- Node4&#45;&gt;Node2 -->
<g id="edge5_Node000004_Node000002" class="edge">
<title>Node4&#45;&gt;Node2</title>
<g id="a_edge5_Node000004_Node000002"><a xlink:title=" ">
<path fill="none" stroke="#63b8ff" d="M169.17,-100.22C174.47,-86.93 178.69,-68.9 171,-55 161.35,-37.56 141.69,-26.04 125.51,-19.1"/>
<polygon fill="#63b8ff" stroke="#63b8ff" points="165.82,-99.14 164.91,-109.69 172.21,-102.01 165.82,-99.14"/>
</a>
</g>
</g>
<!-- Node4&#45;&gt;Node3 -->
<g id="edge6_Node000004_Node000003" class="edge">
<title>Node4&#45;&gt;Node3</title>
<g id="a_edge6_Node000004_Node000003"><a xlink:title=" ">
<path fill="none" stroke="#63b8ff" d="M142.82,-103.32C132.12,-93.87 118.74,-82.06 109.82,-74.17"/>
<polygon fill="#63b8ff" stroke="#63b8ff" points="140.55,-105.99 150.36,-109.98 145.18,-100.74 140.55,-105.99"/>
</a>
</g>
</g>
</g>
</svg>
