<?xml version="1.0" encoding="UTF-8" standalone="no"?>
<!DOCTYPE svg PUBLIC "-//W3C//DTD SVG 1.1//EN"
 "http://www.w3.org/Graphics/SVG/1.1/DTD/svg11.dtd">
<!-- Generated by graphviz version 12.1.0 (20240811.2233)
 -->
<!-- Title: Graphical Class Hierarchy Pages: 1 -->
<svg width="410pt" height="103pt"
 viewBox="0.00 0.00 410.00 103.00" xmlns="http://www.w3.org/2000/svg" xmlns:xlink="http://www.w3.org/1999/xlink">
<g id="graph0" class="graph" transform="scale(1 1) rotate(0) translate(4 99)">
<title>Graphical Class Hierarchy</title>
<!-- Node0 -->
<g id="Node000000" class="node">
<title>Node0</title>
<g id="a_Node000000"><a xlink:title=" ">
<polygon fill="#e0e0e0" stroke="#999999" points="77.5,-42 0,-42 0,-22 77.5,-22 77.5,-42"/>
<text text-anchor="middle" x="38.75" y="-28.5" font-family="Helvetica,sans-Serif" font-size="10.00">std::exception</text>
</a>
</g>
</g>
<!-- Node1 -->
<g id="Node000001" class="node">
<title>Node1</title>
<g id="a_Node000001"><a xlink:href="classadul_1_1exceptions_1_1_failed_x_m_l_file.html" target="_top" xlink:title="represents failure with working with XML file">
<polygon fill="white" stroke="#666666" points="239.75,-70 120.25,-70 120.25,-38 239.75,-38 239.75,-70"/>
<text text-anchor="start" x="128.25" y="-56.5" font-family="Helvetica,sans-Serif" font-size="10.00">adul::exceptions::Failed</text>
<text text-anchor="middle" x="180" y="-44.5" font-family="Helvetica,sans-Serif" font-size="10.00">XMLFile</text>
</a>
</g>
</g>
<!-- Node0&#45;&gt;Node1 -->
<g id="edge1_Node000000_Node000001" class="edge">
<title>Node0&#45;&gt;Node1</title>
<g id="a_edge1_Node000000_Node000001"><a xlink:title=" ">
<path fill="none" stroke="#63b8ff" d="M89.12,-39.8C99.05,-41.37 109.58,-43.03 119.81,-44.65"/>
<polygon fill="#63b8ff" stroke="#63b8ff" points="89.72,-36.35 79.3,-38.25 88.63,-43.27 89.72,-36.35"/>
</a>
</g>
</g>
<!-- Node4 -->
<g id="Node000004" class="node">
<title>Node4</title>
<g id="a_Node000004"><a xlink:href="classadul_1_1exceptions_1_1_message.html" target="_top" xlink:title="modified std::exception class &#160;The only difference is that you define message by yourself when create...">
<polygon fill="white" stroke="#666666" points="246.5,-20 113.5,-20 113.5,0 246.5,0 246.5,-20"/>
<text text-anchor="middle" x="180" y="-6.5" font-family="Helvetica,sans-Serif" font-size="10.00">adul::exceptions::Message</text>
</a>
</g>
</g>
<!-- Node0&#45;&gt;Node4 -->
<g id="edge4_Node000000_Node000004" class="edge">
<title>Node0&#45;&gt;Node4</title>
<g id="a_edge4_Node000000_Node000004"><a xlink:title=" ">
<path fill="none" stroke="#63b8ff" d="M88.96,-24.23C96.79,-22.99 105,-21.69 113.15,-20.4"/>
<polygon fill="#63b8ff" stroke="#63b8ff" points="88.63,-20.73 79.3,-25.75 89.72,-27.65 88.63,-20.73"/>
</a>
</g>
</g>
<!-- Node2 -->
<g id="Node000002" class="node">
<title>Node2</title>
<g id="a_Node000002"><a xlink:href="classadul_1_1exceptions_1_1_failed_reading_x_m_l_file.html" target="_top" xlink:title="represents failure with reading from XML file">
<polygon fill="white" stroke="#666666" points="402,-95 282.5,-95 282.5,-63 402,-63 402,-95"/>
<text text-anchor="start" x="290.5" y="-81.5" font-family="Helvetica,sans-Serif" font-size="10.00">adul::exceptions::Failed</text>
<text text-anchor="middle" x="342.25" y="-69.5" font-family="Helvetica,sans-Serif" font-size="10.00">ReadingXMLFile</text>
</a>
</g>
</g>
<!-- Node1&#45;&gt;Node2 -->
<g id="edge2_Node000001_Node000002" class="edge">
<title>Node1&#45;&gt;Node2</title>
<g id="a_edge2_Node000001_Node000002"><a xlink:title=" ">
<path fill="none" stroke="#63b8ff" d="M251.57,-65.01C261.73,-66.59 272.1,-68.21 282.01,-69.76"/>
<polygon fill="#63b8ff" stroke="#63b8ff" points="252.13,-61.55 241.71,-63.47 251.05,-68.47 252.13,-61.55"/>
</a>
</g>
</g>
<!-- Node3 -->
<g id="Node000003" class="node">
<title>Node3</title>
<g id="a_Node000003"><a xlink:href="classadul_1_1exceptions_1_1_failed_writing_x_m_l_file.html" target="_top" xlink:title="represents failure with writing to XML file">
<polygon fill="white" stroke="#666666" points="402,-45 282.5,-45 282.5,-13 402,-13 402,-45"/>
<text text-anchor="start" x="290.5" y="-31.5" font-family="Helvetica,sans-Serif" font-size="10.00">adul::exceptions::Failed</text>
<text text-anchor="middle" x="342.25" y="-19.5" font-family="Helvetica,sans-Serif" font-size="10.00">WritingXMLFile</text>
</a>
</g>
</g>
<!-- Node1&#45;&gt;Node3 -->
<g id="edge3_Node000001_Node000003" class="edge">
<title>Node1&#45;&gt;Node3</title>
<g id="a_edge3_Node000001_Node000003"><a xlink:title=" ">
<path fill="none" stroke="#63b8ff" d="M251.57,-42.99C261.73,-41.41 272.1,-39.79 282.01,-38.24"/>
<polygon fill="#63b8ff" stroke="#63b8ff" points="251.05,-39.53 241.71,-44.53 252.13,-46.45 251.05,-39.53"/>
</a>
</g>
</g>
</g>
</svg>
