<?xml version="1.0" encoding="UTF-8" standalone="no"?>
<!DOCTYPE svg PUBLIC "-//W3C//DTD SVG 1.1//EN"
 "http://www.w3.org/Graphics/SVG/1.1/DTD/svg11.dtd">
<!-- Generated by graphviz version 2.49.3 (0)
 -->
<!-- Title: Graphical Class Hierarchy Pages: 1 -->
<svg width="409pt" height="100pt"
 viewBox="0.00 0.00 409.00 99.50" xmlns="http://www.w3.org/2000/svg" xmlns:xlink="http://www.w3.org/1999/xlink">
<g id="graph0" class="graph" transform="scale(1 1) rotate(0) translate(4 95.5)">
<title>Graphical Class Hierarchy</title>
<!-- Node0 -->
<g id="Node000000" class="node">
<title>Node0</title>
<g id="a_Node000000"><a xlink:title=" ">
<polygon fill="#e0e0e0" stroke="#999999" points="77,-40 0,-40 0,-21 77,-21 77,-40"/>
<text text-anchor="middle" x="38.5" y="-28" font-family="Helvetica,sans-Serif" font-size="10.00">std::exception</text>
</a>
</g>
</g>
<!-- Node1 -->
<g id="Node000001" class="node">
<title>Node1</title>
<g id="a_Node000001"><a xlink:href="classadul_1_1exceptions_1_1_failed_x_m_l_file.html" target="_top" xlink:title="represents failure with working with XML file">
<polygon fill="white" stroke="#666666" points="239,-67.5 120,-67.5 120,-37.5 239,-37.5 239,-67.5"/>
<text text-anchor="start" x="128" y="-55.5" font-family="Helvetica,sans-Serif" font-size="10.00">adul::exceptions::Failed</text>
<text text-anchor="middle" x="179.5" y="-44.5" font-family="Helvetica,sans-Serif" font-size="10.00">XMLFile</text>
</a>
</g>
</g>
<!-- Node0&#45;&gt;Node1 -->
<g id="edge1_Node000000_Node000001" class="edge">
<title>Node0&#45;&gt;Node1</title>
<g id="a_edge1_Node000000_Node000001"><a xlink:title=" ">
<path fill="none" stroke="#8b1a1a" d="M87,-38.02C97.6,-39.7 108.95,-41.49 119.93,-43.23"/>
<polygon fill="#8b1a1a" stroke="#8b1a1a" points="87.54,-34.56 77.12,-36.45 86.45,-41.47 87.54,-34.56"/>
</a>
</g>
</g>
<!-- Node4 -->
<g id="Node000004" class="node">
<title>Node4</title>
<g id="a_Node000004"><a xlink:href="classadul_1_1exceptions_1_1_message.html" target="_top" xlink:title="modified std::exception class &#160;The only difference is that you define message by yourself when create...">
<polygon fill="white" stroke="#666666" points="246,-19 113,-19 113,0 246,0 246,-19"/>
<text text-anchor="middle" x="179.5" y="-7" font-family="Helvetica,sans-Serif" font-size="10.00">adul::exceptions::Message</text>
</a>
</g>
</g>
<!-- Node0&#45;&gt;Node4 -->
<g id="edge4_Node000000_Node000004" class="edge">
<title>Node0&#45;&gt;Node4</title>
<g id="a_edge4_Node000000_Node000004"><a xlink:title=" ">
<path fill="none" stroke="#8b1a1a" d="M87.12,-23.3C96.23,-21.93 105.9,-20.47 115.41,-19.03"/>
<polygon fill="#8b1a1a" stroke="#8b1a1a" points="86.48,-19.86 77.12,-24.82 87.53,-26.78 86.48,-19.86"/>
</a>
</g>
</g>
<!-- Node2 -->
<g id="Node000002" class="node">
<title>Node2</title>
<g id="a_Node000002"><a xlink:href="classadul_1_1exceptions_1_1_failed_reading_x_m_l_file.html" target="_top" xlink:title="represents failure with reading from XML file">
<polygon fill="white" stroke="#666666" points="401,-91.5 282,-91.5 282,-61.5 401,-61.5 401,-91.5"/>
<text text-anchor="start" x="290" y="-79.5" font-family="Helvetica,sans-Serif" font-size="10.00">adul::exceptions::Failed</text>
<text text-anchor="middle" x="341.5" y="-68.5" font-family="Helvetica,sans-Serif" font-size="10.00">ReadingXMLFile</text>
</a>
</g>
</g>
<!-- Node1&#45;&gt;Node2 -->
<g id="edge2_Node000001_Node000002" class="edge">
<title>Node1&#45;&gt;Node2</title>
<g id="a_edge2_Node000001_Node000002"><a xlink:title=" ">
<path fill="none" stroke="darkgreen" d="M249.08,-62.79C259.99,-64.42 271.19,-66.1 281.84,-67.7"/>
<polygon fill="darkgreen" stroke="darkgreen" points="249.58,-59.32 239.17,-61.3 248.54,-66.25 249.58,-59.32"/>
</a>
</g>
</g>
<!-- Node3 -->
<g id="Node000003" class="node">
<title>Node3</title>
<g id="a_Node000003"><a xlink:href="classadul_1_1exceptions_1_1_failed_writing_x_m_l_file.html" target="_top" xlink:title="represents failure with writing to XML file">
<polygon fill="white" stroke="#666666" points="401,-43.5 282,-43.5 282,-13.5 401,-13.5 401,-43.5"/>
<text text-anchor="start" x="290" y="-31.5" font-family="Helvetica,sans-Serif" font-size="10.00">adul::exceptions::Failed</text>
<text text-anchor="middle" x="341.5" y="-20.5" font-family="Helvetica,sans-Serif" font-size="10.00">WritingXMLFile</text>
</a>
</g>
</g>
<!-- Node1&#45;&gt;Node3 -->
<g id="edge3_Node000001_Node000003" class="edge">
<title>Node1&#45;&gt;Node3</title>
<g id="a_edge3_Node000001_Node000003"><a xlink:title=" ">
<path fill="none" stroke="#8b1a1a" d="M249.08,-42.21C259.99,-40.58 271.19,-38.9 281.84,-37.3"/>
<polygon fill="#8b1a1a" stroke="#8b1a1a" points="248.54,-38.75 239.17,-43.7 249.58,-45.68 248.54,-38.75"/>
</a>
</g>
</g>
</g>
</svg>
