<?xml version="1.0" encoding="UTF-8" standalone="no"?>
<!DOCTYPE svg PUBLIC "-//W3C//DTD SVG 1.1//EN"
 "http://www.w3.org/Graphics/SVG/1.1/DTD/svg11.dtd">
<!-- Generated by graphviz version 2.49.3 (0)
 -->
<!-- Title: include/ADUL/logger.hpp Pages: 1 -->
<svg width="324pt" height="192pt"
 viewBox="0.00 0.00 324.36 192.00" xmlns="http://www.w3.org/2000/svg" xmlns:xlink="http://www.w3.org/1999/xlink">
<g id="graph0" class="graph" transform="scale(1 1) rotate(0) translate(4 188)">
<title>include/ADUL/logger.hpp</title>
<!-- Node1 -->
<g id="Node000001" class="node">
<title>Node1</title>
<g id="a_Node000001"><a xlink:title=" ">
<polygon fill="#999999" stroke="#666666" points="189.86,-184 64.86,-184 64.86,-165 189.86,-165 189.86,-184"/>
<text text-anchor="middle" x="127.36" y="-172" font-family="Helvetica,sans-Serif" font-size="10.00">include/ADUL/logger.hpp</text>
</a>
</g>
</g>
<!-- Node2 -->
<g id="Node000002" class="node">
<title>Node2</title>
<g id="a_Node000002"><a xlink:title=" ">
<polygon fill="#e0e0e0" stroke="#999999" points="123.86,-19 82.86,-19 82.86,0 123.86,0 123.86,-19"/>
<text text-anchor="middle" x="103.36" y="-7" font-family="Helvetica,sans-Serif" font-size="10.00">string</text>
</a>
</g>
</g>
<!-- Node1&#45;&gt;Node2 -->
<g id="edge1_Node000001_Node000002" class="edge">
<title>Node1&#45;&gt;Node2</title>
<g id="a_edge1_Node000001_Node000002"><a xlink:title=" ">
<path fill="none" stroke="#63b8ff" d="M64.64,-165.13C42.83,-158.87 20.55,-147.97 7.36,-129 -20.38,-89.13 40.93,-45.55 77.91,-24.05"/>
<polygon fill="#63b8ff" stroke="#63b8ff" points="79.73,-27.04 86.72,-19.08 76.29,-20.94 79.73,-27.04"/>
</a>
</g>
</g>
<!-- Node3 -->
<g id="Node000003" class="node">
<title>Node3</title>
<g id="a_Node000003"><a xlink:title=" ">
<polygon fill="#e0e0e0" stroke="#999999" points="70.36,-129 16.36,-129 16.36,-110 70.36,-110 70.36,-129"/>
<text text-anchor="middle" x="43.36" y="-117" font-family="Helvetica,sans-Serif" font-size="10.00">iostream</text>
</a>
</g>
</g>
<!-- Node1&#45;&gt;Node3 -->
<g id="edge2_Node000001_Node000003" class="edge">
<title>Node1&#45;&gt;Node3</title>
<g id="a_edge2_Node000001_Node000003"><a xlink:title=" ">
<path fill="none" stroke="#63b8ff" d="M113.86,-164.98C100.95,-156.84 81.25,-144.41 65.95,-134.76"/>
<polygon fill="#63b8ff" stroke="#63b8ff" points="67.42,-131.55 57.1,-129.17 63.69,-137.47 67.42,-131.55"/>
</a>
</g>
</g>
<!-- Node4 -->
<g id="Node000004" class="node">
<title>Node4</title>
<g id="a_Node000004"><a xlink:title=" ">
<polygon fill="#e0e0e0" stroke="#999999" points="130.86,-74 87.86,-74 87.86,-55 130.86,-55 130.86,-74"/>
<text text-anchor="middle" x="109.36" y="-62" font-family="Helvetica,sans-Serif" font-size="10.00">vector</text>
</a>
</g>
</g>
<!-- Node1&#45;&gt;Node4 -->
<g id="edge3_Node000001_Node000004" class="edge">
<title>Node1&#45;&gt;Node4</title>
<g id="a_edge3_Node000001_Node000004"><a xlink:title=" ">
<path fill="none" stroke="#63b8ff" d="M125.11,-164.68C122.9,-155.74 119.54,-141.48 117.36,-129 114.75,-114.08 112.65,-97.05 111.26,-84.39"/>
<polygon fill="#63b8ff" stroke="#63b8ff" points="114.71,-83.75 110.18,-74.17 107.75,-84.48 114.71,-83.75"/>
</a>
</g>
</g>
<!-- Node5 -->
<g id="Node000005" class="node">
<title>Node5</title>
<g id="a_Node000005"><a xlink:title=" ">
<polygon fill="#e0e0e0" stroke="#999999" points="185.86,-129 126.86,-129 126.86,-110 185.86,-110 185.86,-129"/>
<text text-anchor="middle" x="156.36" y="-117" font-family="Helvetica,sans-Serif" font-size="10.00">functional</text>
</a>
</g>
</g>
<!-- Node1&#45;&gt;Node5 -->
<g id="edge4_Node000001_Node000005" class="edge">
<title>Node1&#45;&gt;Node5</title>
<g id="a_edge4_Node000001_Node000005"><a xlink:title=" ">
<path fill="none" stroke="#63b8ff" d="M132.14,-164.75C136.11,-157.49 141.88,-146.95 146.79,-137.98"/>
<polygon fill="#63b8ff" stroke="#63b8ff" points="149.93,-139.54 151.66,-129.09 143.78,-136.18 149.93,-139.54"/>
</a>
</g>
</g>
<!-- Node6 -->
<g id="Node000006" class="node">
<title>Node6</title>
<g id="a_Node000006"><a xlink:href="time_8hpp.html" target="_top" xlink:title=" ">
<polygon fill="white" stroke="#666666" points="258.36,-129 204.36,-129 204.36,-110 258.36,-110 258.36,-129"/>
<text text-anchor="middle" x="231.36" y="-117" font-family="Helvetica,sans-Serif" font-size="10.00">time.hpp</text>
</a>
</g>
</g>
<!-- Node1&#45;&gt;Node6 -->
<g id="edge5_Node000001_Node000006" class="edge">
<title>Node1&#45;&gt;Node6</title>
<g id="a_edge5_Node000001_Node000006"><a xlink:title=" ">
<path fill="none" stroke="#63b8ff" d="M144.06,-164.98C160.57,-156.57 186.05,-143.59 205.23,-133.81"/>
<polygon fill="#63b8ff" stroke="#63b8ff" points="207.02,-136.83 214.34,-129.17 203.84,-130.59 207.02,-136.83"/>
</a>
</g>
</g>
<!-- Node8 -->
<g id="Node000008" class="node">
<title>Node8</title>
<g id="a_Node000008"><a xlink:href="exceptions_8hpp.html" target="_top" xlink:title=" ">
<polygon fill="white" stroke="#666666" points="316.36,-74 234.36,-74 234.36,-55 316.36,-55 316.36,-74"/>
<text text-anchor="middle" x="275.36" y="-62" font-family="Helvetica,sans-Serif" font-size="10.00">exceptions.hpp</text>
</a>
</g>
</g>
<!-- Node1&#45;&gt;Node8 -->
<g id="edge11_Node000001_Node000008" class="edge">
<title>Node1&#45;&gt;Node8</title>
<g id="a_edge11_Node000001_Node000008"><a xlink:title=" ">
<path fill="none" stroke="#63b8ff" d="M190.19,-168.53C217.91,-163.01 248.43,-151.74 267.36,-129 277.57,-116.72 278.84,-98.21 277.98,-84.34"/>
<polygon fill="#63b8ff" stroke="#63b8ff" points="281.43,-83.6 276.92,-74.01 274.46,-84.32 281.43,-83.6"/>
</a>
</g>
</g>
<!-- Node6&#45;&gt;Node4 -->
<g id="edge7_Node000006_Node000004" class="edge">
<title>Node6&#45;&gt;Node4</title>
<g id="a_edge7_Node000006_Node000004"><a xlink:title=" ">
<path fill="none" stroke="#63b8ff" d="M211.75,-109.98C192.04,-101.42 161.4,-88.11 138.77,-78.28"/>
<polygon fill="#63b8ff" stroke="#63b8ff" points="139.88,-74.94 129.31,-74.17 137.09,-81.37 139.88,-74.94"/>
</a>
</g>
</g>
<!-- Node7 -->
<g id="Node000007" class="node">
<title>Node7</title>
<g id="a_Node000007"><a xlink:title=" ">
<polygon fill="#e0e0e0" stroke="#999999" points="216.36,-74 170.36,-74 170.36,-55 216.36,-55 216.36,-74"/>
<text text-anchor="middle" x="193.36" y="-62" font-family="Helvetica,sans-Serif" font-size="10.00">chrono</text>
</a>
</g>
</g>
<!-- Node6&#45;&gt;Node7 -->
<g id="edge6_Node000006_Node000007" class="edge">
<title>Node6&#45;&gt;Node7</title>
<g id="a_edge6_Node000006_Node000007"><a xlink:title=" ">
<path fill="none" stroke="#63b8ff" d="M225.08,-109.75C219.77,-102.34 212,-91.5 205.48,-82.41"/>
<polygon fill="#63b8ff" stroke="#63b8ff" points="208.18,-80.18 199.51,-74.09 202.5,-84.26 208.18,-80.18"/>
</a>
</g>
</g>
<!-- Node6&#45;&gt;Node8 -->
<g id="edge8_Node000006_Node000008" class="edge">
<title>Node6&#45;&gt;Node8</title>
<g id="a_edge8_Node000006_Node000008"><a xlink:title=" ">
<path fill="none" stroke="#63b8ff" d="M238.62,-109.75C244.9,-102.18 254.14,-91.05 261.79,-81.84"/>
<polygon fill="#63b8ff" stroke="#63b8ff" points="264.53,-84.02 268.22,-74.09 259.14,-79.55 264.53,-84.02"/>
</a>
</g>
</g>
<!-- Node8&#45;&gt;Node2 -->
<g id="edge10_Node000008_Node000002" class="edge">
<title>Node8&#45;&gt;Node2</title>
<g id="a_edge10_Node000008_Node000002"><a xlink:title=" ">
<path fill="none" stroke="#63b8ff" d="M247.72,-54.98C216.53,-45.37 165.95,-29.79 133.69,-19.85"/>
<polygon fill="#63b8ff" stroke="#63b8ff" points="134.49,-16.43 123.9,-16.83 132.43,-23.12 134.49,-16.43"/>
</a>
</g>
</g>
<!-- Node9 -->
<g id="Node000009" class="node">
<title>Node9</title>
<g id="a_Node000009"><a xlink:title=" ">
<polygon fill="#e0e0e0" stroke="#999999" points="304.36,-19 246.36,-19 246.36,0 304.36,0 304.36,-19"/>
<text text-anchor="middle" x="275.36" y="-7" font-family="Helvetica,sans-Serif" font-size="10.00">exception</text>
</a>
</g>
</g>
<!-- Node8&#45;&gt;Node9 -->
<g id="edge9_Node000008_Node000009" class="edge">
<title>Node8&#45;&gt;Node9</title>
<g id="a_edge9_Node000008_Node000009"><a xlink:title=" ">
<path fill="none" stroke="#63b8ff" d="M275.36,-54.75C275.36,-47.8 275.36,-37.85 275.36,-29.13"/>
<polygon fill="#63b8ff" stroke="#63b8ff" points="278.86,-29.09 275.36,-19.09 271.86,-29.09 278.86,-29.09"/>
</a>
</g>
</g>
</g>
</svg>
