<?xml version="1.0" encoding="UTF-8" standalone="no"?>
<!DOCTYPE svg PUBLIC "-//W3C//DTD SVG 1.1//EN"
 "http://www.w3.org/Graphics/SVG/1.1/DTD/svg11.dtd">
<!-- Generated by graphviz version 12.1.0 (20240811.2233)
 -->
<!-- Title: include/ADUL/logs.hpp Pages: 1 -->
<svg width="322pt" height="196pt"
 viewBox="0.00 0.00 322.41 196.00" xmlns="http://www.w3.org/2000/svg" xmlns:xlink="http://www.w3.org/1999/xlink">
<g id="graph0" class="graph" transform="scale(1 1) rotate(0) translate(4 192)">
<title>include/ADUL/logs.hpp</title>
<!-- Node1 -->
<g id="Node000001" class="node">
<title>Node1</title>
<g id="a_Node000001"><a xlink:title=" ">
<polygon fill="#999999" stroke="#666666" points="184.66,-188 68.16,-188 68.16,-168 184.66,-168 184.66,-188"/>
<text text-anchor="middle" x="126.41" y="-174.5" font-family="Helvetica,sans-Serif" font-size="10.00">include/ADUL/logs.hpp</text>
</a>
</g>
</g>
<!-- Node2 -->
<g id="Node000002" class="node">
<title>Node2</title>
<g id="a_Node000002"><a xlink:title=" ">
<polygon fill="#e0e0e0" stroke="#999999" points="122.41,-20 82.41,-20 82.41,0 122.41,0 122.41,-20"/>
<text text-anchor="middle" x="102.41" y="-6.5" font-family="Helvetica,sans-Serif" font-size="10.00">string</text>
</a>
</g>
</g>
<!-- Node1&#45;&gt;Node2 -->
<g id="edge1_Node000001_Node000002" class="edge">
<title>Node1&#45;&gt;Node2</title>
<g id="a_edge1_Node000001_Node000002"><a xlink:title=" ">
<path fill="none" stroke="#63b8ff" d="M67.92,-169.29C45.13,-163.11 21.22,-151.99 7.41,-132 -19.93,-92.43 38.2,-48.66 75.08,-26.18"/>
<polygon fill="#63b8ff" stroke="#63b8ff" points="76.7,-29.29 83.53,-21.19 73.14,-23.26 76.7,-29.29"/>
</a>
</g>
</g>
<!-- Node3 -->
<g id="Node000003" class="node">
<title>Node3</title>
<g id="a_Node000003"><a xlink:title=" ">
<polygon fill="#e0e0e0" stroke="#999999" points="70.16,-132 16.66,-132 16.66,-112 70.16,-112 70.16,-132"/>
<text text-anchor="middle" x="43.41" y="-118.5" font-family="Helvetica,sans-Serif" font-size="10.00">iostream</text>
</a>
</g>
</g>
<!-- Node1&#45;&gt;Node3 -->
<g id="edge2_Node000001_Node000003" class="edge">
<title>Node1&#45;&gt;Node3</title>
<g id="a_edge2_Node000001_Node000003"><a xlink:title=" ">
<path fill="none" stroke="#63b8ff" d="M111.95,-167.59C99.65,-159.59 81.73,-147.93 67.3,-138.54"/>
<polygon fill="#63b8ff" stroke="#63b8ff" points="69.54,-135.82 59.25,-133.3 65.72,-141.69 69.54,-135.82"/>
</a>
</g>
</g>
<!-- Node4 -->
<g id="Node000004" class="node">
<title>Node4</title>
<g id="a_Node000004"><a xlink:title=" ">
<polygon fill="#e0e0e0" stroke="#999999" points="129.91,-76 86.91,-76 86.91,-56 129.91,-56 129.91,-76"/>
<text text-anchor="middle" x="108.41" y="-62.5" font-family="Helvetica,sans-Serif" font-size="10.00">vector</text>
</a>
</g>
</g>
<!-- Node1&#45;&gt;Node4 -->
<g id="edge3_Node000001_Node000004" class="edge">
<title>Node1&#45;&gt;Node4</title>
<g id="a_edge3_Node000001_Node000004"><a xlink:title=" ">
<path fill="none" stroke="#63b8ff" d="M124.39,-167.72C122.44,-158.64 119.51,-144.41 117.41,-132 114.9,-117.17 112.59,-100.35 110.93,-87.54"/>
<polygon fill="#63b8ff" stroke="#63b8ff" points="114.43,-87.27 109.71,-77.79 107.48,-88.14 114.43,-87.27"/>
</a>
</g>
</g>
<!-- Node5 -->
<g id="Node000005" class="node">
<title>Node5</title>
<g id="a_Node000005"><a xlink:title=" ">
<polygon fill="#e0e0e0" stroke="#999999" points="184.41,-132 126.41,-132 126.41,-112 184.41,-112 184.41,-132"/>
<text text-anchor="middle" x="155.41" y="-118.5" font-family="Helvetica,sans-Serif" font-size="10.00">functional</text>
</a>
</g>
</g>
<!-- Node1&#45;&gt;Node5 -->
<g id="edge4_Node000001_Node000005" class="edge">
<title>Node1&#45;&gt;Node5</title>
<g id="a_edge4_Node000001_Node000005"><a xlink:title=" ">
<path fill="none" stroke="#63b8ff" d="M131.46,-167.59C135.2,-160.63 140.43,-150.89 145.05,-142.29"/>
<polygon fill="#63b8ff" stroke="#63b8ff" points="148.05,-144.1 149.7,-133.63 141.89,-140.79 148.05,-144.1"/>
</a>
</g>
</g>
<!-- Node6 -->
<g id="Node000006" class="node">
<title>Node6</title>
<g id="a_Node000006"><a xlink:href="time_8hpp.html" target="_top" xlink:title=" ">
<polygon fill="white" stroke="#666666" points="256.16,-132 202.66,-132 202.66,-112 256.16,-112 256.16,-132"/>
<text text-anchor="middle" x="229.41" y="-118.5" font-family="Helvetica,sans-Serif" font-size="10.00">time.hpp</text>
</a>
</g>
</g>
<!-- Node1&#45;&gt;Node6 -->
<g id="edge5_Node000001_Node000006" class="edge">
<title>Node1&#45;&gt;Node6</title>
<g id="a_edge5_Node000001_Node000006"><a xlink:title=" ">
<path fill="none" stroke="#63b8ff" d="M144.35,-167.59C160.06,-159.36 183.14,-147.26 201.3,-137.74"/>
<polygon fill="#63b8ff" stroke="#63b8ff" points="202.76,-140.93 209.99,-133.18 199.51,-134.73 202.76,-140.93"/>
</a>
</g>
</g>
<!-- Node8 -->
<g id="Node000008" class="node">
<title>Node8</title>
<g id="a_Node000008"><a xlink:href="exceptions_8hpp.html" target="_top" xlink:title=" ">
<polygon fill="white" stroke="#666666" points="314.41,-76 232.41,-76 232.41,-56 314.41,-56 314.41,-76"/>
<text text-anchor="middle" x="273.41" y="-62.5" font-family="Helvetica,sans-Serif" font-size="10.00">exceptions.hpp</text>
</a>
</g>
</g>
<!-- Node1&#45;&gt;Node8 -->
<g id="edge11_Node000001_Node000008" class="edge">
<title>Node1&#45;&gt;Node8</title>
<g id="a_edge11_Node000001_Node000008"><a xlink:title=" ">
<path fill="none" stroke="#63b8ff" d="M184.95,-172.47C213.48,-167.11 245.79,-155.77 265.41,-132 275.5,-119.78 276.97,-101.61 276.22,-87.58"/>
<polygon fill="#63b8ff" stroke="#63b8ff" points="279.71,-87.27 275.24,-77.66 272.74,-87.96 279.71,-87.27"/>
</a>
</g>
</g>
<!-- Node6&#45;&gt;Node4 -->
<g id="edge7_Node000006_Node000004" class="edge">
<title>Node6&#45;&gt;Node4</title>
<g id="a_edge7_Node000006_Node000004"><a xlink:title=" ">
<path fill="none" stroke="#63b8ff" d="M208.33,-111.59C189.45,-103.17 161.49,-90.69 139.95,-81.07"/>
<polygon fill="#63b8ff" stroke="#63b8ff" points="141.59,-77.98 131.03,-77.1 138.74,-84.37 141.59,-77.98"/>
</a>
</g>
</g>
<!-- Node7 -->
<g id="Node000007" class="node">
<title>Node7</title>
<g id="a_Node000007"><a xlink:title=" ">
<polygon fill="#e0e0e0" stroke="#999999" points="214.03,-76 168.78,-76 168.78,-56 214.03,-56 214.03,-76"/>
<text text-anchor="middle" x="191.41" y="-62.5" font-family="Helvetica,sans-Serif" font-size="10.00">chrono</text>
</a>
</g>
</g>
<!-- Node6&#45;&gt;Node7 -->
<g id="edge6_Node000006_Node000007" class="edge">
<title>Node6&#45;&gt;Node7</title>
<g id="a_edge6_Node000006_Node000007"><a xlink:title=" ">
<path fill="none" stroke="#63b8ff" d="M222.79,-111.59C217.72,-104.39 210.57,-94.23 204.38,-85.43"/>
<polygon fill="#63b8ff" stroke="#63b8ff" points="207.44,-83.7 198.82,-77.54 201.72,-87.73 207.44,-83.7"/>
</a>
</g>
</g>
<!-- Node6&#45;&gt;Node8 -->
<g id="edge8_Node000006_Node000008" class="edge">
<title>Node6&#45;&gt;Node8</title>
<g id="a_edge8_Node000006_Node000008"><a xlink:title=" ">
<path fill="none" stroke="#63b8ff" d="M237.07,-111.59C243,-104.32 251.4,-94.02 258.62,-85.15"/>
<polygon fill="#63b8ff" stroke="#63b8ff" points="261.27,-87.43 264.88,-77.47 255.85,-83.01 261.27,-87.43"/>
</a>
</g>
</g>
<!-- Node8&#45;&gt;Node2 -->
<g id="edge10_Node000008_Node000002" class="edge">
<title>Node8&#45;&gt;Node2</title>
<g id="a_edge10_Node000008_Node000002"><a xlink:title=" ">
<path fill="none" stroke="#63b8ff" d="M243.62,-55.59C212.77,-45.85 164.78,-30.7 133.47,-20.81"/>
<polygon fill="#63b8ff" stroke="#63b8ff" points="134.78,-17.55 124.19,-17.88 132.67,-24.23 134.78,-17.55"/>
</a>
</g>
</g>
<!-- Node9 -->
<g id="Node000009" class="node">
<title>Node9</title>
<g id="a_Node000009"><a xlink:title=" ">
<polygon fill="#e0e0e0" stroke="#999999" points="302.41,-20 244.41,-20 244.41,0 302.41,0 302.41,-20"/>
<text text-anchor="middle" x="273.41" y="-6.5" font-family="Helvetica,sans-Serif" font-size="10.00">exception</text>
</a>
</g>
</g>
<!-- Node8&#45;&gt;Node9 -->
<g id="edge9_Node000008_Node000009" class="edge">
<title>Node8&#45;&gt;Node9</title>
<g id="a_edge9_Node000008_Node000009"><a xlink:title=" ">
<path fill="none" stroke="#63b8ff" d="M273.41,-55.59C273.41,-49.01 273.41,-39.96 273.41,-31.73"/>
<polygon fill="#63b8ff" stroke="#63b8ff" points="276.91,-31.81 273.41,-21.81 269.91,-31.81 276.91,-31.81"/>
</a>
</g>
</g>
</g>
</svg>
