<?xml version="1.0" encoding="UTF-8" standalone="no"?>
<!DOCTYPE svg PUBLIC "-//W3C//DTD SVG 1.1//EN"
 "http://www.w3.org/Graphics/SVG/1.1/DTD/svg11.dtd">
<!-- Generated by graphviz version 12.1.0 (20240811.2233)
 -->
<!-- Title: include/ADUL/smallUtils.hpp Pages: 1 -->
<svg width="197pt" height="196pt"
 viewBox="0.00 0.00 196.75 196.00" xmlns="http://www.w3.org/2000/svg" xmlns:xlink="http://www.w3.org/1999/xlink">
<g id="graph0" class="graph" transform="scale(1 1) rotate(0) translate(4 192)">
<title>include/ADUL/smallUtils.hpp</title>
<!-- Node1 -->
<g id="Node000001" class="node">
<title>Node1</title>
<g id="a_Node000001"><a xlink:title=" ">
<polygon fill="#999999" stroke="#666666" points="142,-188 0,-188 0,-168 142,-168 142,-188"/>
<text text-anchor="middle" x="71" y="-174.5" font-family="Helvetica,sans-Serif" font-size="10.00">include/ADUL/smallUtils.hpp</text>
</a>
</g>
</g>
<!-- Node2 -->
<g id="Node000002" class="node">
<title>Node2</title>
<g id="a_Node000002"><a xlink:href="_a_d_u_l_8hpp.html" target="_top" xlink:title=" ">
<polygon fill="white" stroke="#666666" points="113.75,-20 18.25,-20 18.25,0 113.75,0 113.75,-20"/>
<text text-anchor="middle" x="66" y="-6.5" font-family="Helvetica,sans-Serif" font-size="10.00">include/ADUL.hpp</text>
</a>
</g>
</g>
<!-- Node1&#45;&gt;Node2 -->
<g id="edge1_Node000001_Node000002" class="edge">
<title>Node1&#45;&gt;Node2</title>
<g id="a_edge1_Node000001_Node000002"><a xlink:title=" ">
<path fill="none" stroke="#63b8ff" d="M55.83,-158.73C50.34,-150.98 44.81,-141.55 42,-132 29.97,-91.12 51.14,-40.68 61.17,-20.24"/>
<polygon fill="#63b8ff" stroke="#63b8ff" points="53,-160.79 61.86,-166.6 58.56,-156.53 53,-160.79"/>
</a>
</g>
</g>
<!-- Node3 -->
<g id="Node000003" class="node">
<title>Node3</title>
<g id="a_Node000003"><a xlink:href="_x_m_l_map_8hpp.html" target="_top" xlink:title=" ">
<polygon fill="white" stroke="#666666" points="188.75,-132 51.25,-132 51.25,-112 188.75,-112 188.75,-132"/>
<text text-anchor="middle" x="120" y="-118.5" font-family="Helvetica,sans-Serif" font-size="10.00">include/ADUL/XMLMap.hpp</text>
</a>
</g>
</g>
<!-- Node1&#45;&gt;Node3 -->
<g id="edge2_Node000001_Node000003" class="edge">
<title>Node1&#45;&gt;Node3</title>
<g id="a_edge2_Node000001_Node000003"><a xlink:title=" ">
<path fill="none" stroke="#63b8ff" d="M87.07,-159.29C95.25,-150.28 104.85,-139.7 111.56,-132.3"/>
<polygon fill="#63b8ff" stroke="#63b8ff" points="84.68,-156.72 80.55,-166.47 89.86,-161.42 84.68,-156.72"/>
</a>
</g>
</g>
<!-- Node4 -->
<g id="Node000004" class="node">
<title>Node4</title>
<g id="a_Node000004"><a xlink:href="atm_8hpp.html" target="_top" xlink:title=" ">
<polygon fill="white" stroke="#666666" points="171.5,-76 56.5,-76 56.5,-56 171.5,-56 171.5,-76"/>
<text text-anchor="middle" x="114" y="-62.5" font-family="Helvetica,sans-Serif" font-size="10.00">include/ADUL/atm.hpp</text>
</a>
</g>
</g>
<!-- Node3&#45;&gt;Node4 -->
<g id="edge3_Node000003_Node000004" class="edge">
<title>Node3&#45;&gt;Node4</title>
<g id="a_edge3_Node000003_Node000004"><a xlink:title=" ">
<path fill="none" stroke="#63b8ff" d="M117.71,-100.43C116.79,-92.11 115.77,-82.93 115.03,-76.3"/>
<polygon fill="#63b8ff" stroke="#63b8ff" points="114.2,-100.54 118.79,-110.09 121.16,-99.76 114.2,-100.54"/>
</a>
</g>
</g>
<!-- Node4&#45;&gt;Node2 -->
<g id="edge4_Node000004_Node000002" class="edge">
<title>Node4&#45;&gt;Node2</title>
<g id="a_edge4_Node000004_Node000002"><a xlink:title=" ">
<path fill="none" stroke="#63b8ff" d="M98,-47C90.05,-38.06 80.78,-27.62 74.27,-20.3"/>
<polygon fill="#63b8ff" stroke="#63b8ff" points="95.37,-49.31 104.63,-54.46 100.61,-44.66 95.37,-49.31"/>
</a>
</g>
</g>
</g>
</svg>
