<?xml version="1.0" encoding="UTF-8" standalone="no"?>
<!DOCTYPE svg PUBLIC "-//W3C//DTD SVG 1.1//EN"
 "http://www.w3.org/Graphics/SVG/1.1/DTD/svg11.dtd">
<!-- Generated by graphviz version 2.49.3 (0)
 -->
<!-- Title: include/ADUL/time.hpp Pages: 1 -->
<svg width="176pt" height="137pt"
 viewBox="0.00 0.00 175.50 137.00" xmlns="http://www.w3.org/2000/svg" xmlns:xlink="http://www.w3.org/1999/xlink">
<g id="graph0" class="graph" transform="scale(1 1) rotate(0) translate(4 133)">
<title>include/ADUL/time.hpp</title>
<!-- Node1 -->
<g id="Node000001" class="node">
<title>Node1</title>
<g id="a_Node000001"><a xlink:title=" ">
<polygon fill="#999999" stroke="#666666" points="118,-129 0,-129 0,-110 118,-110 118,-129"/>
<text text-anchor="middle" x="59" y="-117" font-family="Helvetica,sans-Serif" font-size="10.00">include/ADUL/time.hpp</text>
</a>
</g>
</g>
<!-- Node2 -->
<g id="Node000002" class="node">
<title>Node2</title>
<g id="a_Node000002"><a xlink:href="_a_d_u_l_8hpp.html" target="_top" xlink:title=" ">
<polygon fill="white" stroke="#666666" points="107,-19 11,-19 11,0 107,0 107,-19"/>
<text text-anchor="middle" x="59" y="-7" font-family="Helvetica,sans-Serif" font-size="10.00">include/ADUL.hpp</text>
</a>
</g>
</g>
<!-- Node1&#45;&gt;Node2 -->
<g id="edge1_Node000001_Node000002" class="edge">
<title>Node1&#45;&gt;Node2</title>
<g id="a_edge1_Node000001_Node000002"><a xlink:title=" ">
<path fill="none" stroke="#63b8ff" d="M46.76,-101.54C41.75,-93.59 36.55,-83.74 34,-74 28.72,-53.83 42.52,-31.38 51.66,-19.32"/>
<polygon fill="#63b8ff" stroke="#63b8ff" points="43.89,-103.54 52.37,-109.88 49.69,-99.63 43.89,-103.54"/>
</a>
</g>
</g>
<!-- Node3 -->
<g id="Node000003" class="node">
<title>Node3</title>
<g id="a_Node000003"><a xlink:href="logger_8hpp.html" target="_top" xlink:title=" ">
<polygon fill="white" stroke="#666666" points="167.5,-74 42.5,-74 42.5,-55 167.5,-55 167.5,-74"/>
<text text-anchor="middle" x="105" y="-62" font-family="Helvetica,sans-Serif" font-size="10.00">include/ADUL/logger.hpp</text>
</a>
</g>
</g>
<!-- Node1&#45;&gt;Node3 -->
<g id="edge2_Node000001_Node000003" class="edge">
<title>Node1&#45;&gt;Node3</title>
<g id="a_edge2_Node000001_Node000003"><a xlink:title=" ">
<path fill="none" stroke="#63b8ff" d="M73.36,-101.96C81.37,-92.72 91.03,-81.6 97.55,-74.09"/>
<polygon fill="#63b8ff" stroke="#63b8ff" points="70.51,-99.9 66.6,-109.75 75.79,-104.49 70.51,-99.9"/>
</a>
</g>
</g>
<!-- Node3&#45;&gt;Node2 -->
<g id="edge3_Node000003_Node000002" class="edge">
<title>Node3&#45;&gt;Node2</title>
<g id="a_edge3_Node000003_Node000002"><a xlink:title=" ">
<path fill="none" stroke="#63b8ff" d="M90.64,-46.96C82.63,-37.72 72.97,-26.6 66.45,-19.09"/>
<polygon fill="#63b8ff" stroke="#63b8ff" points="88.21,-49.49 97.4,-54.75 93.49,-44.9 88.21,-49.49"/>
</a>
</g>
</g>
</g>
</svg>
