<?xml version="1.0" encoding="UTF-8" standalone="no"?>
<!DOCTYPE svg PUBLIC "-//W3C//DTD SVG 1.1//EN"
 "http://www.w3.org/Graphics/SVG/1.1/DTD/svg11.dtd">
<!-- Generated by graphviz version 12.1.0 (20240811.2233)
 -->
<!-- Title: include/ADUL/time.hpp Pages: 1 -->
<svg width="168pt" height="140pt"
 viewBox="0.00 0.00 167.88 140.00" xmlns="http://www.w3.org/2000/svg" xmlns:xlink="http://www.w3.org/1999/xlink">
<g id="graph0" class="graph" transform="scale(1 1) rotate(0) translate(4 136)">
<title>include/ADUL/time.hpp</title>
<!-- Node1 -->
<g id="Node000001" class="node">
<title>Node1</title>
<g id="a_Node000001"><a xlink:title=" ">
<polygon fill="#999999" stroke="#666666" points="117.25,-132 0,-132 0,-112 117.25,-112 117.25,-132"/>
<text text-anchor="middle" x="58.62" y="-118.5" font-family="Helvetica,sans-Serif" font-size="10.00">include/ADUL/time.hpp</text>
</a>
</g>
</g>
<!-- Node2 -->
<g id="Node000002" class="node">
<title>Node2</title>
<g id="a_Node000002"><a xlink:href="_a_d_u_l_8hpp.html" target="_top" xlink:title=" ">
<polygon fill="white" stroke="#666666" points="106.38,-20 10.88,-20 10.88,0 106.38,0 106.38,-20"/>
<text text-anchor="middle" x="58.62" y="-6.5" font-family="Helvetica,sans-Serif" font-size="10.00">include/ADUL.hpp</text>
</a>
</g>
</g>
<!-- Node1&#45;&gt;Node2 -->
<g id="edge1_Node000001_Node000002" class="edge">
<title>Node1&#45;&gt;Node2</title>
<g id="a_edge1_Node000001_Node000002"><a xlink:title=" ">
<path fill="none" stroke="#63b8ff" d="M45.74,-101.84C41.29,-94.15 36.87,-84.99 34.62,-76 29.55,-55.69 42.46,-32.96 51.25,-20.48"/>
<polygon fill="#63b8ff" stroke="#63b8ff" points="42.74,-103.65 51,-110.28 48.68,-99.94 42.74,-103.65"/>
</a>
</g>
</g>
<!-- Node3 -->
<g id="Node000003" class="node">
<title>Node3</title>
<g id="a_Node000003"><a xlink:href="logs_8hpp.html" target="_top" xlink:title=" ">
<polygon fill="white" stroke="#666666" points="159.88,-76 43.38,-76 43.38,-56 159.88,-56 159.88,-76"/>
<text text-anchor="middle" x="101.62" y="-62.5" font-family="Helvetica,sans-Serif" font-size="10.00">include/ADUL/logs.hpp</text>
</a>
</g>
</g>
<!-- Node1&#45;&gt;Node3 -->
<g id="edge2_Node000001_Node000003" class="edge">
<title>Node1&#45;&gt;Node3</title>
<g id="a_edge2_Node000001_Node000003"><a xlink:title=" ">
<path fill="none" stroke="#63b8ff" d="M73.18,-102.72C80.25,-93.84 88.45,-83.55 94.22,-76.3"/>
<polygon fill="#63b8ff" stroke="#63b8ff" points="70.55,-100.41 67.06,-110.41 76.03,-104.77 70.55,-100.41"/>
</a>
</g>
</g>
<!-- Node3&#45;&gt;Node2 -->
<g id="edge3_Node000003_Node000002" class="edge">
<title>Node3&#45;&gt;Node2</title>
<g id="a_edge3_Node000003_Node000002"><a xlink:title=" ">
<path fill="none" stroke="#63b8ff" d="M87.07,-46.72C80,-37.84 71.8,-27.55 66.03,-20.3"/>
<polygon fill="#63b8ff" stroke="#63b8ff" points="84.22,-48.77 93.19,-54.41 89.7,-44.41 84.22,-48.77"/>
</a>
</g>
</g>
</g>
</svg>
